<svg width="48" height="48" viewBox="0 0 48 48" fill="none" xmlns="http://www.w3.org/2000/svg">
<g clip-path="url(#clip0)">
<path d="M44.3505 15.8417L40.5662 12.0574L36.7016 15.922C36.3946 16.229 35.9036 16.2541 35.5698 15.9765C33.8002 14.5042 31.7454 13.363 29.5004 12.6479C29.1493 12.536 28.909 12.2124 28.909 11.8438V3.26756L26.9066 1.33594H20.368L19.0909 3.26756V11.8437C19.0909 12.2123 18.8507 12.536 18.4994 12.6478C16.2545 13.363 14.1997 14.5042 12.4301 15.9764C12.0963 16.2541 11.6054 16.229 11.2983 15.9219L7.43367 12.0573L3.64935 15.8416L7.98895 20.1812C8.25585 20.4481 8.31023 20.8584 8.12826 21.1892C6.72726 23.7367 5.9211 26.6574 5.8987 29.7649C5.8266 39.7658 13.9706 47.9846 23.9716 48C33.982 48.0154 42.1018 39.9051 42.1018 29.8983C42.1018 26.7411 41.2926 23.7731 39.8715 21.1892C39.6897 20.8585 39.7441 20.4484 40.0109 20.1815L44.3505 15.8417Z" fill="#D3EFFB"/>
<path d="M19.0909 3.26758H28.909V4.9952H19.0909V3.26758Z" fill="#BED8FB"/>
<path d="M40.0108 20.1816L44.3505 15.8419L40.5662 12.0576L39.2936 13.3303L40.5414 14.5781C41.2912 15.3279 41.2912 16.5436 40.5414 17.2934L37.5593 20.2755C37.2925 20.5423 37.238 20.9525 37.4199 21.2832C38.8409 23.8671 39.6501 26.8351 39.6501 29.9923C39.6501 39.34 32.5643 47.0319 23.4711 47.9922C23.6374 47.997 23.8042 48 23.9715 48.0002C33.9819 48.0156 42.1017 39.9053 42.1017 29.8985C42.1017 26.7413 41.2925 23.7734 39.8714 21.1894C39.6896 20.8587 39.744 20.4485 40.0108 20.1816Z" fill="#BED8FB"/>
<path d="M30.2066 3.26756H17.7933C17.4739 3.26756 17.215 3.00863 17.215 2.68922V0.578344C17.215 0.258938 17.4739 0 17.7933 0H30.2065C30.5259 0 30.7848 0.258938 30.7848 0.578344V2.68922C30.7849 3.00863 30.526 3.26756 30.2066 3.26756Z" fill="#9DC6FB"/>
<path d="M30.2066 0H28.3306C28.65 0 28.909 0.258938 28.909 0.578344V2.68922C28.909 3.00863 28.65 3.26756 28.3306 3.26756H30.2066C30.526 3.26756 30.7849 3.00863 30.7849 2.68922V0.578344C30.7849 0.258938 30.526 0 30.2066 0V0Z" fill="#80B4FB"/>
<path d="M9.79168 25.6927C9.35424 27.1668 9.14002 28.7357 9.1899 30.3608C9.42943 38.1717 15.7716 44.4947 23.5831 44.7103C31.9429 44.941 38.8171 38.2076 38.8171 29.8988C38.8171 28.4362 38.6035 27.0228 38.2066 25.6874C38.0472 25.151 37.4599 24.8667 36.9396 25.0729C35.6788 25.5723 33.3056 26.364 30.9324 26.364C27.466 26.364 27.466 24.6748 23.9996 24.6748C20.5333 24.6748 20.5333 26.364 17.0671 26.364C14.6942 26.364 12.3213 25.5724 11.0605 25.073C10.5381 24.8661 9.95152 25.1541 9.79168 25.6927Z" fill="#DD5790"/>
<path d="M38.2067 25.6868C38.0472 25.1504 37.46 24.8661 36.9396 25.0723C36.4712 25.2578 35.849 25.4837 35.1305 25.6943C35.5259 27.0275 35.7389 28.4385 35.7389 29.8982C35.7389 37.5487 29.9106 43.8633 22.4611 44.6357C22.8313 44.6742 23.2054 44.6992 23.5831 44.7097C31.9429 44.9404 38.8171 38.207 38.8171 29.8982C38.8172 28.4357 38.6035 27.0223 38.2067 25.6868Z" fill="#DA387D"/>
<path d="M14.6993 31.5413C14.2993 31.5413 13.975 31.217 13.975 30.817V30.029C13.975 29.6289 14.2993 29.3047 14.6993 29.3047C15.0993 29.3047 15.4236 29.629 15.4236 30.029V30.817C15.4236 31.217 15.0993 31.5413 14.6993 31.5413Z" fill="#DA387D"/>
<path d="M27.6601 32.0471C27.26 32.0471 26.9358 31.7229 26.9358 31.3228V30.5349C26.9358 30.1347 27.2601 29.8105 27.6601 29.8105C28.0601 29.8105 28.3844 30.1348 28.3844 30.5349V31.3228C28.3844 31.723 28.0602 32.0471 27.6601 32.0471Z" fill="#DA387D"/>
<path d="M19.4379 34.721C19.0379 34.721 18.7136 34.3967 18.7136 33.9967V33.2087C18.7136 32.8086 19.0379 32.4844 19.4379 32.4844C19.838 32.4844 20.1622 32.8087 20.1622 33.2087V33.9967C20.1623 34.3968 19.838 34.721 19.4379 34.721Z" fill="#DA387D"/>
<path d="M32.199 37.5071C31.7989 37.5071 31.4747 37.1828 31.4747 36.7828V35.9948C31.4747 35.5947 31.799 35.2705 32.199 35.2705C32.599 35.2705 32.9233 35.5948 32.9233 35.9948V36.7828C32.9234 37.1828 32.5991 37.5071 32.199 37.5071Z" fill="#DA387D"/>
<path d="M22.879 40.4534C22.4789 40.4534 22.1547 40.1291 22.1547 39.7291V38.9411C22.1547 38.541 22.4789 38.2168 22.879 38.2168C23.279 38.2168 23.6033 38.5411 23.6033 38.9411V39.7291C23.6034 40.1292 23.2791 40.4534 22.879 40.4534Z" fill="#DA387D"/>
<path d="M2.64709 17.5686C2.46175 17.5686 2.27631 17.4978 2.13493 17.3565C1.852 17.0736 1.852 16.615 2.13493 16.3321L7.92381 10.5432C8.20665 10.2603 8.66528 10.2603 8.94821 10.5432C9.23115 10.826 9.23115 11.2847 8.94821 11.5676L3.15934 17.3565C3.01778 17.4978 2.83243 17.5686 2.64709 17.5686Z" fill="#9DC6FB"/>
<path d="M45.3528 17.5687C45.1674 17.5687 44.982 17.498 44.8405 17.3565L39.0518 11.5676C38.7689 11.2848 38.7689 10.8262 39.0518 10.5432C39.3348 10.2603 39.7934 10.2604 40.0763 10.5432L45.865 16.3321C46.1479 16.615 46.1479 17.0736 45.865 17.3565C45.7236 17.4979 45.5381 17.5687 45.3528 17.5687Z" fill="#9DC6FB"/>
</g>
<defs>
<clipPath id="clip0">
<rect width="48" height="48" fill="white"/>
</clipPath>
</defs>
</svg>
