<svg width="48" height="48" viewBox="0 0 48 48" fill="none" xmlns="http://www.w3.org/2000/svg">
<g clip-path="url(#clip0)">
<path d="M47.8174 34.9146C47.7377 35.002 46.5705 36.2757 44.8633 37.4151L40.7814 37.9703L40.6886 42.0188C40.2873 43.2362 39.6977 44.6142 38.8407 45.8917C38.7057 46.0936 38.4844 46.2035 38.2566 46.2035C38.1385 46.2035 38.0185 46.1735 37.9088 46.1106C37.6754 45.9762 32.5744 43.0136 27.8859 37.0901C27.4584 36.551 27.0356 35.9873 26.6193 35.3984C26.3953 35.0818 26.4693 34.6432 26.7853 34.4177L29.7093 32.3277L34.5656 28.8569L37.4297 26.8091C37.7345 26.5912 38.1563 26.6513 38.3888 26.9453C38.8782 27.5653 39.39 28.1524 39.9235 28.7047C42.1172 30.9835 44.6738 32.6865 47.5473 33.7818C47.7639 33.8645 47.927 34.0495 47.9804 34.2768C48.0348 34.5032 47.974 34.7418 47.8174 34.9146Z" fill="#78C2EF"/>
<path d="M39.9236 28.7047C37.249 32.9364 32.9401 36.0278 27.886 37.0901C27.4585 36.551 27.0357 35.9874 26.6194 35.3984C26.3954 35.0818 26.4694 34.6432 26.7854 34.4177L29.7095 32.3277L34.5657 28.8569L37.4299 26.8091C37.7346 26.5912 38.1564 26.6513 38.3889 26.9453C38.8782 27.5653 39.3902 28.1524 39.9236 28.7047Z" fill="#74A1E2"/>
<path d="M44.8633 37.415C43.8648 38.081 42.6826 38.7019 41.4254 39.0118C41.3279 39.6271 41.1132 40.7327 40.6885 42.0187C39.3169 41.2052 35.7038 38.9104 32.4066 35.5128C31.4616 34.5387 30.5419 33.4735 29.7094 32.3275L34.5656 28.8567C35.3841 30.0337 36.3028 31.0904 37.2525 32.0298C40.1982 34.9408 43.4345 36.7133 44.8633 37.415Z" fill="#E5EAF9"/>
<path d="M21.3806 35.3984C20.9643 35.9873 20.5415 36.551 20.114 37.0901C15.4255 43.0136 10.3245 45.9762 10.0911 46.1106C9.98136 46.1735 9.8614 46.2035 9.74324 46.2035C9.51545 46.2035 9.29414 46.0936 9.15916 45.8917C8.3023 44.6142 7.71258 43.2362 7.3113 42.0188L7.30848 38.0689L3.13661 37.4151C1.42937 36.2757 0.26225 35.002 0.182501 34.9146C0.0259135 34.7418 -0.0349554 34.5032 0.0193381 34.2768C0.0727863 34.0495 0.235949 33.8645 0.452465 33.7818C3.32589 32.6865 5.88248 30.9835 8.07629 28.7047C8.60974 28.1524 9.12158 27.5653 9.61098 26.9453C9.84346 26.6513 10.2653 26.5912 10.57 26.8091L13.4342 28.8569L18.2904 32.3277L21.2145 34.4177C21.5306 34.6432 21.6047 35.0818 21.3806 35.3984Z" fill="#78C2EF"/>
<path d="M21.3806 35.3984C20.9644 35.9874 20.5415 36.551 20.114 37.0901C15.0599 36.0278 10.7511 32.9364 8.07642 28.7047C8.60986 28.1524 9.12171 27.5653 9.6111 26.9453C9.84359 26.6513 10.2654 26.5912 10.5702 26.8091L13.4343 28.8569L18.2906 32.3277L21.2146 34.4177C21.5306 34.6432 21.6047 35.0818 21.3806 35.3984Z" fill="#74A1E2"/>
<path d="M18.2905 32.3275C17.458 33.4735 16.5383 34.5387 15.5933 35.5128C12.296 38.9104 8.6829 41.2052 7.31138 42.0187C6.8867 40.7327 6.67197 39.6271 6.57447 39.0118C5.31726 38.7019 4.13511 38.081 3.1366 37.415C4.56532 36.7133 7.80161 34.9408 10.7473 32.0298C11.6969 31.0904 12.6157 30.0337 13.4341 28.8567L18.2905 32.3275Z" fill="#E5EAF9"/>
<path d="M13.4342 28.8567L18.2904 32.3275C17.4579 33.4735 16.5382 34.5387 15.5932 35.5128C13.7951 34.612 12.161 33.4331 10.7472 32.0298C11.697 31.0904 12.6157 30.0337 13.4342 28.8567Z" fill="#CBD6EF"/>
<path d="M37.2526 32.0298C35.8388 33.4331 34.2047 34.612 32.4066 35.5128C31.4616 34.5387 30.5419 33.4735 29.7094 32.3275L34.5656 28.8567C35.3842 30.0337 36.3029 31.0904 37.2526 32.0298Z" fill="#CBD6EF"/>
<path d="M35.8445 6.72883V9.19083L35.8436 28.0508V30.5118C32.8098 33.5572 28.6192 35.4443 24.0001 35.4443C23.6541 35.4443 23.311 35.4339 22.9706 35.4133C18.7593 35.155 14.9624 33.3289 12.1555 30.5109V6.72883C14.9624 3.91177 18.7593 2.0857 22.9706 1.82738C23.311 1.80672 23.6541 1.79639 24.0001 1.79639C28.6201 1.79639 32.8107 3.68351 35.8445 6.72883Z" fill="#FFE0A9"/>
<path d="M35.8435 28.0508V30.5118C32.8097 33.5572 28.6191 35.4443 24 35.4443C23.654 35.4443 23.3109 35.434 22.9706 35.4133C28.3275 35.0873 33.0066 32.2449 35.8435 28.0508Z" fill="#FFCB78"/>
<path d="M35.8444 6.72883V9.19083C33.0066 4.99576 28.3275 2.15333 22.9706 1.82738C23.3109 1.80672 23.654 1.79639 24 1.79639C28.62 1.79639 32.8107 3.68351 35.8444 6.72883Z" fill="#FFCB78"/>
<path d="M40.759 18.6198C40.759 23.2592 38.8793 27.4655 35.8436 30.5118L34.7861 29.4503L32.8857 27.5416V9.69893L34.787 7.79021L35.8445 6.72876C38.8793 9.77596 40.759 13.9814 40.759 18.6198Z" fill="#FFCB78"/>
<path d="M15.1143 9.69894V27.5416L12.1555 30.5108C9.12079 27.4646 7.24109 23.2582 7.24109 18.6198C7.24109 13.9814 9.12079 9.77596 12.1555 6.72876L15.1143 9.69894Z" fill="#FFCB78"/>
<path d="M40.759 18.6198C40.759 23.2592 38.8793 27.4655 35.8436 30.5118L34.7861 29.4503C37.2471 26.5243 38.7283 22.7463 38.7283 18.6207C38.7283 14.4952 37.2471 10.7162 34.7871 7.79021L35.8446 6.72876C38.8793 9.77596 40.759 13.9814 40.759 18.6198Z" fill="#FFA757"/>
<path d="M36.9995 18.6198C36.9995 25.8273 31.1795 31.6709 24 31.6709C23.6531 31.6709 23.3091 31.6568 22.9687 31.6295C16.2712 31.1026 11.0005 25.4788 11.0005 18.6198C11.0005 11.7607 16.2712 6.13788 22.9687 5.61091C23.3091 5.58367 23.6531 5.56958 24 5.56958C31.1795 5.56958 36.9995 11.4122 36.9995 18.6198Z" fill="#FFA757"/>
<path d="M36.9994 18.6198C36.9994 25.8273 31.1794 31.6709 23.9999 31.6709C23.653 31.6709 23.3089 31.6568 22.9686 31.6295C29.6662 31.1026 34.9369 25.4788 34.9369 18.6198C34.9369 11.7607 29.6662 6.13788 22.9686 5.61091C23.3089 5.58367 23.653 5.56958 23.9999 5.56958C31.1794 5.56958 36.9994 11.4122 36.9994 18.6198Z" fill="#FF895A"/>
<path d="M27.8044 26.5452C27.4153 26.5452 27.0999 26.8599 27.0999 27.2483C27.0999 27.6366 27.4153 27.9513 27.8044 27.9513C28.1934 27.9513 28.5089 27.6366 28.5089 27.2483C28.5089 26.8599 28.1934 26.5452 27.8044 26.5452Z" fill="#FFCB78"/>
<path d="M24.0004 10.058C24.3895 10.058 24.7049 9.74325 24.7049 9.35495C24.7049 8.96664 24.3895 8.65186 24.0004 8.65186C23.6113 8.65186 23.2959 8.96664 23.2959 9.35495C23.2959 9.74325 23.6113 10.058 24.0004 10.058Z" fill="#FFCB78"/>
<path d="M20.1957 10.7143C20.5848 10.7143 20.9002 10.3995 20.9002 10.0112C20.9002 9.62289 20.5848 9.30811 20.1957 9.30811C19.8066 9.30811 19.4912 9.62289 19.4912 10.0112C19.4912 10.3995 19.8066 10.7143 20.1957 10.7143Z" fill="#FFCB78"/>
<path d="M20.1957 26.5452C19.8066 26.5452 19.4912 26.8599 19.4912 27.2483C19.4912 27.6366 19.8066 27.9513 20.1957 27.9513C20.5848 27.9513 20.9002 27.6366 20.9002 27.2483C20.9002 26.8599 20.5848 26.5452 20.1957 26.5452Z" fill="#FFCB78"/>
<path d="M24.0004 28.6076C24.3895 28.6076 24.7049 28.2928 24.7049 27.9045C24.7049 27.5162 24.3895 27.2014 24.0004 27.2014C23.6113 27.2014 23.2959 27.5162 23.2959 27.9045C23.2959 28.2928 23.6113 28.6076 24.0004 28.6076Z" fill="#FFCB78"/>
<path d="M27.8044 10.7143C28.1934 10.7143 28.5089 10.3995 28.5089 10.0112C28.5089 9.62289 28.1934 9.30811 27.8044 9.30811C27.4153 9.30811 27.0999 9.62289 27.0999 10.0112C27.0999 10.3995 27.4153 10.7143 27.8044 10.7143Z" fill="#FFCB78"/>
<path d="M32.6185 15.5298C33.0068 15.5298 33.3216 15.2144 33.3216 14.8253C33.3216 14.4363 33.0068 14.1208 32.6185 14.1208C32.2302 14.1208 31.9154 14.4363 31.9154 14.8253C31.9154 15.2144 32.2302 15.5298 32.6185 15.5298Z" fill="#FFCB78"/>
<path d="M15.4284 18.6293C15.4284 18.2402 15.1136 17.9248 14.7253 17.9248C14.337 17.9248 14.0222 18.2402 14.0222 18.6293C14.0222 19.0184 14.337 19.3338 14.7253 19.3338C15.1136 19.3338 15.4284 19.0184 15.4284 18.6293Z" fill="#FFCB78"/>
<path d="M15.3814 23.1385C15.7697 23.1385 16.0845 22.8231 16.0845 22.434C16.0845 22.0449 15.7697 21.7295 15.3814 21.7295C14.9931 21.7295 14.6783 22.0449 14.6783 22.434C14.6783 22.8231 14.9931 23.1385 15.3814 23.1385Z" fill="#FFCB78"/>
<path d="M32.6185 23.1385C33.0068 23.1385 33.3216 22.8231 33.3216 22.434C33.3216 22.0449 33.0068 21.7295 32.6185 21.7295C32.2302 21.7295 31.9154 22.0449 31.9154 22.434C31.9154 22.8231 32.2302 23.1385 32.6185 23.1385Z" fill="#FFCB78"/>
<path d="M33.2747 17.9248C32.8864 17.9248 32.5717 18.2402 32.5717 18.6293C32.5717 19.0184 32.8864 19.3338 33.2747 19.3338C33.6631 19.3338 33.9778 19.0184 33.9778 18.6293C33.9778 18.2402 33.6631 17.9248 33.2747 17.9248Z" fill="#FFCB78"/>
<path d="M15.3814 15.5298C15.7697 15.5298 16.0845 15.2144 16.0845 14.8253C16.0845 14.4363 15.7697 14.1208 15.3814 14.1208C14.9931 14.1208 14.6783 14.4363 14.6783 14.8253C14.6783 15.2144 14.9931 15.5298 15.3814 15.5298Z" fill="#FFCB78"/>
<path d="M30.7536 16.8754C30.6681 16.6082 30.4324 16.4173 30.1537 16.3895C30.0887 16.383 28.6314 16.2396 26.4271 16.162C25.4641 13.6542 24.6256 11.8388 24.6167 11.8197C24.5014 11.571 24.2526 11.4119 23.9788 11.4119C23.7052 11.4119 23.4564 11.571 23.341 11.8197C23.3322 11.8388 22.4965 13.6479 21.5358 16.1485C20.2256 16.1907 18.972 16.2717 17.8033 16.3896C17.5248 16.4177 17.2895 16.6087 17.2042 16.8758C17.1188 17.1429 17.1998 17.4353 17.4102 17.6202C18.2052 18.3188 19.1478 19.0742 20.2165 19.8696C19.7127 21.4321 19.3157 22.8807 19.0349 24.1817C18.976 24.4548 19.0838 24.7369 19.3094 24.9009C19.432 24.99 19.5769 25.0351 19.7223 25.0351C19.8445 25.0351 19.9669 25.0033 20.0769 24.9389C20.095 24.9284 21.8036 23.9262 23.9788 22.4931C26.1541 23.9262 27.8628 24.9284 27.8808 24.9389C28.1216 25.0798 28.4227 25.0649 28.6484 24.9009C28.8741 24.7369 28.9817 24.4547 28.9228 24.1817C28.6421 22.8808 28.2451 21.4323 27.7413 19.8696C28.8097 19.0744 29.7521 18.3191 30.5475 17.6202C30.7583 17.4352 30.8391 17.1426 30.7536 16.8754Z" fill="#FFE0A9"/>
</g>
<defs>
<clipPath id="clip0">
<rect width="48" height="48" fill="white"/>
</clipPath>
</defs>
</svg>
