<svg width="48" height="48" viewBox="0 0 48 48" fill="none" xmlns="http://www.w3.org/2000/svg">
<g clip-path="url(#clip0)">
<path d="M42.1707 30.5409C42.1519 30.5887 42.1285 30.6356 42.1003 30.6787L35.3082 41.0428C35.2791 41.0869 35.2453 41.1281 35.2069 41.1656C32.2453 43.9987 28.56 46.2825 24.2532 47.9522C24.1716 47.9841 24.0853 48 23.9991 48C23.9128 48 23.8266 47.9841 23.7441 47.9522C19.4372 46.2816 15.7519 43.9987 12.7903 41.1656C12.7519 41.1281 12.7182 41.0869 12.6891 41.0428L5.89691 30.6787C5.86878 30.6356 5.84535 30.5887 5.8266 30.5409C3.64597 24.7462 3.44347 18.8784 3.65816 14.9756C3.89066 10.7494 4.62941 7.92094 4.66035 7.80281C4.7541 7.45031 5.10097 7.22813 5.4591 7.28906C11.1966 8.26969 15.9488 7.41375 19.5853 4.74469C22.2957 2.75625 23.3447 0.441563 23.355 0.418125C23.4685 0.164062 23.7207 0 23.9982 0H24.001C24.2794 0.0009375 24.5307 0.165 24.6422 0.42C24.6525 0.441563 25.7016 2.75625 28.4119 4.74469C32.0485 7.41375 36.8016 8.26969 42.5382 7.28906C42.8972 7.22813 43.2432 7.45031 43.3369 7.80281C43.3678 7.92094 44.1066 10.7494 44.3391 14.9756C44.5538 18.8784 44.3513 24.7462 42.1707 30.5409Z" fill="#FFE0A9"/>
<path d="M42.1707 30.5409C42.1519 30.5887 42.1285 30.6356 42.1004 30.6787L35.3082 41.0428C35.2791 41.0869 35.2454 41.1281 35.2069 41.1656C32.2454 43.9987 28.5601 46.2825 24.2532 47.9522C24.1716 47.9841 24.0854 48 23.9991 48C28.2441 46.2562 31.5573 43.2609 34.1269 40.6575L40.5413 30.2934C43.7419 21.2897 42.4257 12.7013 41.8435 9.885C41.7329 9.34875 41.2238 8.99625 40.6819 9.07125C27.8448 10.8516 24.001 0 24.001 0C24.2795 0.0009375 24.5307 0.165 24.6423 0.42C24.6526 0.441563 25.7016 2.75625 28.412 4.74469C32.0485 7.41375 36.8016 8.26969 42.5382 7.28906C42.8973 7.22813 43.2432 7.45031 43.3369 7.80281C43.3679 7.92094 44.1066 10.7494 44.3391 14.9756C44.5538 18.8784 44.3513 24.7462 42.1707 30.5409Z" fill="#FFCB78"/>
<path d="M40.6631 23.3991C40.2665 25.8769 39.615 28.2094 38.7262 30.3309C38.7018 30.39 38.669 30.4453 38.6296 30.495L30.4462 40.86C30.4068 40.9097 30.3609 40.9537 30.3093 40.9912C28.5224 42.3 26.4928 43.4456 24.2765 44.3981C24.1875 44.4366 24.0928 44.4553 23.999 44.4553C23.9043 44.4553 23.8096 44.4366 23.7206 44.3981C21.5053 43.4456 19.4756 42.3 17.6887 40.9912C17.6371 40.9537 17.5912 40.9097 17.5518 40.86L9.36839 30.495C9.32901 30.4453 9.2962 30.39 9.27183 30.3309C8.40745 28.2684 7.76714 26.0062 7.36776 23.6072C6.56808 18.8034 6.89058 14.3719 7.30308 11.5003C7.35464 11.1366 7.67808 10.8741 8.04464 10.8984C8.62776 10.9369 9.21089 10.9556 9.77714 10.9556C15.5212 10.9556 19.38 8.98593 21.6056 7.33405C22.2768 6.8353 22.9143 6.28499 23.5003 5.69718C23.6325 5.56499 23.8115 5.48999 23.999 5.48999C24.1856 5.48999 24.3646 5.56499 24.4968 5.69718C24.4968 5.69718 24.4968 5.69718 24.4978 5.69812C25.0837 6.28593 25.7203 6.83624 26.3915 7.33405C28.6171 8.98687 32.4759 10.9556 38.22 10.9556C38.789 10.9556 39.374 10.9359 39.959 10.8984C40.3237 10.8731 40.6481 11.1356 40.7006 11.4994C41.1046 14.2978 41.4262 18.6337 40.6631 23.3991Z" fill="#FFA757"/>
<path d="M40.6629 23.3989C40.2664 25.8767 39.6148 28.2092 38.726 30.3308C38.7017 30.3899 38.6689 30.4452 38.6295 30.4949L30.446 40.8599C30.4067 40.9096 30.3607 40.9536 30.3092 40.9911C28.5223 42.2999 26.4926 43.4455 24.2764 44.398C40.6142 35.0389 39.5182 17.2114 39.0785 13.3949C39.0307 12.9833 38.6904 12.6664 38.276 12.6542C28.1811 12.3599 24.5539 5.80112 24.4976 5.698C25.0836 6.28581 25.7201 6.83612 26.3914 7.33394C28.617 8.98675 32.4757 10.9555 38.2198 10.9555C38.7889 10.9555 39.3739 10.9358 39.9589 10.8983C40.3235 10.873 40.6479 11.1355 40.7004 11.4992C41.1045 14.2977 41.426 18.6336 40.6629 23.3989Z" fill="#FF895A"/>
<path d="M47.37 44.9399C47.2209 44.9559 44.8359 45.1996 41.6625 45.1996C40.0247 45.1996 38.1778 45.1349 36.3187 44.9399C36.1078 44.9174 35.9175 44.8012 35.8022 44.624C35.6869 44.4459 35.6578 44.2246 35.7234 44.0231C35.7262 44.0146 35.8819 43.529 36.03 42.8615C36.1622 42.2568 36.2878 41.5031 36.2869 40.8168C36.2869 40.6753 36.3291 40.5375 36.4078 40.4212L41.79 32.4853C41.9184 32.2959 42.1312 32.1806 42.36 32.1768C43.1925 32.1618 43.9594 32.1693 44.6297 32.1853C46.2469 32.2265 47.3034 32.3278 47.3653 32.3334C47.7478 32.3709 48.03 32.7093 47.9972 33.0937C47.985 33.2437 47.685 36.5287 46.05 38.6371C47.685 40.7456 47.985 44.0306 47.9972 44.1806C48.03 44.5621 47.7516 44.9006 47.37 44.9399Z" fill="#78C2EF"/>
<path d="M12.1979 44.624C12.0816 44.8012 11.8922 44.9174 11.6813 44.9399C9.82224 45.1349 7.97537 45.1996 6.33756 45.1996C3.16318 45.1996 0.77912 44.9559 0.630057 44.9399C0.248495 44.9006 -0.0299427 44.5621 0.00286982 44.1806C0.0150573 44.0306 0.315057 40.7456 1.95006 38.6371C0.315057 36.5287 0.0150573 33.2437 0.00286982 33.0937C-0.0299427 32.7093 0.252245 32.3709 0.634745 32.3334C0.69662 32.3278 1.75224 32.2265 3.36756 32.1853C4.03881 32.1693 4.80662 32.1618 5.64006 32.1768C5.86881 32.1806 6.08162 32.2959 6.21006 32.4853L11.5922 40.4212C11.671 40.5375 11.7132 40.6753 11.7132 40.8168C11.7122 41.5031 11.8379 42.2568 11.9701 42.8615C12.1182 43.529 12.2738 44.0146 12.2766 44.0231C12.3422 44.2256 12.3132 44.4459 12.1979 44.624Z" fill="#78C2EF"/>
<path d="M11.7132 40.8168C11.7122 41.5031 11.8379 42.2568 11.9701 42.8615C9.67412 43.0256 8.31193 43.1756 8.28193 43.1793C8.20505 43.1878 8.12537 43.1925 8.04662 43.1925C7.20099 43.1925 6.43974 42.69 6.10693 41.9118C4.46255 38.0653 3.6938 34.2581 3.36755 32.1853C4.0388 32.1693 4.80662 32.1618 5.64005 32.1768C5.8688 32.1806 6.08162 32.2959 6.21005 32.4853L11.5922 40.4212C11.671 40.5375 11.7132 40.6753 11.7132 40.8168Z" fill="#74A1E2"/>
<path d="M44.6297 32.1853C44.3035 34.2581 43.5347 38.0653 41.8903 41.9118C41.5538 42.6993 40.7953 43.1925 39.9563 43.1925C39.8766 43.1925 39.796 43.1878 39.7153 43.1793C39.6863 43.1756 38.3241 43.0256 36.03 42.8615C36.1622 42.2568 36.2878 41.5031 36.2869 40.8168C36.2869 40.6753 36.3291 40.5375 36.4078 40.4212L41.79 32.4853C41.9185 32.2959 42.1313 32.1806 42.36 32.1768C43.1925 32.1618 43.9594 32.1693 44.6297 32.1853Z" fill="#74A1E2"/>
<path d="M43.2826 29.9466C43.1635 29.8028 42.992 29.7123 42.8061 29.6951C42.7236 29.6875 34.4364 28.9314 23.9988 28.9314C13.5612 28.9314 5.27402 29.6875 5.19152 29.6951C5.00561 29.7123 4.83414 29.8028 4.71499 29.9466C4.59583 30.0903 4.53874 30.2757 4.55636 30.4616C4.57746 30.6842 5.09908 35.9764 7.40046 41.3592C7.51202 41.6201 7.76796 41.7859 8.04677 41.7859C8.07283 41.7859 8.09927 41.7844 8.12561 41.7815C8.19292 41.7739 14.9603 41.0253 23.9989 41.0253C33.0376 41.0253 39.805 41.774 39.8723 41.7815C40.1811 41.8162 40.4754 41.6446 40.5973 41.3592C42.8986 35.9764 43.4202 30.6842 43.4413 30.4616C43.4589 30.2756 43.4018 30.0903 43.2826 29.9466Z" fill="#78C2EF"/>
<path d="M34.8641 32.8416C31.1941 32.6731 27.5384 32.5876 23.9988 32.5876C20.4606 32.5876 16.8067 32.6731 13.1387 32.8414C12.7507 32.8592 12.4507 33.1881 12.4685 33.5761C12.4862 33.9641 12.8182 34.2636 13.2032 34.2462C16.8498 34.0787 20.4821 33.9939 23.9988 33.9939C27.517 33.9939 31.1509 34.0788 34.7997 34.2465C34.8107 34.2469 34.8215 34.2472 34.8325 34.2472C35.2059 34.2472 35.5171 33.9533 35.5343 33.5763C35.5521 33.1884 35.252 32.8594 34.8641 32.8416Z" fill="#74A1E2"/>
<path d="M31.6253 35.9957C29.0483 35.9116 26.4824 35.8689 23.9987 35.8689C21.5163 35.8689 18.9521 35.9116 16.3773 35.9956C15.9891 36.0082 15.6847 36.3331 15.6974 36.7213C15.7102 37.1094 16.036 37.4128 16.423 37.4011C18.9828 37.3175 21.5315 37.2751 23.9987 37.2751C26.4671 37.2751 29.0176 37.3176 31.5793 37.4012C31.5872 37.4014 31.5949 37.4016 31.6027 37.4016C31.9804 37.4016 32.2925 37.1017 32.305 36.7215C32.3178 36.3333 32.0134 36.0084 31.6253 35.9957Z" fill="#74A1E2"/>
<path d="M12.1178 26.2197C12.5061 26.2197 12.8209 25.9049 12.8209 25.5166C12.8209 25.1283 12.5061 24.8135 12.1178 24.8135C11.7295 24.8135 11.4147 25.1283 11.4147 25.5166C11.4147 25.9049 11.7295 26.2197 12.1178 26.2197Z" fill="#FFCB78"/>
<path d="M11.3668 22.7507C11.7551 22.7507 12.0699 22.4359 12.0699 22.0476C12.0699 21.6593 11.7551 21.3445 11.3668 21.3445C10.9785 21.3445 10.6637 21.6593 10.6637 22.0476C10.6637 22.4359 10.9785 22.7507 11.3668 22.7507Z" fill="#FFCB78"/>
<path d="M11.1635 19.1677C11.5518 19.1677 11.8666 18.8529 11.8666 18.4646C11.8666 18.0763 11.5518 17.7615 11.1635 17.7615C10.7751 17.7615 10.4603 18.0763 10.4603 18.4646C10.4603 18.8529 10.7751 19.1677 11.1635 19.1677Z" fill="#FFCB78"/>
<path d="M36.0155 26.2197C36.4038 26.2197 36.7186 25.9049 36.7186 25.5166C36.7186 25.1283 36.4038 24.8135 36.0155 24.8135C35.6272 24.8135 35.3124 25.1283 35.3124 25.5166C35.3124 25.9049 35.6272 26.2197 36.0155 26.2197Z" fill="#FFCB78"/>
<path d="M36.7665 22.7507C37.1548 22.7507 37.4696 22.4359 37.4696 22.0476C37.4696 21.6593 37.1548 21.3445 36.7665 21.3445C36.3782 21.3445 36.0634 21.6593 36.0634 22.0476C36.0634 22.4359 36.3782 22.7507 36.7665 22.7507Z" fill="#FFCB78"/>
<path d="M36.97 19.1677C37.3583 19.1677 37.6731 18.8529 37.6731 18.4646C37.6731 18.0763 37.3583 17.7615 36.97 17.7615C36.5816 17.7615 36.2668 18.0763 36.2668 18.4646C36.2668 18.8529 36.5816 19.1677 36.97 19.1677Z" fill="#FFCB78"/>
<path d="M30.7601 17.8223C30.6748 17.5555 30.4394 17.365 30.1613 17.3373C30.0964 17.3308 28.642 17.1877 26.442 17.1102C25.4809 14.6074 24.644 12.7955 24.6351 12.7764C24.5201 12.5282 24.2717 12.3694 23.9986 12.3694C23.7255 12.3694 23.4772 12.5282 23.3621 12.7764C23.3533 12.7955 22.5192 14.601 21.5604 17.0968C20.2528 17.1389 19.0016 17.2197 17.8351 17.3374C17.5572 17.3654 17.3223 17.5561 17.2372 17.8226C17.152 18.0893 17.2328 18.3811 17.4428 18.5656C18.2363 19.2628 19.177 20.0168 20.2437 20.8106C19.7408 22.3701 19.3446 23.8158 19.0644 25.1143C19.0056 25.3869 19.113 25.6684 19.3383 25.8321C19.4607 25.921 19.6053 25.966 19.7504 25.966C19.8723 25.966 19.9946 25.9343 20.1043 25.87C20.1223 25.8595 21.8277 24.8593 23.9986 23.429C26.1696 24.8593 27.875 25.8595 27.893 25.87C28.1333 26.0107 28.4338 25.9958 28.659 25.8321C28.8843 25.6684 28.9918 25.3868 28.9329 25.1143C28.6528 23.8159 28.2566 22.3702 27.7537 20.8106C28.82 20.0169 29.7606 19.2631 30.5545 18.5656C30.7648 18.381 30.8455 18.0889 30.7601 17.8223Z" fill="#FFE0A9"/>
</g>
<defs>
<clipPath id="clip0">
<rect width="48" height="48" fill="white"/>
</clipPath>
</defs>
</svg>
