<svg width="128" height="99" viewBox="0 0 128 99" fill="none" xmlns="http://www.w3.org/2000/svg">
<path fill-rule="evenodd" clip-rule="evenodd" d="M54.4617 75.9209C49.7927 69.6807 42.0878 60.5999 34.0969 53.6377C30.1146 50.1681 25.9031 47.0841 21.8392 45.1829C17.8789 43.3301 13.3032 42.2563 9.14783 44.1056C4.55625 46.1491 3.16458 50.664 3.0743 54.8587C2.98334 59.0851 4.12463 64.0654 5.75792 69.0084C9.04993 78.9712 14.7568 89.9889 18.9898 97.0898L25.2375 93.4238C22.6298 89.0494 19.4775 83.1858 16.7394 77.1027L35.6961 65.1152C40.8029 70.3446 45.4442 75.9501 48.6282 80.2055L54.4617 75.9209ZM30.3786 59.992C30.0162 59.6659 29.6532 59.3444 29.2899 59.0278C25.532 55.7538 21.9015 53.1582 18.7109 51.6655C15.4166 50.1243 13.3254 50.0899 12.0906 50.6394C11.292 50.9948 10.385 51.9195 10.3193 54.9713C10.2543 57.9913 11.0998 62.0643 12.6473 66.7474C13.0424 67.9432 13.4766 69.1595 13.9421 70.3858L30.3786 59.992Z" fill="white"/>
<path fill-rule="evenodd" clip-rule="evenodd" d="M80.8487 51.6577C77.3182 46.9391 71.4921 40.0726 65.4497 34.8081C62.4384 32.1845 59.2539 29.8525 56.1809 28.4149C53.1863 27.0139 49.7263 26.2019 46.5842 27.6003C43.1122 29.1455 42.0599 32.5595 41.9917 35.7313C41.9229 38.9272 42.7859 42.6931 44.0209 46.4307C46.5102 53.9642 50.8255 62.2953 54.0263 67.6648L58.7505 64.8927C56.7787 61.5849 54.395 57.1511 52.3247 52.5513L66.6589 43.4869C70.5205 47.4411 74.03 51.6798 76.4376 54.8976L80.8487 51.6577ZM62.6381 39.6129C62.364 39.3664 62.0895 39.1232 61.8148 38.8839C58.9733 36.4081 56.228 34.4454 53.8154 33.3168C51.3244 32.1514 49.7431 32.1253 48.8094 32.5409C48.2055 32.8096 47.5197 33.5088 47.47 35.8164C47.4209 38.1001 48.0602 41.1799 49.2303 44.7211C49.5291 45.6253 49.8575 46.545 50.2095 47.4723L62.6381 39.6129Z" fill="white"/>
<path fill-rule="evenodd" clip-rule="evenodd" d="M99.6007 33.7953C97.2059 30.5947 93.254 25.9371 89.1555 22.3661C87.1129 20.5865 84.9528 19.0048 82.8684 18.0296C80.8372 17.0793 78.4903 16.5286 76.359 17.4771C74.0039 18.5252 73.2901 20.8409 73.2438 22.9924C73.1972 25.1601 73.7825 27.7146 74.6203 30.2498C76.3087 35.3598 79.2358 41.0109 81.407 44.653L84.6114 42.7726C83.2739 40.529 81.6571 37.5215 80.2527 34.4015L89.9757 28.253C92.595 30.9352 94.9756 33.8103 96.6086 35.9929L99.6007 33.7953ZM87.2483 25.6253C87.0625 25.4581 86.8763 25.2931 86.6899 25.1308C84.7625 23.4515 82.9004 22.1202 81.2639 21.3546C79.5743 20.5641 78.5016 20.5464 77.8683 20.8283C77.4587 21.0106 76.9935 21.4848 76.9598 23.0501C76.9265 24.5991 77.3601 26.6882 78.1538 29.0902C78.3565 29.7035 78.5792 30.3273 78.818 30.9563L87.2483 25.6253Z" fill="white"/>
<path fill-rule="evenodd" clip-rule="evenodd" d="M115.495 20.7608C113.795 18.489 110.99 15.1829 108.081 12.6482C106.631 11.385 105.097 10.2623 103.618 9.5701C102.176 8.89557 100.51 8.50463 98.9974 9.1779C97.3258 9.92186 96.8191 11.5656 96.7862 13.0928C96.7531 14.6314 97.1686 16.4446 97.7633 18.2442C98.9618 21.8713 101.039 25.8825 102.581 28.4678L104.855 27.1331C103.906 25.5405 102.758 23.4057 101.761 21.1911L108.663 16.8268C110.522 18.7307 112.212 20.7715 113.371 22.3207L115.495 20.7608ZM106.727 14.9616C106.595 14.8429 106.463 14.7258 106.33 14.6106C104.962 13.4186 103.641 12.4736 102.479 11.9302C101.28 11.3691 100.518 11.3566 100.069 11.5566C99.7781 11.686 99.4478 12.0227 99.4239 13.1337C99.4003 14.2332 99.7081 15.7161 100.271 17.421C100.415 17.8564 100.573 18.2992 100.743 18.7457L106.727 14.9616Z" fill="white"/>
<path fill-rule="evenodd" clip-rule="evenodd" d="M127.073 9.98033C125.924 8.44424 124.027 6.20889 122.06 4.49506C121.08 3.64096 120.043 2.88181 119.043 2.4138C118.068 1.95772 116.942 1.69339 115.919 2.14862C114.789 2.65164 114.446 3.76305 114.424 4.79562C114.401 5.836 114.682 7.06197 115.084 8.27874C115.895 10.7312 117.3 13.4433 118.342 15.1913L119.88 14.2889C119.238 13.2121 118.462 11.7687 117.788 10.2713L122.454 7.32038C123.711 8.60766 124.854 9.98753 125.637 11.035L127.073 9.98033ZM121.145 6.05924C121.056 5.97898 120.966 5.89982 120.877 5.8219C119.952 5.01595 119.058 4.37701 118.273 4.00957C117.462 3.63019 116.947 3.62171 116.643 3.75698C116.447 3.84447 116.223 4.07209 116.207 4.82333C116.191 5.56675 116.399 6.56935 116.78 7.72216C116.878 8.01653 116.984 8.31593 117.099 8.61781L121.145 6.05924Z" fill="white"/>
</svg>
