<svg width="110" height="110" viewBox="0 0 110 110" fill="none" xmlns="http://www.w3.org/2000/svg">
<path d="M44.0087 25.0735C51.0925 32.1879 68.1558 53.6769 59.4209 88.9549C59.4209 88.9549 64.8123 86.5443 69.9465 81.5117C71.1321 80.3506 73.1499 81.0888 73.3103 82.7402C73.6664 86.4129 73.9328 92.2589 73.2327 99.531C71.1189 121.503 51.6198 138.272 29.6945 135.724C8.43441 133.253 -6.86372 113.828 -4.34568 92.4903C-2.16374 74.001 7.92533 65.4064 13.2488 49.9079C13.6871 48.631 15.266 48.1811 16.3377 49.0029C18.7694 50.8661 22.5608 54.2661 24.7778 58.7232C24.7778 58.7232 37.4231 46.0861 40.6439 26.1946C40.9041 24.5871 42.8602 23.9188 44.0087 25.0735Z" fill="#FFAA5F"/>
<path d="M55.2365 99.334C51.603 103.603 47.5663 104.194 47.5663 104.194C51.3931 85.374 45.7694 70.5686 43.3478 65.3673C43.0052 64.6306 41.9317 64.6877 41.6676 65.4566C37.4318 77.8318 29.2502 84.0162 29.2502 84.0162C27.1877 80.945 25.0493 79.5345 23.9187 78.9534C23.4741 78.7257 22.9471 78.9226 22.7193 79.3672C18.7448 87.1072 12.3016 92.6843 9.90503 101.838C6.37825 115.308 14.797 129.462 28.4784 132.048C42.278 134.656 55.1633 125.022 56.7808 111.315C57.4315 105.801 57.1458 101.927 56.8316 99.7718C56.7186 98.9937 55.7452 98.7359 55.2365 99.334Z" fill="#FBD05D"/>
<path d="M35.1749 94.8265C34.9735 94.0722 34.081 93.7659 33.4911 94.2773C29.9672 97.3349 20.4002 106.372 19.3583 115.201C18.5336 122.19 23.5311 128.525 30.5208 129.35C37.5096 130.174 43.8444 125.177 44.6692 118.188C45.4534 111.543 37.9258 105.131 35.1749 94.8265Z" fill="white"/>
<path d="M29.3667 135.667C25.2785 134.871 -9.41371 124.07 8.08427 80.8851C14.6137 64.7718 17.204 49.69 17.204 49.69C16.9025 49.4449 16.6091 49.2112 16.3374 49.0029C15.2658 48.1812 13.6869 48.6311 13.2486 49.908C7.9252 65.4055 -2.16398 74.0011 -4.34591 92.4904C-6.85076 113.716 8.21833 132.952 29.3667 135.667Z" fill="#FBAF5D"/>
</svg>
