<svg width="207" height="185" viewBox="0 0 207 185" fill="none" xmlns="http://www.w3.org/2000/svg">
<path d="M123.578 19.4305C140.465 26.4748 184.174 50.7716 194.048 116.267C194.048 116.267 201.448 108.45 206.587 96.3976C207.774 93.616 211.686 93.4529 213.107 96.1221C216.266 102.059 220.789 111.718 224.678 124.452C236.429 162.926 215.279 204.754 176.581 215.741C139.057 226.396 99.7581 204.344 89.1292 166.657C79.9191 134.001 90.9197 112.496 89.0842 82.6873C88.9325 80.2315 91.2778 78.3736 93.6552 79.0106C99.0486 80.4538 107.803 83.5373 114.642 89.4981C114.642 89.4981 127.13 59.4051 118.693 23.6633C118.01 20.775 120.839 18.2865 123.578 19.4305Z" fill="#FFAA5F"/>
<path d="M194.235 136.661C191.091 146.382 184.705 150.191 184.705 150.191C178.034 115.831 158.247 94.8176 150.544 87.7461C149.454 86.7443 147.686 87.5886 147.777 89.0674C149.268 112.859 139.8 128.975 139.8 128.975C134.186 125.24 129.602 124.355 127.293 124.165C126.386 124.091 125.636 124.79 125.562 125.697C124.263 141.501 117.299 155.383 119.642 172.468C123.089 197.608 147.13 215.577 171.971 210.398C197.028 205.175 212.013 179.971 205.185 155.761C202.438 146.022 199.257 139.698 197.226 136.287C196.494 135.055 194.675 135.3 194.235 136.661Z" fill="#FBD05D"/>
<path d="M157.31 143.05C156.445 141.92 154.729 142.027 154.092 143.299C150.288 150.904 140.475 172.789 144.873 188.383C148.354 200.727 161.185 207.913 173.53 204.431C185.874 200.949 193.06 188.119 189.578 175.775C186.268 164.039 169.123 158.486 157.31 143.05Z" fill="white"/>
<path d="M175.989 215.874C168.55 217.383 102.602 223.369 101.974 138.452C101.741 106.767 95.593 79.5637 95.593 79.5637C94.9144 79.361 94.2575 79.172 93.6549 79.0106C91.2776 78.3735 88.9322 80.2315 89.0839 82.6872C90.919 112.495 79.9188 134.001 89.129 166.657C99.7022 204.147 138.483 226.038 175.989 215.874Z" fill="#FBAF5D"/>
<path d="M47.4674 139.82C42.2894 144.705 29.7206 159.559 35.1316 184.757C35.1316 184.757 31.3637 182.929 27.8361 179.248C27.0214 178.399 25.575 178.878 25.4248 180.044C25.0912 182.64 24.7731 186.777 25.1086 191.947C26.121 207.567 39.5704 219.885 55.1665 218.564C70.2894 217.283 81.5615 203.853 80.2486 188.674C79.1109 175.521 72.1502 169.206 68.7197 158.103C68.4373 157.188 67.3282 156.834 66.5505 157.393C64.7858 158.66 62.0234 160.986 60.3536 164.096C60.3536 164.096 51.6705 154.859 49.8275 140.689C49.6786 139.544 48.307 139.027 47.4674 139.82Z" fill="#FFAA5F"/>
<path d="M37.8675 192.206C40.3484 195.312 43.1964 195.82 43.1964 195.82C40.9002 182.396 45.2133 172.027 47.0447 168.394C47.3038 167.879 48.0634 167.943 48.2335 168.494C50.9621 177.359 56.6242 181.924 56.6242 181.924C58.1539 179.793 59.7007 178.84 60.5148 178.453C60.835 178.302 61.2042 178.453 61.3558 178.773C64.0016 184.347 68.445 188.443 69.9412 194.984C72.1431 204.609 65.8633 214.455 56.1093 215.985C46.2711 217.528 37.3515 210.415 36.5081 200.663C36.1688 196.741 36.4569 194.001 36.7273 192.481C36.8246 191.932 37.5202 191.77 37.8675 192.206Z" fill="#FBD05D"/>
<path d="M55.3999 218.531C58.3151 218.057 83.1423 211.17 71.6951 180.173C67.4236 168.608 65.9211 157.861 65.9211 157.861C66.1402 157.694 66.3533 157.535 66.5505 157.393C67.3282 156.834 68.4373 157.188 68.7197 158.103C72.1501 169.205 79.1109 175.521 80.2486 188.674C81.5547 203.774 70.449 217.074 55.3999 218.531Z" fill="#FBAF5D"/>
</svg>
