<svg width="291" height="349" viewBox="0 0 291 349" fill="none" xmlns="http://www.w3.org/2000/svg">
<g clip-path="url(#clip0)">
<path d="M228.831 199.343L162.534 142.31C160.654 140.693 159.317 138.536 158.705 136.133L141.864 70.0565L128.326 64.7885L97.9551 72.5292L92.6494 82.5996L109.49 148.677C110.103 151.08 109.961 153.613 109.084 155.933L78.1744 237.741C70.2453 258.725 89.2209 279.949 110.959 274.409L217.597 247.23C239.335 241.69 245.837 213.973 228.831 199.343Z" fill="#FDFEFF"/>
<path d="M228.832 199.343L162.534 142.31C160.654 140.693 159.317 138.536 158.705 136.133L143.825 77.7506L141.864 70.0564L129.229 64.5584L97.9556 72.529L92.6499 82.5995L94.6109 90.2936L123.173 83.0141C128.753 81.5918 134.43 84.9624 135.852 90.5428L148.157 138.822C148.769 141.225 150.106 143.381 151.986 144.999L218.283 202.031C235.289 216.661 228.787 244.378 207.049 249.918L217.597 247.23C239.335 241.689 245.838 213.973 228.832 199.343Z" fill="#B8D3FE"/>
<path d="M150.948 67.7412L83.5663 84.9146C82.2282 85.2557 80.867 84.4474 80.5259 83.1089L76.9346 69.0183C76.5936 67.6801 77.4017 66.3185 78.7399 65.9775L146.122 48.8041C147.46 48.463 148.821 49.2711 149.162 50.6097L152.754 64.7007C153.095 66.0389 152.286 67.4001 150.948 67.7412Z" fill="#85BAFE"/>
<path d="M146.122 48.804L136.2 51.3327C137.538 50.9916 138.9 51.7997 139.241 53.1383L142.832 67.2293C143.173 68.5675 142.365 69.929 141.027 70.2702L150.948 67.7415C152.286 67.4005 153.095 66.0393 152.754 64.7007L149.162 50.6097C148.821 49.2711 147.46 48.4629 146.122 48.804V48.804Z" fill="#3C85EB"/>
<path d="M182.989 179.611C180.043 177.076 176.366 175.535 172.491 175.229C168.13 174.884 165.911 172.365 159.636 173.964C151.423 176.057 152.688 181.02 144.475 183.114C136.261 185.207 134.997 180.244 126.783 182.338C120.507 183.937 119.765 187.211 116.1 189.601C112.844 191.725 110.354 194.838 108.98 198.474L92.1479 243.021C89.672 249.573 93.0223 254.326 94.5777 256.066C96.1329 257.805 100.483 261.664 107.27 259.934L213.909 232.755C220.696 231.026 222.669 225.555 223.202 223.284C223.735 221.012 224.401 215.235 219.091 210.667L182.989 179.611Z" fill="#66D497"/>
<path d="M219.09 210.667L182.989 179.61C180.042 177.075 176.366 175.534 172.491 175.228C168.13 174.884 165.911 172.364 159.636 173.963C156.374 174.795 154.609 176.079 153.15 177.455C154.943 177.927 156.544 178.593 158.638 178.759C162.513 179.065 166.189 180.606 169.136 183.141L205.238 214.198C210.548 218.766 209.882 224.543 209.349 226.814C208.815 229.086 206.843 234.556 200.056 236.286L213.908 232.755C220.696 231.025 222.668 225.555 223.201 223.284C223.734 221.012 224.4 215.235 219.09 210.667Z" fill="#01B850"/>
<path d="M123.515 210.36C121.819 210.792 120.095 209.768 119.663 208.073L119.102 205.87C118.67 204.174 119.694 202.45 121.389 202.018C123.085 201.586 124.809 202.61 125.241 204.305L125.803 206.508C126.235 208.203 125.211 209.928 123.515 210.36Z" fill="#01B850"/>
<path d="M184.732 224.855C183.037 225.287 181.312 224.263 180.88 222.567L180.319 220.365C179.887 218.669 180.911 216.945 182.606 216.513C184.302 216.08 186.026 217.105 186.458 218.8L187.02 221.003C187.452 222.698 186.428 224.423 184.732 224.855Z" fill="#01B850"/>
<path d="M178.091 198.796C176.395 199.228 174.671 198.204 174.239 196.509L173.677 194.306C173.245 192.611 174.269 190.886 175.965 190.454C177.66 190.022 179.385 191.046 179.817 192.742L180.378 194.944C180.81 196.64 179.786 198.364 178.091 198.796Z" fill="#01B850"/>
<path d="M148.641 199.465C146.945 199.897 145.221 198.873 144.789 197.178L144.227 194.975C143.795 193.279 144.819 191.555 146.515 191.123C148.211 190.691 149.935 191.715 150.367 193.41L150.928 195.613C151.36 197.309 150.336 199.033 148.641 199.465Z" fill="#01B850"/>
<path d="M147.588 224.334C145.893 224.766 144.168 223.742 143.736 222.047L143.175 219.844C142.743 218.148 143.767 216.424 145.462 215.992C147.158 215.56 148.882 216.584 149.314 218.279L149.876 220.482C150.308 222.178 149.284 223.902 147.588 224.334Z" fill="#01B850"/>
<path d="M119.491 236.12C117.796 236.552 116.071 235.528 115.639 233.833L115.078 231.631C114.646 229.935 115.67 228.211 117.365 227.778C119.061 227.346 120.785 228.37 121.217 230.066L121.779 232.268C122.211 233.963 121.187 235.688 119.491 236.12Z" fill="#01B850"/>
<path d="M146.122 48.8041L136.2 51.3328C137.538 50.9918 138.9 51.7999 139.241 53.1385L142.832 67.2295C143.173 68.5677 142.365 69.9292 141.027 70.2703L150.948 67.7417C152.286 67.4006 153.095 66.0395 152.753 64.7009L149.162 50.6099C148.821 49.2712 147.46 48.4631 146.122 48.8041V48.8041Z" fill="#3C85EB"/>
</g>
<path d="M49.5583 64.0618L52.347 67.8364L56.7985 66.3506L54.0704 70.1692L56.859 73.9437L52.3844 72.5292L49.6563 76.3477L49.6189 71.6549L45.1442 70.2403L49.5957 68.7546L49.5583 64.0618Z" fill="#FBD05D"/>
<path d="M242.252 131.204L240.072 137.849L245.719 141.976L238.725 141.956L236.545 148.601L234.403 141.944L227.41 141.924L233.079 137.829L230.937 131.172L236.583 135.299L242.252 131.204Z" fill="#FBD05D"/>
<path d="M71.1478 266.433L70.1418 269.499L72.7474 271.404L69.52 271.394L68.514 274.461L67.5254 271.389L64.2981 271.38L66.9144 269.49L65.9259 266.418L68.5314 268.322L71.1478 266.433Z" fill="#FBD05D"/>
<path d="M54.3613 114.974L53.3553 118.04L55.9609 119.945L52.7335 119.936L51.7275 123.002L50.7389 119.93L47.5116 119.921L50.1279 118.031L49.1394 114.959L51.7449 116.863L54.3613 114.974Z" fill="#FBD05D"/>
<path d="M46.8256 43.0657C42.549 50.8813 39.0232 59.0946 37.0205 67.5943C36.0161 71.8323 35.3919 76.1396 35.3697 80.379C35.3499 84.6077 35.9002 88.8019 37.3712 92.4795C38.1049 94.3112 39.0581 95.9964 40.2397 97.432C41.4177 98.8736 42.8221 100.117 44.3789 101.069C47.4868 102.99 51.2714 103.813 55.2218 103.903C59.1852 103.986 63.3007 103.44 67.3898 102.534C71.4895 101.63 75.583 100.385 79.6413 98.9634C84.9673 97.1119 89.9275 95.0585 95.1941 92.7825L98.0631 104.039C92.9137 105.834 88.0037 107.439 82.6518 108.879C78.203 110.053 73.6671 111.063 69.0006 111.719C64.3399 112.358 59.5264 112.693 54.5976 112.142C52.1397 111.863 49.6525 111.369 47.2216 110.524C44.7932 109.688 42.4246 108.494 40.3206 106.916C38.2118 105.339 36.3902 103.427 34.9545 101.271C33.5081 99.1124 32.4845 96.7556 31.7874 94.3759C30.4131 89.5963 30.2657 84.7507 30.776 80.115C31.2933 75.4675 32.4279 70.9899 33.9421 66.6974C37.0295 58.1076 41.5284 50.2353 46.8256 43.0657Z" fill="#66D497"/>
<path d="M146.374 87.6884L142.752 73.479C146.9 72.3909 151.335 71.3812 155.569 70.5907C164.728 68.8956 174.129 67.8086 183.927 68.2461C188.825 68.4779 193.837 69.0984 198.917 70.4616C201.455 71.1539 204.007 72.039 206.53 73.188C209.05 74.343 211.538 75.788 213.885 77.546C216.224 79.3159 218.389 81.432 220.262 83.7992C222.087 86.1429 223.592 88.649 224.8 91.2358C227.208 96.4164 228.521 101.901 228.827 107.507C229.111 113.108 228.427 118.901 226.125 124.622C225.536 126.046 224.845 127.465 224.038 128.844C223.231 130.218 222.352 131.454 221.453 132.629C219.638 134.929 217.712 136.915 215.748 138.69C211.816 142.229 207.751 145.087 203.643 147.655C199.533 150.218 195.377 152.485 191.202 154.591C182.85 158.804 174.382 162.367 165.9 165.691C157.414 169.002 148.879 172.003 140.406 174.912C138.867 175.438 137.325 175.961 135.789 176.481L135.787 176.481L135.786 176.482C133.103 177.39 130.441 178.291 127.848 179.195C123.803 180.609 119.8 182.112 115.865 183.72C107.989 186.915 100.34 190.531 93.199 194.692C89.6359 196.773 86.1905 198.98 82.9791 201.354C79.7664 203.723 76.7675 206.26 74.1621 208.937C71.5602 211.609 69.3222 214.425 67.7896 217.242C66.2273 220.061 65.4173 222.79 65.3292 225.289C65.2411 227.789 65.8048 230.217 67.1998 232.787C67.2951 232.982 67.4099 233.173 67.525 233.366C67.6003 233.491 67.6758 233.617 67.7461 233.745C67.9273 234.041 68.0989 234.299 68.2835 234.569C68.6611 235.102 69.0716 235.607 69.5223 236.091C70.4237 237.06 71.4821 237.953 72.7176 238.75C74.0669 239.64 75.4242 240.465 77.1272 241.112C75.233 249.052 76.9087 256.837 81.0531 262.936C79.7347 262.745 78.7217 262.433 77.3938 262.156C72.1536 261.035 66.7788 259.188 61.7079 256.005C59.1837 254.418 56.7621 252.483 54.6041 250.219C53.5256 249.089 52.5131 247.882 51.5844 246.608C51.1259 245.975 50.6744 245.31 50.2679 244.663C50.1746 244.509 50.0807 244.355 49.9868 244.201L49.9858 244.199C49.6939 243.721 49.4028 243.245 49.1339 242.742C48.3943 241.441 47.7478 240.05 47.1485 238.627C46.5704 237.189 46.0607 235.703 45.6632 234.163C44.8659 231.094 44.4725 227.851 44.5764 224.663C44.582 224.027 44.6314 223.402 44.6812 222.774L44.6814 222.772C44.6943 222.608 44.7073 222.445 44.7194 222.281C44.7369 222.135 44.754 221.989 44.771 221.843C44.8452 221.207 44.9197 220.567 45.0342 219.94C45.2793 218.393 45.6476 216.894 46.0752 215.431C46.9436 212.517 48.1134 209.797 49.4712 207.301C52.1843 202.28 55.5662 198.086 59.1456 194.37C62.7427 190.664 66.5752 187.447 70.5119 184.52C74.4486 181.594 78.5075 178.989 82.63 176.574C90.8858 171.787 99.389 167.812 108.008 164.332C112.318 162.594 116.666 161.002 121.033 159.507C124.004 158.494 126.912 157.533 129.802 156.578C131.13 156.14 132.453 155.702 133.777 155.262C142.174 152.493 150.461 149.666 158.608 146.623C166.753 143.595 174.749 140.334 182.377 136.699C186.182 134.878 189.889 132.946 193.379 130.874C196.858 128.799 200.15 126.581 202.894 124.23C204.267 123.06 205.46 121.854 206.443 120.693C206.909 120.111 207.338 119.543 207.676 119.009C208.007 118.472 208.315 117.905 208.605 117.282C209.733 114.775 210.326 111.548 210.246 108.271C210.175 104.991 209.487 101.638 208.25 98.7011C207.634 97.2321 206.87 95.8761 206.009 94.6709C205.16 93.513 204.165 92.4527 203.001 91.4808C201.824 90.5172 200.487 89.6395 198.997 88.8714C197.499 88.1105 195.866 87.4495 194.133 86.8943C190.656 85.797 186.807 85.1167 182.83 84.7612C178.847 84.4068 174.728 84.3845 170.57 84.548C166.409 84.7174 162.204 85.1096 157.999 85.678C154.202 86.1912 150.145 86.9101 146.374 87.6884Z" fill="#66D497"/>
<path d="M232.253 238.023C232.953 238.187 233.641 238.369 234.315 238.568C237.838 239.608 240.942 241.138 243.29 243.198C243.875 243.718 244.419 244.269 244.92 244.851C245.412 245.44 245.859 246.067 246.274 246.726C246.684 247.387 247.035 248.093 247.359 248.831C247.514 249.204 247.67 249.577 247.801 249.972L247.905 250.262L247.976 250.501C247.994 250.563 248.013 250.624 248.033 250.685C248.065 250.784 248.096 250.883 248.119 250.983C248.449 252.278 248.531 253.707 248.345 255.27C248.252 256.049 248.08 256.858 247.872 257.681L247.831 257.819C247.601 258.597 247.366 259.393 247.038 260.194C245.713 263.592 243.584 267.03 241.113 270.297C238.635 273.572 235.788 276.704 232.769 279.714C226.731 285.758 219.957 291.26 212.904 296.401C205.842 301.548 198.428 306.277 190.79 310.605C183.143 314.915 175.189 318.674 166.935 321.83C158.692 325.008 150.169 327.543 141.477 329.551C150.362 328.752 159.209 327.157 167.916 324.887C176.609 322.586 185.173 319.583 193.43 315.887C201.703 312.233 209.7 307.99 217.485 303.313C221.378 300.966 225.181 298.462 228.914 295.824C232.646 293.181 236.298 290.383 239.824 287.365C243.343 284.338 246.729 281.089 249.892 277.479C251.472 275.677 252.984 273.766 254.403 271.728C255.816 269.686 257.147 267.52 258.271 265.134C258.847 263.955 259.346 262.695 259.798 261.407C260.23 260.099 260.606 258.75 260.874 257.332C261.127 255.914 261.307 254.448 261.324 252.933C261.336 251.42 261.231 249.881 260.946 248.348C260.905 248.093 260.846 247.84 260.787 247.587C260.769 247.509 260.75 247.431 260.733 247.352C260.722 247.304 260.711 247.256 260.701 247.207L260.566 246.638L260.421 246.131C260.24 245.457 260.018 244.784 259.786 244.113C259.304 242.776 258.745 241.448 258.065 240.167C257.383 238.891 256.608 237.648 255.749 236.473C254.878 235.305 253.927 234.204 252.91 233.174C250.867 231.127 248.583 229.414 246.208 228.016C243.832 226.618 241.371 225.533 238.902 224.657C238.727 224.596 238.351 224.447 238.176 224.388C237.39 229.322 235.502 234.126 232.253 238.023Z" fill="#66D497"/>
<circle cx="44.963" cy="61.4165" r="2.05523" transform="rotate(-14.2984 44.963 61.4165)" fill="#FBD05D"/>
<circle cx="53.9878" cy="103.959" r="2.05523" transform="rotate(-14.2984 53.9878 103.959)" fill="#FBD05D"/>
<circle cx="75.5935" cy="281.459" r="2.05523" transform="rotate(-14.2984 75.5935 281.459)" fill="#FBD05D"/>
<circle cx="55.9911" cy="261.61" r="2.05523" transform="rotate(-14.2984 55.9911 261.61)" fill="#FBD05D"/>
<circle cx="60.5092" cy="284.091" r="2.05523" transform="rotate(-14.2984 60.5092 284.091)" fill="#FBD05D"/>
<circle cx="209.819" cy="139.99" r="4.40407" transform="rotate(-14.2984 209.819 139.99)" fill="#FBD05D"/>
<circle cx="235.09" cy="122.642" r="2.64244" transform="rotate(-14.2984 235.09 122.642)" fill="#FBD05D"/>
<circle cx="203.181" cy="121.079" r="2.64244" transform="rotate(-14.2984 203.181 121.079)" fill="#FBD05D"/>
<path d="M73.3936 174.155C62.4483 178.762 40.7795 192.89 41.667 212.54C41.9926 205.892 48.7938 188.908 73.3936 174.155Z" fill="#FBD05D"/>
<path d="M253 223.821C268.314 235.168 290.579 263.085 257.12 283.975C267.958 276.567 282.306 254.165 253 223.821Z" fill="#FBD05D"/>
<path d="M175.864 65.0189C188.671 62.5628 217.063 64.2749 228.179 90.7712C225.005 76.7336 210.099 51.9304 175.864 65.0189Z" fill="#FBD05D"/>
<defs>
<clipPath id="clip0">
<rect width="209.932" height="209.932" fill="white" transform="translate(10.7164 83.3145) rotate(-14.2984)"/>
</clipPath>
</defs>
</svg>
