<svg width="127" height="129" viewBox="0 0 127 129" fill="none" xmlns="http://www.w3.org/2000/svg">
<path d="M95.3723 83.1876C95.9184 83.5438 96.2551 84.1256 96.3566 84.7624C96.5236 85.7506 96.2419 86.8455 95.9084 87.7715C95.4004 89.1307 94.6925 90.4427 93.8699 91.6371C92.827 93.0188 91.5923 94.4046 90.1239 95.343C89.277 95.8646 88.2067 96.2667 87.2484 95.7817C86.3574 95.3264 86.0117 94.3187 85.8197 93.401C89.2249 90.565 91.9455 86.934 93.6265 82.8283C94.2437 82.7899 94.8395 82.8427 95.3723 83.1876Z" fill="#392376"/>
<path d="M28.2226 80.3679C27.3681 80.5173 26.5125 80.2573 25.8357 79.7302C24.7761 78.921 24.056 77.6005 23.5396 76.3974C22.7996 74.6144 22.2968 72.6961 22.0123 70.7879C21.772 68.4974 21.7145 66.029 22.2903 63.7834C22.6402 62.5073 23.316 61.1447 24.6881 60.7462C25.9678 60.38 27.2188 61.0461 28.2387 61.7641C27.5023 67.6132 28.1534 73.6139 30.2462 79.1323C29.681 79.73 29.0537 80.2196 28.2226 80.3679Z" fill="#392376"/>
<ellipse cx="60.954" cy="71.3507" rx="35.1214" ry="30.104" transform="rotate(22.0793 60.954 71.3507)" fill="#B149F9"/>
<path d="M94.9432 58.0059C92.3762 57.9272 90.4866 60.4895 89.8626 61.7805L90.9949 69.5192C91.3688 73.5411 91.5147 81.4372 95.3184 80.9587C100.073 80.3607 100.072 72.0581 100.222 68.8703C100.372 65.6826 98.152 58.1042 94.9432 58.0059Z" fill="#B149F9"/>
<path d="M98.7652 68.5201C98.9771 71.1133 98.3042 73.3856 97.8377 73.4237C96.7397 73.5134 97.8698 71.0251 97.6579 68.4319C97.4461 65.8388 96.2258 64.1021 97.0705 64.0331C97.537 63.995 98.5533 65.927 98.7652 68.5201Z" fill="white"/>
<path d="M67.7107 107.42C67.2221 103.997 71.2356 99.9663 73.3034 98.3786L76.9298 97.744C78.2672 97.87 79.4896 96.0294 81.3637 96.4533C85.1736 97.3153 89.2377 98.8393 90.081 101.214C91.6538 105.642 85.4313 107.931 81.707 109.548C77.9827 111.166 68.3214 111.699 67.7107 107.42Z" fill="#B149F9"/>
<path d="M87.0147 103.356C87.1476 103.434 87.3183 103.39 87.3961 103.257C87.4739 103.124 87.4293 102.953 87.2964 102.875C86.7699 102.567 85.9597 102.358 84.9506 102.3C83.9356 102.243 82.6985 102.337 81.3031 102.655C78.511 103.292 75.076 104.826 71.5003 107.845C71.3826 107.944 71.3678 108.12 71.4671 108.237C71.5664 108.355 71.7422 108.37 71.8599 108.271C72.2761 107.919 72.6901 107.589 73.1011 107.278C73.6985 107.645 76.453 107.103 79.6129 105.965C82.6544 104.869 85.0548 103.589 85.4318 102.902C86.1375 102.987 86.6723 103.156 87.0147 103.356Z" fill="#392376"/>
<path d="M31.8672 83.6264C33.2568 83.9976 36.7125 83.5464 38.2667 83.2744L46.3057 88.5206C46.0123 89.2439 45.534 91.8172 45.9676 96.3246C46.5096 101.959 43.0119 101.683 41.0459 101.487C39.0799 101.291 34.8648 99.5214 29.052 92.0499C23.2392 84.5784 30.1303 83.1625 31.8672 83.6264Z" fill="#B149F9"/>
<path d="M46.1529 42.4948C45.4748 43.9182 45.3384 47.7911 45.3549 49.5497L37.9368 57.0337C37.1758 56.5389 34.3628 55.3944 29.198 54.7744C22.7421 53.9995 23.7063 50.2569 24.2943 48.1632C24.8824 46.0695 27.6658 41.9077 37.1781 37.3874C46.6904 32.8672 47.0005 40.7155 46.1529 42.4948Z" fill="#B149F9"/>
<ellipse cx="60.9541" cy="71.3508" rx="30.327" ry="25.9787" transform="rotate(22.0793 60.9541 71.3508)" fill="white" fill-opacity="0.4"/>
<path d="M32.1074 42.0632C34.5186 40.4811 37.087 39.9301 37.3716 40.3639C38.0415 41.3848 35.0203 41.6054 32.6091 43.1876C30.198 44.7697 29.1554 46.8788 28.6401 46.0933C28.3554 45.6596 29.6963 43.6454 32.1074 42.0632Z" fill="white"/>
<path d="M66.6867 55.0865C63.5446 54.7745 57.4587 55.0853 58.2522 58.8242C58.8139 61.4709 62.2622 62.7383 65.3563 63.2621C66.0569 64.154 66.7635 65.3548 66.6426 66.3186C66.5069 67.4005 67.4916 66.1913 68.6471 64.7724C68.9858 64.3564 69.3392 63.9224 69.6834 63.5229C72.581 63.2819 76.8083 62.2539 75.8374 59.5203C74.7589 56.4839 69.2876 55.2993 66.6867 55.0865Z" fill="#B149F9"/>
<path d="M39.9933 70.9923C40.2327 73.8216 41.5053 79.1515 44.681 77.8368C46.929 76.9062 47.4841 73.6495 47.4398 70.828C48.1136 70.0623 49.0594 69.2407 49.9313 69.1895C50.9101 69.1321 49.6796 68.4597 48.2355 67.6708C47.8122 67.4395 47.3706 67.1982 46.9609 66.9595C46.2726 64.437 44.6705 60.8681 42.4129 62.1748C39.9051 63.6262 39.7549 68.6579 39.9933 70.9923Z" fill="#B149F9"/>
<path d="M61.1158 90.8112C64.8724 91.5945 72.2666 92.0058 71.7912 87.3851C71.4546 84.1143 67.4515 82.137 63.7804 81.1041C63.0492 79.9357 62.3506 78.3934 62.6213 77.2444C62.9251 75.9546 61.5789 77.2884 59.9992 78.8536C59.5361 79.3125 59.053 79.7912 58.5854 80.2295C55.0528 80.1461 49.8118 80.8419 50.6316 84.2705C51.5423 88.0791 58.0005 90.2179 61.1158 90.8112Z" fill="#B149F9"/>
<path d="M84.9801 82.2459C82.403 85.6626 78.7994 87.2902 76.9313 85.8812C75.5055 84.8058 75.5026 82.2723 76.727 79.6138C77.1068 78.7891 77.6047 77.9523 78.2149 77.1433C78.9487 76.1704 79.7658 75.3425 80.6023 74.6885C82.7035 73.0459 84.9275 72.5002 86.2637 73.508C88.1318 74.9171 87.5571 78.8292 84.9801 82.2459Z" fill="#B149F9"/>
<path d="M69.5799 101.89C69.5239 101.964 69.4684 102.038 69.4136 102.112C68.2066 103.755 67.2911 105.665 67.5451 107.444C67.708 108.585 68.476 109.393 69.5565 109.935C70.6342 110.475 72.0403 110.762 73.5299 110.862C76.5076 111.063 79.8818 110.523 81.7736 109.702C82.0233 109.593 82.285 109.481 82.5554 109.366C84.2901 108.625 86.3838 107.731 87.9788 106.57C88.9023 105.898 89.673 105.127 90.1101 104.23C90.5503 103.327 90.6467 102.307 90.2386 101.158C89.7939 99.9059 88.5148 98.9061 86.9086 98.1164C85.8524 97.5971 84.6385 97.1607 83.3901 96.7999C83.2674 96.8816 83.144 96.9625 83.02 97.0425C84.3521 97.4141 85.6488 97.8697 86.761 98.4165C88.3501 99.1979 89.5247 100.147 89.9234 101.27C90.3017 102.335 90.21 103.261 89.8095 104.083C89.4058 104.912 88.683 105.644 87.782 106.3C86.2205 107.436 84.1671 108.313 82.4291 109.056L82.4288 109.056C82.1573 109.172 81.8934 109.285 81.6403 109.395C79.8079 110.191 76.4892 110.726 73.5525 110.528C72.0849 110.429 70.7284 110.148 69.7064 109.636C68.6873 109.125 68.0186 108.394 67.8762 107.397C67.6416 105.753 68.4885 103.936 69.6831 102.31C69.8045 102.145 69.9291 101.982 70.0563 101.822C69.8978 101.846 69.7391 101.868 69.5799 101.89Z" fill="#392376"/>
<path d="M95.7101 61.4471C95.8209 61.3403 95.8241 61.1638 95.7172 61.053C95.6104 60.9422 95.4339 60.9389 95.3231 61.0458C94.8838 61.4694 94.4633 62.1928 94.1351 63.1488C93.8051 64.1104 93.5617 65.3269 93.4908 66.7565C93.3491 69.6167 93.8975 73.3386 95.8363 77.5972C95.9001 77.7373 96.0654 77.7991 96.2055 77.7353C96.3456 77.6715 96.4075 77.5063 96.3437 77.3661C96.118 76.8704 95.9117 76.3824 95.7234 75.9027C96.239 75.427 96.4613 72.6283 96.22 69.2784C95.9878 66.0541 95.4037 63.3968 94.8445 62.8482C95.1176 62.1919 95.4245 61.7225 95.7101 61.4471Z" fill="#392376"/>
<path d="M41.2685 99.6458C41.2656 99.7997 41.388 99.9268 41.5419 99.9298C41.6958 99.9327 41.823 99.8103 41.8259 99.6563C41.8374 99.0462 41.6239 98.2371 41.1806 97.3288C40.7347 96.4151 40.0474 95.3823 39.0874 94.3207C37.1668 92.1964 34.1489 89.9502 29.7679 88.3066C29.6238 88.2526 29.4631 88.3256 29.409 88.4697C29.3549 88.6139 29.4279 88.7745 29.5721 88.8286C30.082 89.0199 30.5729 89.2194 31.0451 89.4259C31.0164 90.1268 32.5224 92.646 35.0601 94.8461C37.5026 96.9636 40.1077 98.0497 40.891 98.0428C41.1615 98.7001 41.276 99.2491 41.2685 99.6458Z" fill="#392376"/>
<path d="M27.4195 48.648C27.2744 48.5963 27.115 48.6721 27.0634 48.8171C27.0118 48.9621 27.0875 49.1215 27.2325 49.1732C27.8075 49.3778 28.6425 49.4321 29.6445 49.3C30.6525 49.1672 31.8501 48.8432 33.1615 48.2698C35.7855 47.1226 38.8734 44.9738 41.8225 41.3409C41.9195 41.2214 41.9012 41.0458 41.7817 40.9488C41.6622 40.8518 41.4867 40.87 41.3896 40.9895C41.0464 41.4124 40.7014 41.8145 40.3557 42.1968C39.7001 41.9471 36.7292 42.7607 33.8374 44.4689C31.0541 46.1131 29.3015 48.0537 29.0594 48.7988C28.3502 48.8467 27.7932 48.781 27.4195 48.648Z" fill="#392376"/>
<path fill-rule="evenodd" clip-rule="evenodd" d="M71.7731 56.4008C69.9635 55.7055 67.9618 55.3587 66.6732 55.2533L66.6718 55.2532L66.6703 55.2531C65.1091 55.0981 62.8254 55.0993 61.0386 55.5975C60.1445 55.8468 59.3942 56.2153 58.9164 56.7325C58.4469 57.2409 58.2283 57.9055 58.4159 58.7896C58.6823 60.0451 59.6365 60.9906 60.9342 61.6922C62.2308 62.3932 63.8465 62.8369 65.3843 63.0973L65.3285 63.4271C63.7722 63.1636 62.1167 62.7118 60.7752 61.9865C59.4348 61.2618 58.3839 60.2503 58.0887 58.859C57.8796 57.8737 58.1241 57.0973 58.6707 56.5056C59.209 55.9228 60.0279 55.532 60.9488 55.2753C62.7916 54.7615 65.121 54.7632 66.7019 54.9201C68.0143 55.0276 70.0478 55.3795 71.893 56.0886C73.7285 56.7938 75.4296 57.8723 75.9951 59.4644C76.2539 60.193 76.1686 60.8237 75.8345 61.3542C75.5059 61.8762 74.9466 62.2859 74.2841 62.6069C72.9589 63.2491 71.1535 63.5685 69.6973 63.6896L69.6696 63.3563C71.1111 63.2364 72.8681 62.9214 74.1383 62.3059C74.7734 61.9981 75.27 61.6231 75.5515 61.176C75.8275 60.7375 75.9066 60.2146 75.6799 59.5764C75.1669 58.1321 73.5931 57.1001 71.7731 56.4008Z" fill="#392376"/>
<path fill-rule="evenodd" clip-rule="evenodd" d="M40.338 66.2831C40.0203 67.9951 40.0419 69.8201 40.1599 70.9755L40.1601 70.9769L40.1602 70.9784C40.279 72.3831 40.6544 74.3997 41.3865 75.8951C41.7529 76.6436 42.2 77.2433 42.7319 77.5785C43.2535 77.9072 43.8712 77.9913 44.6173 77.6824C45.6772 77.2437 46.3543 76.2504 46.7611 74.9903C47.1675 73.7314 47.2948 72.2322 47.2728 70.8308L47.6073 70.8255C47.6296 72.2456 47.5015 73.7855 47.0794 75.093C46.6578 76.3992 45.9334 77.4996 44.7453 77.9915C43.9035 78.3399 43.1712 78.2508 42.5536 77.8615C41.9462 77.4787 41.4647 76.8156 41.0861 76.0422C40.3284 74.4946 39.9477 72.4325 39.827 71.008C39.7067 69.8289 39.6844 67.9717 40.0091 66.2221C40.3318 64.4828 41.0075 62.7952 42.3293 62.0302C42.9353 61.6795 43.5122 61.6508 44.0412 61.8611C44.5608 62.0677 45.017 62.4979 45.4103 63.0322C46.1972 64.101 46.7764 65.6473 47.1225 66.9156L46.7998 67.0036C46.4576 65.7496 45.8916 64.2501 45.141 63.2305C44.7656 62.7206 44.3549 62.3459 43.9176 62.172C43.4897 62.0018 43.0198 62.017 42.4969 62.3197C41.3109 63.0061 40.6577 64.5601 40.338 66.2831Z" fill="#392376"/>
<path fill-rule="evenodd" clip-rule="evenodd" d="M55.1235 88.5977C57.2239 89.6738 59.6014 90.3525 61.1473 90.6469L61.1488 90.6472L61.1502 90.6475C63.0187 91.0371 65.7834 91.3317 68.0132 90.9597C69.1288 90.7735 70.0906 90.4237 70.7421 89.854C71.3844 89.2924 71.7386 88.506 71.625 87.4022C71.4639 85.8359 70.4235 84.5618 68.9417 83.5432C67.4611 82.5254 65.5619 81.779 63.7354 81.2651L63.826 80.9431C65.6705 81.4621 67.6084 82.2208 69.1312 83.2676C70.6529 84.3136 71.7824 85.6636 71.9578 87.368C72.0819 88.5746 71.6901 89.4695 70.9623 90.1058C70.2437 90.7342 69.2113 91.0989 68.0682 91.2896C65.7812 91.6712 62.9713 91.3687 61.0833 90.9752C59.514 90.6762 57.1055 89.9889 54.9709 88.8954C52.8458 87.8067 50.9428 86.29 50.4692 84.3094C50.2531 83.4056 50.4358 82.666 50.9007 82.0773C51.3594 81.4965 52.0811 81.0767 52.9201 80.7756C54.5982 80.1731 56.8159 80.0204 58.5896 80.0623L58.5817 80.3967C56.8228 80.3552 54.6536 80.5086 53.0331 81.0904C52.2227 81.3813 51.5671 81.7732 51.1632 82.2846C50.7657 82.788 50.6007 83.4211 50.7945 84.2316C51.2316 86.0596 53.013 87.5165 55.1235 88.5977Z" fill="#392376"/>
<path d="M61.0768 57.3649C61.0067 57.2611 60.8657 57.2337 60.7619 57.3038C60.6581 57.3739 60.6307 57.5148 60.7008 57.6187C60.9785 58.0302 61.4992 58.4689 62.2192 58.8662C62.9434 59.2658 63.8841 59.6318 65.0198 59.8894C67.292 60.4049 70.3517 60.4884 74.0369 59.533C74.1581 59.5016 74.231 59.3778 74.1995 59.2566C74.1681 59.1353 74.0443 59.0625 73.9231 59.094C73.4941 59.2052 73.074 59.302 72.6631 59.3854C72.3543 58.9054 70.0631 57.5054 67.3447 57.2281C64.7281 56.9611 62.5962 57.8844 62.0779 58.2554C61.5903 57.9444 61.2573 57.6325 61.0768 57.3649Z" fill="#392376"/>
<path d="M42.9279 75.5791C42.8476 75.6581 42.8465 75.7872 42.9255 75.8675C43.0044 75.9478 43.1335 75.9489 43.2138 75.8699C43.5322 75.5568 43.8347 75.0246 44.0679 74.3229C44.3024 73.617 44.4717 72.7253 44.5133 71.6789C44.5965 69.5854 44.1686 66.8665 42.7196 63.7649C42.6719 63.6628 42.5505 63.6188 42.4485 63.6664C42.3465 63.7141 42.3024 63.8355 42.3501 63.9375C42.5187 64.2985 42.6732 64.6541 42.8144 65.0037C42.4406 65.3554 41.8059 67.4124 42.0064 69.8614C42.1995 72.2186 43.138 74.1505 43.551 74.5479C43.356 75.03 43.1348 75.3756 42.9279 75.5791Z" fill="#392376"/>
<path d="M68.1897 88.7834C68.2609 88.9179 68.4277 88.9692 68.5623 88.8979C68.6968 88.8267 68.7481 88.6599 68.6768 88.5254C68.3944 87.9922 67.822 87.3948 67.0033 86.8216C66.1799 86.2451 65.0904 85.6812 63.7514 85.2231C61.0723 84.3064 57.3859 83.8099 52.8092 84.488C52.6587 84.5103 52.5547 84.6505 52.577 84.801C52.5993 84.9516 52.7395 85.0556 52.89 85.0333C53.4228 84.9543 53.9429 84.8917 54.4502 84.844C54.7613 85.4639 57.3124 87.3532 60.5615 88.0398C63.6887 88.7007 66.4208 87.9593 67.0951 87.5779C67.644 88.0168 68.0061 88.4367 68.1897 88.7834Z" fill="#392376"/>
<path d="M73.293 74.7202C73.7015 74.8017 74.1707 74.9945 74.4058 75.3582C74.5489 75.581 74.5623 75.8476 74.4119 76.0729C74.202 76.4005 73.7913 76.5588 73.4249 76.6315C72.8583 76.735 72.2261 76.665 71.7201 76.3791C71.4645 76.2321 71.2246 75.9989 71.1836 75.6935C71.1468 75.3898 71.3591 75.1185 71.6058 74.9671C72.095 74.6687 72.7386 74.6157 73.293 74.7202Z" fill="#392376"/>
<path d="M47.6296 55.5268C48.0381 55.6083 48.5074 55.8011 48.7425 56.1648C48.8855 56.3876 48.8989 56.6542 48.7485 56.8795C48.5386 57.2071 48.1279 57.3653 47.7615 57.4381C47.195 57.5416 46.5628 57.4716 46.0567 57.1857C45.8011 57.0387 45.5612 56.8055 45.5202 56.5001C45.4834 56.1964 45.6957 55.9251 45.9424 55.7737C46.4317 55.4753 47.0752 55.4223 47.6296 55.5268Z" fill="#392376"/>
<path d="M62.9266 51.1882C62.5163 51.2598 62.0091 51.2497 61.6584 50.9955C61.4445 50.8394 61.3357 50.5958 61.3945 50.3313C61.4718 49.95 61.7976 49.654 62.1129 49.4538C62.6038 49.1525 63.2185 48.9893 63.7937 49.073C64.0852 49.1177 64.3931 49.2485 64.5417 49.5184C64.6858 49.7883 64.5859 50.1179 64.4106 50.3482C64.0622 50.8033 63.4813 51.0853 62.9266 51.1882Z" fill="#392376"/>
<path d="M58.7341 72.1153C58.5675 72.4971 58.2793 72.9146 57.874 73.067C57.6258 73.1593 57.3625 73.1157 57.1743 72.9208C56.8989 72.646 56.8316 72.2111 56.8385 71.8376C56.858 71.2619 57.0608 70.6591 57.4479 70.2255C57.6459 70.007 57.9249 69.8222 58.232 69.8472C58.5366 69.8758 58.7564 70.141 58.8518 70.4142C59.0394 70.9558 58.9542 71.5959 58.7341 72.1153Z" fill="#392376"/>
<path d="M82.9293 63.7947C83.3428 63.7441 83.8488 63.7802 84.186 64.0519C84.3916 64.2187 84.4879 64.4676 84.4157 64.7288C84.319 65.1056 83.9785 65.3846 83.6533 65.5684C83.1477 65.8442 82.5254 65.9758 81.9553 65.8629C81.6665 65.8033 81.3656 65.657 81.231 65.3798C81.1009 65.1029 81.2175 64.7788 81.4044 64.5578C81.7755 64.121 82.3701 63.8691 82.9293 63.7947Z" fill="#392376"/>
<path d="M44.3215 82.3787C44.4453 82.7764 44.5004 83.2807 44.2934 83.6611C44.1661 83.8933 43.9384 84.0325 43.6686 84.0082C43.2805 83.9805 42.9451 83.6955 42.706 83.4085C42.3442 82.9604 42.1033 82.3717 42.1124 81.7905C42.1193 81.4957 42.2094 81.1735 42.4581 80.9915C42.7072 80.8139 43.0469 80.8707 43.2978 81.015C43.7939 81.3019 44.1482 81.8418 44.3215 82.3787Z" fill="#392376"/>
<path d="M86.2432 75.7744C86.3556 75.7676 86.4413 75.671 86.4346 75.5586C86.4279 75.4462 86.3313 75.3605 86.2188 75.3672C85.7732 75.3939 85.1953 75.5963 84.5584 75.9719C83.9177 76.3497 83.204 76.9105 82.4849 77.6717C81.0462 79.1949 79.5817 81.5253 78.6352 84.8152C78.6041 84.9235 78.6666 85.0364 78.7748 85.0676C78.883 85.0987 78.996 85.0362 79.0272 84.928C79.1373 84.545 79.2546 84.1755 79.378 83.8193C79.8909 83.7998 81.7904 82.6726 83.2489 80.6951C84.6527 78.7917 85.1459 76.7129 85.0958 76.142C85.5597 75.9068 85.9535 75.7917 86.2432 75.7744Z" fill="#392376"/>
<path d="M36.817 83.3263C36.2468 83.4023 35.6165 83.474 34.9918 83.5249C33.757 83.6255 32.5735 83.6419 31.9106 83.4648C31.4412 83.3395 30.6554 83.3453 29.8398 83.5332C29.0214 83.7218 28.1458 84.1 27.5096 84.7449C26.8673 85.396 26.479 86.3096 26.6295 87.5368C26.7789 88.7551 27.4577 90.2728 28.9201 92.1526C34.7444 99.6388 38.9966 101.451 41.0295 101.654C42.0027 101.751 43.4248 101.879 44.5314 101.237C45.6653 100.579 46.4082 99.1563 46.1343 96.3086C45.9719 94.6211 45.938 93.2075 45.9742 92.063C45.8651 92.0033 45.7557 91.9421 45.646 91.8792C45.6001 93.069 45.6295 94.5545 45.8013 96.3406C46.0694 99.1273 45.3345 100.384 44.3635 100.948C43.3653 101.527 42.0554 101.42 41.0627 101.321C39.1636 101.132 34.9855 99.404 29.1841 91.9472C27.7402 90.0912 27.1006 88.6301 26.9615 87.4961C26.8235 86.371 27.1766 85.5587 27.7477 84.9798C28.3247 84.3949 29.1344 84.039 29.9149 83.8592C30.6983 83.6786 31.4252 83.6814 31.8243 83.788C32.5509 83.9821 33.7901 83.9584 35.019 83.8583C35.7066 83.8023 36.4002 83.7213 37.0149 83.637C36.9476 83.5333 36.8816 83.4297 36.817 83.3263Z" fill="#392376"/>
<path d="M91.2192 59.588C91.3289 59.475 91.4433 59.3639 91.562 59.2559C92.4512 58.4475 93.6057 57.7976 94.9486 57.8388C95.819 57.8655 96.5998 58.3982 97.2706 59.1885C97.9433 59.9812 98.525 61.055 98.9973 62.2167C99.9408 64.5372 100.466 67.2534 100.389 68.8783C100.38 69.0855 100.37 69.315 100.361 69.5632C100.295 71.2141 100.197 73.6922 99.6598 75.9249C99.0457 78.4792 97.8328 80.8111 95.3396 81.1248C95.0862 81.1566 94.8479 81.1535 94.6239 81.1191C94.6513 81.0103 94.678 80.9015 94.704 80.7926C94.8905 80.8185 95.0882 80.8193 95.2978 80.7929C97.5592 80.5084 98.7231 78.3901 99.3346 75.8467C99.8629 73.6491 99.9602 71.208 100.026 69.5543C100.036 69.3046 100.045 69.0728 100.055 68.8626C100.129 67.2997 99.6186 64.6328 98.6875 62.3427C98.2224 61.199 97.6569 60.1605 97.0156 59.405C96.3724 58.6471 95.6723 58.1956 94.9384 58.1731C93.7143 58.1356 92.6405 58.7275 91.7871 59.5034C91.6491 59.6289 91.5172 59.7588 91.3919 59.8911C91.3349 59.7898 91.2773 59.6888 91.2192 59.588Z" fill="#392376"/>
<path d="M45.5254 48.709C45.5374 47.8972 45.5763 46.8928 45.6603 45.9107C45.7184 45.2308 45.7979 44.564 45.9046 43.9803C46.0117 43.3938 46.1442 42.9022 46.3041 42.5666C46.5325 42.0871 46.6725 41.2315 46.6129 40.2997C46.5531 39.364 46.2906 38.3241 45.6866 37.4813C45.0784 36.6327 44.1308 35.9942 42.7285 35.8617C41.3336 35.7298 39.4991 36.0993 37.1065 37.2363C27.5774 41.7645 24.7409 45.9551 24.1335 48.1179C23.8418 49.1563 23.4336 50.6692 23.9486 52.0227C24.4728 53.4005 25.9214 54.5494 29.1783 54.9404C32.4721 55.3358 34.7976 55.9441 36.2377 56.4555C36.3068 56.3621 36.3769 56.2688 36.448 56.1757C34.9789 55.6436 32.595 55.0136 29.2182 54.6083C26.0191 54.2243 24.7218 53.1144 24.2612 51.9038C23.7913 50.6688 24.1592 49.2635 24.4555 48.2083C25.0242 46.1837 27.7545 42.0507 37.25 37.5384C39.6135 36.4153 41.385 36.0707 42.697 36.1947C44.0017 36.318 44.8622 36.9052 45.4147 37.6761C45.9713 38.4527 46.2219 39.426 46.2791 40.321C46.3366 41.2199 46.1975 42.0126 46.0021 42.4227C45.823 42.7988 45.6842 43.3252 45.5755 43.9202C45.4663 44.5179 45.3857 45.1961 45.327 45.8822C45.2362 46.9437 45.1977 48.0298 45.1887 48.8762C45.301 48.8193 45.4132 48.7635 45.5254 48.709Z" fill="#392376"/>
<path fill-rule="evenodd" clip-rule="evenodd" d="M83.9677 73.1658C83.1203 73.301 82.1767 73.7062 81.2307 74.3488L81.0428 74.0722C82.0173 73.4102 83.0065 72.9804 83.915 72.8354C84.8244 72.6903 85.6637 72.8297 86.3162 73.3219C87.3219 74.0804 87.6422 75.4888 87.4061 77.0958C87.169 78.7097 86.3675 80.5676 85.0654 82.294C83.7633 84.0203 82.1972 85.3015 80.7105 85.973C79.2303 86.6415 77.7881 86.7206 76.7824 85.9621C75.62 85.0853 75.3722 83.3432 75.8448 81.4148L76.1697 81.4944C75.7069 83.3826 75.9863 84.9426 76.9838 85.695C77.8463 86.3455 79.14 86.3153 80.5728 85.6682C81.9992 85.0239 83.5234 83.7829 84.7984 82.0926C86.0734 80.4022 86.8477 78.5957 87.0752 77.0471C87.3037 75.4916 86.9773 74.2394 86.1148 73.5889C85.5541 73.166 84.8143 73.0307 83.9677 73.1658Z" fill="#392376"/>
<path d="M65.2112 26.6941L66.1229 20.1455L71.7789 30.0801L65.2112 26.6941Z" fill="#FF3038"/>
<path d="M84.9472 34.694L88.8741 29.3141L77.8746 32.5528L84.9472 34.694Z" fill="#FF3038"/>
<path d="M59.7696 40.8502C64.1989 34.3208 62.0564 23.9905 60.4315 19.6416C69.6992 33.2191 77.3424 24.1751 80.0055 17.9559C75.1666 33.8005 86.8093 34.5526 93.2355 32.9481C83.3598 37.124 79.5872 45.1391 78.9354 48.6246C68.3243 49.0369 61.7369 43.6135 59.7696 40.8502Z" fill="#FBAF5D"/>
<path d="M75.3694 29.5236C75.5884 30.0576 75.7631 30.6206 75.9476 31.1683C76.5566 33.0276 77.1096 34.9509 77.3971 36.8879C77.518 37.7972 77.5804 38.6816 77.359 39.5833C77.2184 39.8379 77.0766 40.0896 76.8966 40.3198C75.8245 41.3997 74.3176 42.0831 72.9188 42.6335C71.8821 43.0119 70.8298 43.3816 69.7538 43.6345C69.5021 43.1101 69.1827 42.622 68.9165 42.1037C68.3674 41.0844 67.8934 40.0223 67.4902 38.9371C67.2236 38.1407 66.9701 37.2678 66.9643 36.422C66.946 35.8828 67.1106 35.3612 67.4202 34.9213C67.9144 34.2458 68.6011 33.6713 69.2642 33.1666C71.1612 31.7499 73.2582 30.5875 75.3694 29.5236Z" fill="#FF3038"/>
<path d="M74.6727 31.1673C74.7754 31.4244 74.8584 31.6914 74.9383 31.9573C73.0031 32.8688 71.0494 33.7403 69.1177 34.6581C69.6065 34.1946 70.1768 33.7943 70.7323 33.4156C71.9906 32.5796 73.3191 31.8347 74.6727 31.1673Z" fill="white"/>
<path d="M60.8042 40.9691C62.9552 38.0394 63.355 28.7485 63.286 24.4692L66.6507 26.556C66.6041 36.1627 64.2386 41.4999 63.0617 42.9677C62.6071 42.7833 61.3673 41.5584 60.8042 40.9691Z" fill="#FBD05D"/>
<path d="M69.0616 43.8974C67.1909 41.9835 66.6764 38.3577 66.653 36.7841C66.4928 39.0774 65.0576 42.6944 64.3601 44.2162C64.8459 44.7983 67.2539 45.9315 68.1186 46.2221L69.0616 43.8974Z" fill="#FBD05D"/>
<path d="M78.1103 47.9891C78.6081 44.3889 84.7938 37.4449 87.8245 34.423L83.9568 33.576C77.2977 40.5005 75.2766 45.9774 75.0985 47.8503C75.5531 48.0347 77.2958 48.0197 78.1103 47.9891Z" fill="#FBD05D"/>
<path d="M70.1463 44.3376C72.8217 44.2678 75.7167 42.025 76.8298 40.9124C75.3471 42.6692 73.8569 46.2639 73.2971 47.8416C72.5431 47.9208 70.0262 47.0563 69.2034 46.6623L70.1463 44.3376Z" fill="#FBD05D"/>
</svg>
