<svg width="128" height="128" viewBox="0 0 128 128" fill="none" xmlns="http://www.w3.org/2000/svg">
<g clip-path="url(#clip0)">
<path d="M109.346 88.523C101.745 88.523 95.5833 82.3612 95.5833 74.7605C95.5833 67.1597 101.745 60.998 109.346 60.998C116.946 60.998 123.108 67.1597 123.108 74.7605C123.108 82.3615 116.946 88.523 109.346 88.523Z" fill="#5A5A5A"/>
<path d="M109.346 60.9983C108.079 60.9983 106.854 61.1728 105.689 61.4933C111.514 63.0955 115.794 68.4265 115.794 74.7605C115.794 81.0945 111.514 86.4257 105.689 88.0277C106.854 88.3482 108.079 88.5228 109.346 88.5228C116.946 88.5228 123.108 82.361 123.108 74.7603C123.108 67.16 116.946 60.9983 109.346 60.9983Z" fill="#444444"/>
<path d="M127.32 115.563H63.3315V96.101C63.3315 90.5435 67.8367 86.0383 73.3942 86.0383H117.257C122.815 86.0383 127.32 90.5435 127.32 96.101V115.563H127.32Z" fill="#C0D6F2"/>
<path d="M117.258 86.0383H110.675C116.233 86.0383 120.738 90.5435 120.738 96.101V115.563H127.32V96.101C127.32 90.5435 122.815 86.0383 117.258 86.0383Z" fill="#B2CAEC"/>
<path d="M73.5391 86.0383H117.113V115.563H73.5391V86.0383Z" fill="#528FD8"/>
<path d="M27.221 19.6795H14.0585C8.0733 19.6795 3.37505 24.5745 3.9008 30.2625L6.1158 54.2308H27.221V19.6795Z" fill="#D77F4A"/>
<path d="M53.622 86.8985C51.8293 86.8985 11.4385 86.8985 9.63325 86.8985H9.3375C4.1805 86.8985 0 91.079 0 96.2357V115.562H63.3273V96.2357C63.3273 91.4122 59.6075 86.8985 53.622 86.8985Z" fill="#0AB69F"/>
<path d="M31.6635 89.9368L21.918 83.4008L16.0198 86.2425C15.3635 86.5585 15.229 87.4348 15.7598 87.9335L23.7368 95.4258C24.1205 95.7863 24.7138 95.802 25.116 95.4625L31.6635 89.9368Z" fill="#C0D6F2"/>
<path d="M31.6635 89.9368L41.4089 83.4008L47.3072 86.2425C47.9634 86.5585 48.0979 87.4348 47.5672 87.9335L39.5902 95.4258C39.2064 95.7863 38.6132 95.802 38.2109 95.4625L31.6635 89.9368Z" fill="#C0D6F2"/>
<path d="M41.4092 63.4473H21.918V83.4008L31.6635 89.9368L41.4092 83.4008V63.4473Z" fill="#FFB09E"/>
<path d="M53.622 86.8985C53.1498 86.8985 49.9963 86.8985 45.5768 86.8985C51.5625 86.8985 55.282 91.4122 55.282 96.2357V115.562H63.3273V96.2357C63.3273 91.4122 59.6075 86.8985 53.622 86.8985Z" fill="#01998D"/>
<path d="M47.3074 86.2425L41.4092 83.4008L38.3517 85.4515L39.9937 86.2425C40.6499 86.5585 40.7844 87.4348 40.2537 87.9335L35.0647 92.807L38.2112 95.4623C38.6137 95.8018 39.2067 95.7863 39.5904 95.4255L47.5674 87.9333C48.0982 87.4348 47.9634 86.5585 47.3074 86.2425Z" fill="#B2CAEC"/>
<path d="M21.918 81.732C24.8352 83.0425 28.0702 83.7723 31.4757 83.7723H31.7817C35.2142 83.7723 38.4737 83.0313 41.4092 81.701V62.716H21.918V81.732Z" fill="#FFA78F"/>
<path d="M108.334 96.0785H83.2276C82.4254 96.0785 81.7751 95.4283 81.7751 94.626V86.0383H109.787V94.626C109.787 95.428 109.137 96.0785 108.334 96.0785Z" fill="#82AEE3"/>
<path d="M95.5833 96.0785C90.0393 96.0785 85.545 91.5842 85.545 86.0405V61.8832H105.621V86.0405C105.622 91.5842 101.127 96.0785 95.5833 96.0785Z" fill="#FFB09E"/>
<path d="M85.5452 84.817C88.5954 86.2053 91.9844 86.9792 95.5542 86.9792C99.1469 86.9792 102.556 86.195 105.621 84.79V61.8832H85.5452V84.817Z" fill="#FFA78F"/>
<path d="M83.7205 61.6658H71.3145C66.7735 61.6658 63.092 57.9845 63.092 53.4433C63.092 48.9023 66.7732 45.2208 71.3145 45.2208H83.7205V61.6658Z" fill="#FFB09E"/>
<path d="M107.372 45.221H119.778C124.319 45.221 128 48.9022 128 53.4435C128 57.9845 124.319 61.666 119.778 61.666H107.372V45.221Z" fill="#FFA78F"/>
<path d="M95.5542 81.8595C82.195 81.8595 71.365 71.0297 71.365 57.6702V49.2267C71.365 35.8675 82.1947 25.0375 95.5542 25.0375C108.913 25.0375 119.743 35.8672 119.743 49.2267V57.6702C119.743 71.0297 108.913 81.8595 95.5542 81.8595Z" fill="#FFCEBF"/>
<path d="M95.5542 25.0375C94.4377 25.0375 93.3392 25.1147 92.2629 25.2612C104.065 26.867 113.161 36.9837 113.161 49.2267V57.6702C113.161 69.913 104.065 80.0297 92.2629 81.6357C93.3392 81.7822 94.4377 81.8595 95.5542 81.8595C108.913 81.8595 119.743 71.0297 119.743 57.6702V49.2267C119.743 35.8675 108.913 25.0375 95.5542 25.0375Z" fill="#FFB09E"/>
<path d="M95.5542 81.8595C82.195 81.8595 71.365 71.0297 71.365 57.6702V49.2267C71.365 35.8675 82.1947 25.0375 95.5542 25.0375C108.913 25.0375 119.743 35.8672 119.743 49.2267V57.6702C119.743 71.0297 108.913 81.8595 95.5542 81.8595Z" fill="#FFCEBF"/>
<path d="M95.5462 72.0823C91.6419 72.0823 88.4657 68.906 88.4657 65.0018C88.4657 63.933 89.3322 63.0665 90.4009 63.0665C91.4697 63.0665 92.3362 63.9328 92.3362 65.0018C92.3362 66.7718 93.7762 68.2118 95.5462 68.2118C97.3162 68.2118 98.7562 66.7718 98.7562 65.0018C98.7562 63.933 99.6227 63.0665 100.691 63.0665C101.76 63.0665 102.627 63.9328 102.627 65.0018C102.626 68.906 99.4502 72.0823 95.5462 72.0823Z" fill="#FFA799"/>
<path d="M107.372 59.364C106.303 59.364 105.437 58.4978 105.437 57.4288V52.9675C105.437 51.8988 106.303 51.0323 107.372 51.0323H109.29C110.359 51.0323 111.225 51.8985 111.225 52.9675C111.225 54.0305 110.368 54.8933 109.307 54.9028V57.429C109.307 58.4978 108.441 59.364 107.372 59.364Z" fill="#5A5A5A"/>
<path d="M83.7204 59.364C82.6517 59.364 81.7852 58.4978 81.7852 57.4288V54.9025C80.7242 54.8933 79.8672 54.0305 79.8672 52.9673C79.8672 51.8985 80.7337 51.032 81.8024 51.032H83.7204C84.7892 51.032 85.6557 51.8983 85.6557 52.9673V57.4288C85.6557 58.4978 84.7892 59.364 83.7204 59.364Z" fill="#5A5A5A"/>
<path d="M95.5543 25.0375C94.5638 25.0375 93.5878 25.0985 92.6288 25.214C104.608 26.6585 113.892 36.8575 113.892 49.2265V57.67C113.892 70.039 104.608 80.2382 92.6288 81.6825C93.588 81.7982 94.564 81.859 95.5543 81.859C108.914 81.859 119.744 71.0292 119.744 57.6697V49.2262C119.744 35.8675 108.914 25.0375 95.5543 25.0375Z" fill="#FFB09E"/>
<path d="M73.585 45.221H67.0515V40.593C67.0515 26.594 78.4 15.2457 92.3987 15.2457H92.469C95.0635 15.2457 97.1667 17.349 97.1667 19.9435V21.6392C97.1667 34.663 86.609 45.221 73.585 45.221Z" fill="#5A5A5A"/>
<path d="M123.108 45.221H96.3067C86.6807 45.221 78.8772 37.4175 78.8772 27.7915C78.8772 20.8627 84.4942 15.2457 91.4229 15.2457H98.9187C112.278 15.2457 123.108 26.0755 123.108 39.435V45.221H123.108Z" fill="#5A5A5A"/>
<path d="M98.919 15.2457H91.605C104.964 15.2457 115.794 26.0757 115.794 39.435V45.2212H123.108V39.435C123.108 26.0755 112.278 15.2457 98.919 15.2457Z" fill="#444444"/>
<path d="M112.361 65.0018H108.285C107.216 65.0018 106.35 64.1355 106.35 63.0665C106.35 61.9975 107.216 61.1313 108.285 61.1313H112.361C113.43 61.1313 114.296 61.9975 114.296 63.0665C114.296 64.1355 113.43 65.0018 112.361 65.0018Z" fill="#FE8F83"/>
<path d="M82.3926 65.0018H78.3164C77.2476 65.0018 76.3811 64.1355 76.3811 63.0665C76.3811 61.9975 77.2476 61.1313 78.3164 61.1313H82.3926C83.4614 61.1313 84.3279 61.9975 84.3279 63.0665C84.3279 64.1355 83.4614 65.0018 82.3926 65.0018Z" fill="#FE8F83"/>
<path d="M20.1465 60.502H8.09795C3.69145 60.502 0.119202 56.9297 0.119202 52.5232C0.119202 48.1167 3.69145 44.5445 8.09795 44.5445H20.1465V60.502Z" fill="#FFB09E"/>
<path d="M43.1085 44.5445H55.1428C59.5493 44.5445 63.1215 48.1167 63.1215 52.5232C63.1215 56.9297 59.5493 60.502 55.1428 60.502H43.1085V44.5445Z" fill="#FFA78F"/>
<path d="M31.7818 80.1152H31.4758C18.581 80.1152 8.1275 69.662 8.1275 56.767V48.279C8.1275 35.3842 18.5808 24.9307 31.4758 24.9307H31.7818C44.6765 24.9307 55.13 35.384 55.13 48.279V56.767C55.1298 69.662 44.6765 80.1152 31.7818 80.1152Z" fill="#FFCEBF"/>
<path d="M31.7817 24.931H31.4757C30.5375 24.931 29.6125 24.988 28.7032 25.0955C40.291 26.4668 49.2787 36.3225 49.2787 48.279V56.767C49.2787 68.7235 40.291 78.5793 28.7032 79.9505C29.6125 80.058 30.5375 80.115 31.4757 80.115H31.7817C44.6765 80.115 55.13 69.6617 55.13 56.767V48.279C55.1297 35.3845 44.6765 24.931 31.7817 24.931Z" fill="#FFB09E"/>
<path d="M48.6859 65.0018H44.6097C43.5409 65.0018 42.6744 64.1355 42.6744 63.0665C42.6744 61.9975 43.5409 61.1313 44.6097 61.1313H48.6859C49.7547 61.1313 50.6212 61.9975 50.6212 63.0665C50.6212 64.1355 49.7547 65.0018 48.6859 65.0018Z" fill="#FE8F83"/>
<path d="M18.7175 65.0018H14.6412C13.5725 65.0018 12.706 64.1355 12.706 63.0665C12.706 61.9975 13.5725 61.1313 14.6412 61.1313H18.7175C19.7862 61.1313 20.6527 61.9975 20.6527 63.0665C20.6527 64.1355 19.7862 65.0018 18.7175 65.0018Z" fill="#FE8F83"/>
<path d="M54.2172 20.2262C52.3472 15.6575 47.8597 12.4375 42.6177 12.4375H23.623C15.8965 12.4375 9.633 18.701 9.633 26.4275C9.633 36.2557 17.4605 44.2505 27.2207 44.531V44.5445H59.5572L60.881 30.221C61.2987 25.7028 58.4187 21.6877 54.2172 20.2262Z" fill="#D77F4A"/>
<path d="M54.2172 20.2262C52.3472 15.6575 47.8597 12.4375 42.6177 12.4375H34.5724C39.8144 12.4375 44.302 15.6575 46.172 20.2262C50.3735 21.6877 53.2534 25.7028 52.8359 30.221L51.5122 44.5445H59.5574L60.8812 30.221C61.2987 25.7028 58.4187 21.6877 54.2172 20.2262Z" fill="#C86D36"/>
<path d="M31.4218 70.6793C27.6003 70.6793 24.4913 67.5703 24.4913 63.7488C24.4913 62.68 25.3578 61.8135 26.4265 61.8135C27.4953 61.8135 28.3618 62.6798 28.3618 63.7488C28.3618 65.4363 29.7345 66.809 31.422 66.809C33.1095 66.809 34.4823 65.4363 34.4823 63.7488C34.4823 62.68 35.3488 61.8135 36.4175 61.8135C37.4863 61.8135 38.3528 62.6798 38.3528 63.7488C38.3523 67.5703 35.2433 70.6793 31.4218 70.6793Z" fill="#FFA799"/>
<path d="M19.9407 58.3318C18.872 58.3318 18.0055 57.4655 18.0055 56.3965V52.065C18.0055 50.9963 18.872 50.1298 19.9407 50.1298C21.0095 50.1298 21.876 50.996 21.876 52.065V56.3965C21.876 57.4655 21.0095 58.3318 19.9407 58.3318Z" fill="#5A5A5A"/>
<path d="M42.9027 58.3318C41.834 58.3318 40.9675 57.4655 40.9675 56.3965V52.065C40.9675 50.9963 41.834 50.1298 42.9027 50.1298C43.9715 50.1298 44.838 50.996 44.838 52.065V56.3965C44.8377 57.4655 43.9715 58.3318 42.9027 58.3318Z" fill="#5A5A5A"/>
</g>
<defs>
<clipPath id="clip0">
<rect width="128" height="128" fill="white"/>
</clipPath>
</defs>
</svg>
