<svg width="128" height="128" viewBox="0 0 128 128" fill="none" xmlns="http://www.w3.org/2000/svg">
<path d="M111.398 101.398L80.8152 57.7182C79.948 56.4795 79.4827 55.004 79.4827 53.492V11.9155L72.2777 6.76447H53.1677L48.5165 11.9155V53.492C48.5165 55.004 48.0512 56.4795 47.184 57.7182L16.6022 101.398C8.75749 112.603 16.773 128 30.4507 128H97.5492C111.227 128 119.242 112.603 111.398 101.398Z" fill="#D3EFFB"/>
<path d="M111.398 101.398L80.8153 57.7182C79.948 56.4795 79.4828 55.004 79.4828 53.492V16.7567V11.9155L72.8458 6.76447H53.168L48.5168 11.9155V16.7567H66.4883C69.9995 16.7567 72.8458 19.603 72.8458 23.1142V53.492C72.8458 55.004 73.311 56.4795 74.1783 57.7182L104.761 101.398C112.606 112.603 104.59 128 90.9123 128H97.5493C111.227 128 119.243 112.603 111.398 101.398Z" fill="#BED8FB"/>
<path d="M85.1988 11.9155H42.8013C41.9593 11.9155 41.2768 11.233 41.2768 10.3907V1.52475C41.2768 0.68275 41.9593 0 42.8013 0H85.1988C86.0408 0 86.7235 0.6825 86.7235 1.52475V10.391C86.7235 11.233 86.0408 11.9155 85.1988 11.9155Z" fill="#9DC6FB"/>
<path d="M85.1988 0H78.9561C79.7981 0 80.4808 0.6825 80.4808 1.52475V10.391C80.4808 11.233 79.7983 11.9157 78.9561 11.9157H85.1988C86.0408 11.9157 86.7233 11.2332 86.7233 10.391V1.52475C86.7236 0.6825 86.0408 0 85.1988 0V0Z" fill="#80B4FB"/>
<path d="M87.2838 82.8365C85.9246 80.895 83.9845 79.431 81.741 78.6665C79.2163 77.8062 78.2848 75.9835 74.3363 75.9835C69.1688 75.9835 69.1688 79.1062 64.001 79.1062C58.8328 79.1062 58.8328 75.9835 53.6645 75.9835C49.7158 75.9835 48.784 77.8062 46.259 78.6665C44.0155 79.431 42.0755 80.895 40.716 82.8365L24.063 106.622C21.6135 110.12 22.8773 113.433 23.5343 114.695C24.1913 115.957 26.1803 118.892 30.4508 118.892H97.5496C101.82 118.892 103.809 115.957 104.466 114.695C105.123 113.433 106.387 110.12 103.938 106.622L87.2838 82.8365Z" fill="#78D0B1"/>
<path d="M103.937 106.622L87.2838 82.8365C85.9245 80.895 83.9845 79.431 81.741 78.6665C79.2163 77.8062 78.2848 75.9835 74.3363 75.9835C72.2843 75.9835 71.0478 76.4762 69.9785 77.07C70.9668 77.6185 71.8123 78.2535 73.0248 78.6667C75.2683 79.4312 77.208 80.8952 78.5675 82.8367L95.221 106.622C97.6703 110.121 96.4068 113.434 95.7498 114.696C95.0928 115.957 93.1038 118.892 88.833 118.892H97.5493C101.82 118.892 103.809 115.957 104.466 114.696C105.123 113.433 106.386 110.12 103.937 106.622Z" fill="#70B9C6"/>
<path d="M47.5143 92.0487C46.4473 92.0487 45.5828 91.184 45.5828 90.1172V88.7312C45.5828 87.6642 46.4475 86.7997 47.5143 86.7997C48.5813 86.7997 49.4458 87.6645 49.4458 88.7312V90.1172C49.4458 91.184 48.5813 92.0487 47.5143 92.0487Z" fill="#70B9C6"/>
<path d="M81.5008 109.831C80.4338 109.831 79.5693 108.966 79.5693 107.9V106.514C79.5693 105.447 80.434 104.582 81.5008 104.582C82.5678 104.582 83.4323 105.447 83.4323 106.514V107.9C83.4323 108.966 82.5675 109.831 81.5008 109.831Z" fill="#70B9C6"/>
<path d="M81.5008 93.4345C80.4338 93.4345 79.5693 92.5698 79.5693 91.503V90.1173C79.5693 89.0503 80.434 88.1858 81.5008 88.1858C82.5678 88.1858 83.4323 89.0505 83.4323 90.1173V91.503C83.4323 92.57 82.5675 93.4345 81.5008 93.4345Z" fill="#70B9C6"/>
<path d="M64.0001 89.395C62.9331 89.395 62.0686 88.5302 62.0686 87.4635V86.0775C62.0686 85.0105 62.9334 84.146 64.0001 84.146C65.0671 84.146 65.9316 85.0107 65.9316 86.0775V87.4635C65.9316 88.5305 65.0669 89.395 64.0001 89.395Z" fill="#70B9C6"/>
<path d="M59.6333 103.93C58.5663 103.93 57.7018 103.065 57.7018 101.999V100.613C57.7018 99.5455 58.5666 98.681 59.6333 98.681C60.7001 98.681 61.5648 99.5458 61.5648 100.613V101.999C61.5648 103.066 60.7001 103.93 59.6333 103.93Z" fill="#70B9C6"/>
<path d="M41.2578 106.663C40.1908 106.663 39.3263 105.798 39.3263 104.731V103.345C39.3263 102.278 40.191 101.414 41.2578 101.414C42.3245 101.414 43.1893 102.279 43.1893 103.345V104.731C43.1893 105.798 42.3245 106.663 41.2578 106.663Z" fill="#70B9C6"/>
</svg>
