<svg width="128" height="128" viewBox="0 0 128 128" fill="none" xmlns="http://www.w3.org/2000/svg">
<path d="M68.1995 47.6996C68.0876 47.6996 67.9741 47.6898 67.8604 47.6697C66.8084 47.4835 66.1066 46.48 66.2926 45.4279L68.1776 34.7735L69.1553 28.7219C69.3256 27.6673 70.3195 26.9506 71.3734 27.1208C72.428 27.2911 73.1449 28.2843 72.9745 29.3388L71.9947 35.4043C71.9931 35.4139 71.9916 35.4234 71.9898 35.433L70.1021 46.1019C69.936 47.0399 69.12 47.6996 68.1995 47.6996Z" fill="#8EBAC5"/>
<path d="M49.8782 97.2178C49.6564 97.2178 49.4307 97.1793 49.2105 97.0984C48.208 96.7293 47.6942 95.6177 48.0633 94.615L49.7603 90.0038L52.6084 81.6515C52.9532 80.6405 54.0519 80.0999 55.0634 80.445C56.0747 80.7898 56.6147 81.889 56.2699 82.9L53.4144 91.274C53.4092 91.2887 53.4041 91.3032 53.3989 91.3179L51.6939 95.9512C51.4058 96.7332 50.6658 97.2178 49.8782 97.2178Z" fill="#8EBAC5"/>
<path d="M84.1586 64.0788C83.2451 64.0788 82.4324 63.4286 82.2591 62.4983C82.0636 61.4481 82.7563 60.4381 83.8065 60.2426L92.5693 58.6108C92.594 58.6062 92.6188 58.6021 92.6435 58.5985L97.7267 57.8552C98.7841 57.6999 99.7659 58.4321 99.9204 59.4893C100.075 60.5464 99.3435 61.5286 98.2863 61.6831L93.2403 62.4209L84.5148 64.0457C84.3951 64.0679 84.2759 64.0788 84.1586 64.0788Z" fill="#8EBAC5"/>
<path d="M102.287 71.7348C104.066 72.3873 104.982 74.3629 104.327 76.1425L102.351 81.525C101.698 83.3072 99.7229 84.2202 97.9433 83.5676C96.3572 82.9848 95.4622 81.3548 95.7459 79.748L89.7264 77.9994C88.4446 80.3954 86.8378 82.5902 84.9628 84.5271L88.509 89.7703C89.9121 89.1617 91.5988 89.5434 92.584 90.8046C93.7523 92.2978 93.4867 94.4565 91.9908 95.6249L87.4748 99.1556C85.979 100.324 83.8203 100.061 82.6519 98.565C81.6126 97.2342 81.7106 95.3799 82.7989 94.1625L78.6079 89.5021C75.9927 91.0186 73.1196 92.1405 70.0686 92.7853L70.0815 99.1092C71.5851 99.3878 72.7715 100.646 72.8824 102.24C73.0165 104.133 71.5928 105.776 69.6998 105.91L63.9819 106.318C62.0889 106.452 60.446 105.026 60.3119 103.133C60.1907 101.448 61.31 99.9629 62.891 99.5631L62.0192 93.3527C55.9765 92.9452 50.4417 90.7014 45.9644 87.1706L36.948 75.1624C35.9009 72.5627 35.2148 69.7799 34.9569 66.8732L28.6717 66.1279C28.2152 67.5876 26.8251 68.6141 25.226 68.5367C23.333 68.4439 21.8706 66.832 21.9635 64.9363L22.2446 59.2108C22.3374 57.3151 23.9494 55.8554 25.845 55.9482C27.5317 56.0308 28.8728 57.3177 29.0792 58.9374L35.3489 58.8136C35.8596 56.1107 36.7416 53.5394 37.9409 51.1563L32.9994 47.2129C31.8414 48.211 30.1185 48.3502 28.8032 47.4424C27.2403 46.3618 26.8508 44.2237 27.9289 42.6634L31.1889 37.9462C32.2669 36.3833 34.4076 35.9938 35.9679 37.0719C37.358 38.0313 37.8171 39.8341 37.1388 41.3197L42.5343 44.5203C44.6027 42.2713 47.0219 40.3499 49.7015 38.8386L47.8033 32.8035C46.2868 32.9866 44.7806 32.1381 44.1952 30.65C43.504 28.8833 44.3731 26.8897 46.1398 26.1985L51.4785 24.1068C53.2452 23.4131 55.2388 24.2848 55.93 26.0515C56.5464 27.6247 55.9223 29.3733 54.5322 30.227L57.2144 35.8907C59.3912 35.3723 61.6633 35.0963 64 35.0963C70.6566 35.0963 76.7922 37.3298 81.7002 41.085L90.8921 52.9591C92.3545 56.4357 93.1617 60.2527 93.1617 64.258C93.1617 66.3729 92.9347 68.4361 92.5066 70.422L98.2812 73.0063C99.1503 71.7477 100.785 71.1829 102.287 71.7348Z" fill="#A8D3D8"/>
<path d="M61.4176 56.5291C61.2659 55.6909 60.9549 54.8787 60.4711 54.1331C58.3111 50.8032 53.5516 50.055 49.8401 52.4624C46.1288 54.8697 44.871 59.5205 47.0309 62.8506C47.7482 63.9566 48.7533 64.7759 49.9105 65.2912L55.8878 66.5563L62.2635 62.2105L61.4176 56.5291Z" fill="#8EBAC5"/>
<path d="M78.7978 69.7401C81.9244 69.7401 84.4591 67.2055 84.4591 64.0788C84.4591 60.9521 81.9244 58.4174 78.7978 58.4174C75.6711 58.4174 73.1364 60.9521 73.1364 64.0788C73.1364 67.2055 75.6711 69.7401 78.7978 69.7401Z" fill="#8EBAC5"/>
<path d="M70.0815 99.1092L70.0743 95.5648C56.2266 91.7462 46.056 79.0617 46.056 64.0001C46.056 51.4882 53.0771 40.6143 63.3916 35.1025C61.2695 35.1464 59.2011 35.4177 57.2147 35.8907L54.5324 30.227C55.9226 29.3733 56.5467 27.6247 55.9303 26.0515C55.2391 24.2848 53.2455 23.4131 51.4788 24.1068L46.1401 26.1985C44.3734 26.8897 43.5043 28.8833 44.1955 30.65C44.7809 32.1381 46.2871 32.9866 47.8036 32.8035L49.7018 38.8386C47.0221 40.3499 44.603 42.2713 42.5345 44.5203L37.1388 41.3197C37.8171 39.8341 37.358 38.0313 35.9679 37.0719C34.4076 35.9938 32.2669 36.3833 31.1889 37.9462L27.9289 42.6634C26.8508 44.2237 27.2403 46.3618 28.8032 47.4424C30.1185 48.3502 31.8414 48.211 32.9994 47.2129L37.9409 51.1563C36.7416 53.5394 35.8596 56.1107 35.3489 58.8136L29.0792 58.9374C28.8728 57.3177 27.5317 56.0308 25.845 55.9482C23.9494 55.8554 22.3374 57.3151 22.2446 59.2108L21.9635 64.9363C21.8706 66.832 23.333 68.4439 25.226 68.5367C26.8251 68.6141 28.2152 67.5876 28.6717 66.1279L34.9569 66.8732C35.2148 69.7799 35.9009 72.5627 36.948 75.1624L45.9645 87.1706C50.4418 90.7014 55.9765 92.9452 62.0193 93.3527L62.891 99.5631C61.31 99.9629 60.1907 101.448 60.3119 103.133C60.446 105.026 62.0889 106.452 63.982 106.318L69.6998 105.91C71.5928 105.776 73.0165 104.133 72.8824 102.24C72.7715 100.646 71.5851 99.3878 70.0815 99.1092Z" fill="#8EBAC5"/>
<path d="M64 0C99.3464 0 128 28.6536 128 64C128 99.3464 99.3464 128 64 128C28.6536 128 0 99.3464 0 64C0 28.6536 28.6536 0 64 0ZM63.1283 114.362C92.0243 114.852 115.556 90.6884 114.321 61.8155C114.011 54.5786 112.175 47.7389 109.126 41.6058C108.652 40.6541 107.432 40.3653 106.586 41.01L30.5209 98.9311C29.6724 99.5759 29.6311 100.832 30.4255 101.544C39.135 109.338 50.5707 114.148 63.1283 114.362ZM97.4791 29.0689C98.3276 28.4241 98.3689 27.1681 97.5745 26.4563C88.865 18.6623 77.4293 13.8523 64.8717 13.6382C35.9757 13.1482 12.4441 37.3116 13.6795 66.1871C13.989 73.4214 15.8253 80.2611 18.8737 86.3942C19.3483 87.3459 20.5682 87.6347 21.4141 86.99L97.4791 29.0689Z" fill="#F37C7C"/>
<path d="M70.8697 85.2889C73.0786 85.2889 74.8693 83.4982 74.8693 81.2893C74.8693 79.0803 73.0786 77.2896 70.8697 77.2896C68.6607 77.2896 66.87 79.0803 66.87 81.2893C66.87 83.4982 68.6607 85.2889 70.8697 85.2889Z" fill="#8EBAC5"/>
</svg>
