<svg width="48" height="48" viewBox="0 0 48 48" fill="none" xmlns="http://www.w3.org/2000/svg">
<g clip-path="url(#clip0)">
<path d="M35.4119 10.1815L36.3473 12.0769C36.4109 12.2056 36.5337 12.2948 36.6757 12.3155L38.7674 12.6194C39.1251 12.6713 39.268 13.111 39.0091 13.3633L37.4955 14.8386C37.3927 14.9389 37.3457 15.0832 37.37 15.2247L37.7273 17.3079C37.7884 17.6643 37.4145 17.936 37.0945 17.7677L35.2236 16.7841C35.0966 16.7173 34.9448 16.7173 34.8177 16.7841L32.9468 17.7677C32.6268 17.9359 32.2529 17.6642 32.314 17.3079L32.6713 15.2247C32.6956 15.0832 32.6486 14.9389 32.5458 14.8386L31.0322 13.3633C30.7734 13.1109 30.9162 12.6713 31.2739 12.6194L33.3656 12.3155C33.5076 12.2948 33.6304 12.2056 33.694 12.0769L34.6294 10.1815C34.7896 9.85742 35.2518 9.85742 35.4119 10.1815Z" fill="#FED402"/>
<path d="M34.4728 16.5159L34.83 14.4327C34.8543 14.2912 34.8074 14.1469 34.7046 14.0466L33.191 12.5713C33.1271 12.509 33.0878 12.4351 33.0701 12.3586L31.2741 12.6196C30.9164 12.6716 30.7735 13.1112 31.0324 13.3635L32.5459 14.8388C32.6488 14.9391 32.6956 15.0834 32.6714 15.2249L32.3141 17.3081C32.253 17.6645 32.6269 17.9361 32.9469 17.7679L34.5969 16.9004C34.5011 16.8067 34.4465 16.6693 34.4728 16.5159Z" fill="#FAC600"/>
<path d="M45.3963 19.296C44.1079 19.7203 43.634 20.1942 43.2097 21.4826C43.151 21.6608 42.8971 21.6608 42.8384 21.4826C42.4141 20.1942 41.9402 19.7203 40.6518 19.296C40.4736 19.2373 40.4736 18.9834 40.6518 18.9247C41.9402 18.5004 42.4141 18.0265 42.8384 16.7381C42.8971 16.5599 43.151 16.5599 43.2097 16.7381C43.634 18.0265 44.1079 18.5004 45.3963 18.9247C45.5745 18.9834 45.5745 19.2373 45.3963 19.296Z" fill="#FED402"/>
<path d="M40.9141 7.27465H40.4484V6.8089C40.4484 6.42059 40.1336 6.10577 39.7452 6.10577C39.3568 6.10577 39.0421 6.42059 39.0421 6.8089V7.27465H38.5763C38.1879 7.27465 37.8731 7.58946 37.8731 7.97777C37.8731 8.36609 38.1879 8.6809 38.5763 8.6809H39.0421V9.14665C39.0421 9.53496 39.3568 9.84977 39.7452 9.84977C40.1336 9.84977 40.4484 9.53496 40.4484 9.14665V8.6809H40.9141C41.3025 8.6809 41.6172 8.36609 41.6172 7.97777C41.6172 7.58946 41.3025 7.27465 40.9141 7.27465Z" fill="#FAC600"/>
<path d="M27.5662 15.3674H27.1004V14.9017C27.1004 14.5134 26.7856 14.1985 26.3972 14.1985C26.0088 14.1985 25.6941 14.5134 25.6941 14.9017V15.3674H25.2284C24.84 15.3674 24.5252 15.6822 24.5252 16.0705C24.5252 16.4589 24.84 16.7737 25.2284 16.7737H25.6941V17.2394C25.6941 17.6277 26.0088 17.9425 26.3972 17.9425C26.7856 17.9425 27.1004 17.6277 27.1004 17.2394V16.7737H27.5662C27.9546 16.7737 28.2693 16.4589 28.2693 16.0705C28.2693 15.6822 27.9546 15.3674 27.5662 15.3674Z" fill="#FED402"/>
<path d="M36.25 3.65823L34.2774 0.241507C34.1441 0.0105065 33.8487 -0.0686185 33.6178 0.0647878L29.0497 2.70216L29.2433 2.85113L35.4921 4.52551L35.7583 4.49982L36.0732 4.31794C36.3043 4.18454 36.3834 3.88923 36.25 3.65823Z" fill="#F3F0F3"/>
<path d="M14.2167 11.6543L13.6424 11.5974L8.63081 14.4909L8.88544 14.6562L14.9853 16.2907L15.3394 16.2885L20.3511 13.395L20.1568 13.2459L14.2167 11.6543Z" fill="#F3F0F3"/>
<path d="M24.9062 5.88853L23.8519 5.70309L18.8403 8.5965L19.0498 8.74969L25.1594 10.3868L25.5488 10.3941L30.5604 7.50066L29.9949 7.25203L24.9062 5.88853Z" fill="#F3F0F3"/>
<path d="M38.4347 21.7498H37.8069L37.4483 21.9758L32.9714 26.4528L32.8959 26.6609H38.9194V22.2346C38.9193 21.9668 38.7023 21.7498 38.4347 21.7498Z" fill="#433F43"/>
<path d="M27.2221 26.4652L31.6702 22.0173L31.8051 21.7498H26.0182L25.6905 21.9448L21.2136 26.4218L21.1071 26.6609H26.894L26.8941 26.6608L27.2221 26.4652Z" fill="#433F43"/>
<path d="M38.5367 26.5671H2.8906L2.46976 26.6608V47.0306C2.46976 47.566 2.90373 48 3.43913 48H37.9499C38.4852 48 38.9193 47.566 38.9193 47.0306V26.6609L38.5367 26.5671Z" fill="#554E56"/>
<path d="M18.8406 8.5965L25.5492 10.3941L20.3514 13.395L13.6428 11.5974L18.8406 8.5965Z" fill="#433F43"/>
<path d="M29.0496 2.70215L35.7582 4.49971L30.5605 7.50065L23.8519 5.70309L29.0496 2.70215Z" fill="#433F43"/>
<path d="M8.63104 14.4909L2.46988 18.0481L2.65738 18.1418H8.18647C8.97416 18.1418 9.7011 18.5359 10.131 19.1959L10.2596 19.2214L15.3397 16.2885L8.63104 14.4909Z" fill="#433F43"/>
<path d="M6.96282 47.0306V26.6609H2.46976V47.0306C2.46976 47.566 2.90373 48 3.43913 48H7.93219C7.39688 48 6.96282 47.566 6.96282 47.0306Z" fill="#433F43"/>
<path d="M20.0163 21.7498H11.7945L14.866 26.4655L15.1052 26.6609H15.1053L15.3596 26.5671H15.3315L20.0057 21.893L20.0163 21.7498Z" fill="#433F43"/>
<path d="M31.805 21.7498L26.8939 26.6609H32.8958L37.8068 21.7498H31.805Z" fill="#F3F0F3"/>
<path d="M20.0163 21.7498L15.1052 26.6609H21.1071L26.0182 21.7498H20.0163Z" fill="#F3F0F3"/>
<path d="M15.1051 26.6609H2.46976V18.0481H8.18635C9.00282 18.0481 9.76388 18.4607 10.2095 19.1448L15.1051 26.6609Z" fill="#918291"/>
<path d="M2.46976 18.0481H6.96282V26.6609H2.46976V18.0481Z" fill="#7A6D79"/>
<path d="M5.13641 21.1732C5.52474 21.1732 5.83954 20.8584 5.83954 20.4701C5.83954 20.0818 5.52474 19.767 5.13641 19.767C4.74809 19.767 4.43329 20.0818 4.43329 20.4701C4.43329 20.8584 4.74809 21.1732 5.13641 21.1732Z" fill="#F3F0F3"/>
<path d="M5.13641 24.6629C5.52474 24.6629 5.83954 24.3481 5.83954 23.9598C5.83954 23.5715 5.52474 23.2567 5.13641 23.2567C4.74809 23.2567 4.43329 23.5715 4.43329 23.9598C4.43329 24.3481 4.74809 24.6629 5.13641 24.6629Z" fill="#F3F0F3"/>
<path d="M10.371 24.6629C10.7593 24.6629 11.0741 24.3481 11.0741 23.9598C11.0741 23.5715 10.7593 23.2567 10.371 23.2567C9.98265 23.2567 9.66785 23.5715 9.66785 23.9598C9.66785 24.3481 9.98265 24.6629 10.371 24.6629Z" fill="#F3F0F3"/>
<path d="M36.2438 45.1779H5.14523C4.75683 45.1779 4.44211 44.8631 4.44211 44.4748C4.44211 44.0865 4.75683 43.7717 5.14523 43.7717H36.2438C36.6322 43.7717 36.9469 44.0865 36.9469 44.4748C36.9469 44.8631 36.6321 45.1779 36.2438 45.1779Z" fill="#F3F0F3"/>
<path d="M36.2438 36.3942H27.4821V30.2081H36.2438C36.6322 30.2081 36.9469 29.8933 36.9469 29.505C36.9469 29.1167 36.6322 28.8019 36.2438 28.8019H5.14523C4.75683 28.8019 4.44211 29.1167 4.44211 29.505C4.44211 29.8933 4.75683 30.2081 5.14523 30.2081H13.9068V36.3941H5.14523C4.75683 36.3941 4.44211 36.7089 4.44211 37.0973C4.44211 37.4856 4.75683 37.8004 5.14523 37.8004H36.2438C36.6322 37.8004 36.9469 37.4856 36.9469 37.0973C36.9469 36.7089 36.6321 36.3942 36.2438 36.3942ZM15.3131 30.2081H26.0759V36.3941H15.3131V30.2081Z" fill="#918291"/>
<path d="M36.2438 40.1017H5.14523C4.75683 40.1017 4.44211 40.4165 4.44211 40.8048C4.44211 41.1931 4.75683 41.5079 5.14523 41.5079H36.2438C36.6322 41.5079 36.9469 41.1931 36.9469 40.8048C36.9469 40.4165 36.6321 40.1017 36.2438 40.1017Z" fill="#F3F0F3"/>
<path d="M11.4227 33.9265H7.46289C7.07448 33.9265 6.75977 33.6116 6.75977 33.2233C6.75977 32.835 7.07448 32.5202 7.46289 32.5202H11.4226C11.811 32.5202 12.1257 32.835 12.1257 33.2233C12.1257 33.6116 11.811 33.9265 11.4227 33.9265Z" fill="#F3F0F3"/>
<path d="M22.6745 32.7192H18.7148C18.3264 32.7192 18.0117 32.4044 18.0117 32.0161C18.0117 31.6278 18.3264 31.313 18.7148 31.313H22.6745C23.063 31.313 23.3777 31.6278 23.3777 32.0161C23.3777 32.4044 23.063 32.7192 22.6745 32.7192Z" fill="#F3F0F3"/>
<path d="M22.6745 35.1338H18.7148C18.3264 35.1338 18.0117 34.819 18.0117 34.4307C18.0117 34.0424 18.3264 33.7275 18.7148 33.7275H22.6745C23.063 33.7275 23.3777 34.0424 23.3777 34.4307C23.3777 34.819 23.063 35.1338 22.6745 35.1338Z" fill="#F3F0F3"/>
<path d="M34.3122 33.9265H30.3525C29.9641 33.9265 29.6494 33.6116 29.6494 33.2233C29.6494 32.835 29.9641 32.5202 30.3525 32.5202H34.3122C34.7006 32.5202 35.0153 32.835 35.0153 33.2233C35.0153 33.6116 34.7006 33.9265 34.3122 33.9265Z" fill="#F3F0F3"/>
</g>
<defs>
<clipPath id="clip0">
<rect width="48" height="48" fill="white"/>
</clipPath>
</defs>
</svg>
