<svg width="48" height="48" viewBox="0 0 48 48" fill="none" xmlns="http://www.w3.org/2000/svg">
<path d="M48 24C48 22.2143 47.1035 20.6384 45.736 19.6972C44.8203 19.0668 44.4975 17.8621 44.9753 16.8583C45.689 15.3594 45.6773 13.5464 44.7846 12C43.8918 10.4536 42.3274 9.537 40.6725 9.40556C39.5643 9.31753 38.6824 8.43563 38.5943 7.32741C38.463 5.67253 37.5464 4.10822 36 3.21534C34.4535 2.32247 32.6406 2.31094 31.1417 3.02456C30.1379 3.50241 28.9332 3.17963 28.3029 2.26388C27.3616 0.896531 25.7857 0 24 0C22.2143 0 20.6384 0.896531 19.6972 2.26397C19.0668 3.17972 17.8622 3.5025 16.8584 3.02466C15.3595 2.31113 13.5465 2.32266 12.0001 3.21544C10.4537 4.10831 9.53709 5.67263 9.40566 7.3275C9.31763 8.43572 8.43572 9.31763 7.3275 9.40566C5.67263 9.537 4.10822 10.4536 3.21544 12C2.32256 13.5465 2.31103 15.3594 3.02466 16.8583C3.5025 17.8621 3.17972 19.0668 2.26397 19.6972C0.896531 20.6384 0 22.2143 0 24C0 25.7857 0.896531 27.3616 2.26397 28.3028C3.17972 28.9332 3.5025 30.1379 3.02466 31.1417C2.31103 32.6406 2.32266 34.4536 3.21544 36C4.10831 37.5465 5.67263 38.463 7.3275 38.5944C8.43572 38.6825 9.31763 39.5644 9.40566 40.6726C9.53709 42.3275 10.4536 43.8918 12.0001 44.7847C13.5465 45.6775 15.3595 45.6891 16.8584 44.9754C17.8622 44.4976 19.0669 44.8204 19.6973 45.7361C20.6384 47.1035 22.2143 48 24 48C25.7857 48 27.3616 47.1035 28.3028 45.7361C28.9332 44.8204 30.1379 44.4976 31.1417 44.9754C32.6406 45.6891 34.4536 45.6774 36 44.7847C37.5464 43.8918 38.463 42.3275 38.5944 40.6726C38.6825 39.5644 39.5644 38.6825 40.6726 38.5944C42.3275 38.463 43.8918 37.5465 44.7847 36C45.6775 34.4535 45.6891 32.6406 44.9754 31.1417C44.4976 30.1379 44.8204 28.9332 45.7361 28.3028C47.1035 27.3616 48 25.7857 48 24Z" fill="#FEE45A"/>
<path d="M45.7359 19.6971C44.8207 19.067 44.4979 17.8627 44.9758 16.8587C45.6888 15.3596 45.6773 13.5463 44.785 11.9999C43.9689 10.5875 42.5932 9.70015 41.0998 9.45734C41.8051 9.89571 42.4149 10.5094 42.8581 11.2773C43.1567 11.7947 43.3644 12.3636 43.4717 12.9512C43.6772 14.0767 43.453 15.1627 43.0164 16.2091C42.921 16.438 42.8536 16.6729 42.797 16.9138C42.5187 18.099 43.1082 19.4589 43.9942 20.276C44.4398 20.687 44.9123 21.0747 45.3045 21.5396C45.9347 22.2865 46.157 23.1259 46.0114 24.0995C45.8029 25.4937 44.9648 26.7845 43.809 27.5801C42.8937 28.2102 42.5709 29.4155 43.0489 30.4195C43.7618 31.9177 43.7503 33.7309 42.8581 35.2773C41.6783 37.3223 39.007 36.4785 37.5474 37.9776C37.0338 38.5051 36.7257 39.2185 36.6678 39.9503C36.5957 40.8613 36.2786 41.7537 35.7619 42.5048C35.4619 42.9405 35.0293 43.2646 34.5434 43.4673C33.5033 43.9012 32.3115 43.5575 31.2622 43.348C30.0431 43.1046 28.8335 43.1206 27.7358 43.761C27.1994 44.0739 26.7283 44.5011 26.376 45.0132C25.4347 46.3812 23.8584 47.2773 22.0732 47.2773C21.7889 47.2773 21.5105 47.2542 21.2388 47.2108C22.0403 47.7109 22.9865 47.9999 24.0001 47.9999C25.7854 47.9999 27.3616 47.1039 28.3029 45.7358C28.933 44.8205 30.1384 44.4977 31.1413 44.9756C32.6405 45.6895 34.4537 45.6779 36.0001 44.7848C37.5465 43.8916 38.4627 42.328 38.5947 40.6727C38.6824 39.5647 39.564 38.6822 40.6729 38.5945C42.3272 38.4634 43.8918 37.5462 44.7849 35.9998C45.6771 34.4534 45.6887 32.6402 44.9757 31.142C44.4979 30.138 44.8206 28.9328 45.7358 28.3027C47.104 27.3614 48.0001 25.7861 48.0001 23.9999C48.0001 22.2146 47.104 20.6383 45.7359 19.6971Z" fill="#FED402"/>
<path d="M24.0001 40.6609C33.214 40.6609 40.6833 33.1916 40.6833 23.9777C40.6833 14.7638 33.214 7.29449 24.0001 7.29449C14.7862 7.29449 7.31689 14.7638 7.31689 23.9777C7.31689 33.1916 14.7862 40.6609 24.0001 40.6609Z" fill="#FAF7F7"/>
<path d="M40.6833 23.9777C40.6833 33.1913 33.2136 40.661 23.9999 40.661C21.0372 40.661 18.2567 39.8893 15.8452 38.5356C17.7624 39.3045 19.857 39.7274 22.0489 39.7274C31.2625 39.7274 38.7322 32.2586 38.7322 23.0449C38.7322 16.7901 35.2908 11.3398 30.1979 8.48407C36.3428 10.9439 40.6833 16.954 40.6833 23.9777Z" fill="#EDE1DD"/>
<path d="M21.4837 32.1022C21.4785 32.1022 21.4734 32.1022 21.4681 32.1021C20.7652 32.0976 20.0989 31.7885 19.6415 31.2549L14.7819 25.5853C13.9099 24.5681 14.0277 23.0364 15.0451 22.1643C16.0624 21.2922 17.594 21.4102 18.4661 22.4275L21.5073 25.9755L29.5542 16.6769C30.4392 15.6708 31.9722 15.5727 32.9783 16.4576C33.9845 17.3426 34.0826 18.8756 33.1977 19.8817L23.3054 31.2784C22.8446 31.8023 22.1809 32.1022 21.4837 32.1022Z" fill="#A2AEE6"/>
<path d="M33.1974 19.882L23.3054 31.2788C22.8449 31.802 22.1811 32.1026 21.4835 32.1026C21.4787 32.1026 21.4738 32.1026 21.4681 32.1017C20.7657 32.0978 20.099 31.7886 19.6414 31.2547L19.149 30.6805C19.3234 30.722 19.5036 30.7441 19.6866 30.745H19.702C20.3995 30.745 21.0633 30.4454 21.5239 29.9212L31.4168 18.5244C32.0748 17.7758 32.1885 16.7362 31.7896 15.8884C32.2165 15.9616 32.6298 16.1504 32.9786 16.4578C33.9845 17.3423 34.0828 18.8762 33.1974 19.882Z" fill="#8795DE"/>
</svg>
