<svg width="48" height="48" viewBox="0 0 48 48" fill="none" xmlns="http://www.w3.org/2000/svg">
<g clip-path="url(#clip0)">
<path d="M18.0793 35.2129L18.0007 42.0005C18.0007 45.3139 20.6867 47.9999 24 47.9999C27.3134 47.9999 29.9994 45.3139 29.9994 42.0005V35.4148L18.0793 35.2129Z" fill="#FDF5CB"/>
<path d="M11.243 18.456V29.7156C11.243 30.0933 11.1106 30.4589 10.8687 30.749L7.41594 34.8901C6.94285 35.4575 6.68367 36.173 6.68367 36.9117V39.2283C6.68367 39.9629 7.27916 40.5585 8.01384 40.5585H39.986C40.7206 40.5585 41.3161 39.963 41.3161 39.2283V36.9117C41.3161 36.1729 41.0571 35.4575 40.5839 34.8901L37.1311 30.749C36.8892 30.4589 36.7568 30.0932 36.7568 29.7156V18.456C36.7568 11.4105 31.0453 5.69897 23.9998 5.69897C16.9545 5.69897 11.243 11.4105 11.243 18.456Z" fill="#FBE88C"/>
<path d="M15.3851 37.8884C14.3145 37.8884 13.6599 36.6694 14.2926 35.8057C14.3069 35.7861 14.3215 35.7674 14.3363 35.7496L17.789 31.6085C18.0309 31.3184 18.1634 30.9527 18.1634 30.5751V19.3154C18.1634 15.1356 20.1738 11.4257 23.2803 9.09911C23.9316 8.61125 24.8785 8.88404 25.1462 9.65261C26.3328 13.0599 29.5754 15.5119 33.382 15.5119C34.4 15.5119 35.3777 15.3359 36.2867 15.0139C35.3288 11.5877 32.9756 8.74553 29.8792 7.13446H27.1217C27.7219 6.94748 28.3409 6.80298 28.9756 6.70587C27.4467 6.05768 25.7652 5.69897 24 5.69897C16.9545 5.69897 11.243 11.4105 11.243 18.456V29.7156C11.243 30.0933 11.1106 30.4589 10.8687 30.749L7.41594 34.8901C6.94285 35.4575 6.68367 36.173 6.68367 36.9118V39.2284C6.68367 39.963 7.27916 40.5586 8.01384 40.5586H39.986C40.7206 40.5586 41.3161 39.9631 41.3161 39.2284V37.8885H15.3851V37.8884Z" fill="#FBE372"/>
<path d="M33.382 13.5812C37.1323 13.5812 40.1726 10.541 40.1726 6.79062C40.1726 3.04026 37.1323 0 33.382 0C29.6316 0 26.5914 3.04026 26.5914 6.79062C26.5914 10.541 29.6316 13.5812 33.382 13.5812Z" fill="#E5827F"/>
<path d="M29.7637 6.29446C29.7637 3.46964 31.4904 1.04686 33.9444 0.0234565C33.7592 0.00820496 33.5711 0 33.382 0C29.6316 0 26.5914 3.04028 26.5914 6.79062C26.5914 10.541 29.6316 13.5812 33.382 13.5812C34.3075 13.5812 35.1911 13.3955 35.9952 13.0602C32.5074 12.7749 29.7637 9.8558 29.7637 6.29446Z" fill="#DE6A66"/>
</g>
<defs>
<clipPath id="clip0">
<rect width="48" height="48" fill="white"/>
</clipPath>
</defs>
</svg>
