<svg width="48" height="48" viewBox="0 0 48 48" fill="none" xmlns="http://www.w3.org/2000/svg">
<g clip-path="url(#clip0)">
<path d="M46.1451 4.84625H1.85494C0.830437 4.84625 0 5.67669 0 6.70109V10.5849C0 9.56047 0.830437 13.559 1.85494 13.559H46.1452C47.1696 13.559 48.0001 9.56037 48.0001 10.5849V6.70109C48 5.67669 47.1696 4.84625 46.1451 4.84625Z" fill="#707DD3"/>
<path d="M46.1451 7.04175H1.85494C0.830437 7.04175 0 7.87228 0 8.89669V10.5848C0 9.56044 0.830437 12.5932 1.85494 12.5932H46.1452C47.1696 12.5932 48.0001 9.56034 48.0001 10.5848V8.89669C48 7.87228 47.1696 7.04175 46.1451 7.04175Z" fill="#5766CB"/>
<path d="M46.1451 8.73004H1.85494C0.830437 8.73004 0 9.56048 0 10.585V37.1562C0 38.1806 0.830437 39.0111 1.85494 39.0111H9.22425C9.43303 39.0111 9.62588 39.1225 9.73031 39.3032L11.7848 42.8617C12.0098 43.2512 12.572 43.2512 12.7969 42.8617L14.8514 39.3032C14.9557 39.1225 15.1487 39.0111 15.3575 39.0111H46.1452C47.1697 39.0111 48.0002 38.1807 48.0002 37.1562V10.585C48 9.56048 47.1696 8.73004 46.1451 8.73004Z" fill="#80B4FB"/>
<path d="M12.2889 39.3032L11.0095 41.5191L11.7846 42.8616C12.0095 43.2512 12.5717 43.2512 12.7966 42.8616L14.8512 39.3032C14.9555 39.1224 15.1484 39.011 15.3572 39.011H12.7949C12.5862 39.011 12.3933 39.1223 12.2889 39.3032Z" fill="#61A2F9"/>
<path d="M46.1452 8.73004H43.5829C44.6074 8.73004 45.4379 9.56048 45.4379 10.585V37.1562C45.4379 38.1806 44.6074 39.0111 43.5829 39.0111H46.1452C47.1696 39.0111 48.0002 38.1807 48.0002 37.1562V10.585C48.0002 9.56048 47.1697 8.73004 46.1452 8.73004Z" fill="#61A2F9"/>
<path d="M19.17 28.8644H15.1647C14.264 28.8644 13.5338 28.1342 13.5338 27.2334V20.5077C13.5338 19.6069 14.264 18.8767 15.1647 18.8767H19.17V28.8644Z" fill="#D3EFFB"/>
<path d="M17.2264 18.8768H19.1699V28.8643H17.2264V18.8768Z" fill="#B1E4F9"/>
<path d="M19.1699 28.8644L25.5727 32.6729C26.1916 33.041 26.9759 32.5949 26.9759 31.8748V15.8663C26.9759 15.1461 26.1916 14.7 25.5727 15.0682L19.1699 18.8767V28.8644Z" fill="#D3EFFB"/>
<path d="M25.5728 15.0683L24.7941 15.5315C24.8335 15.6341 24.8571 15.7459 24.8571 15.8664V31.8747C24.8571 31.9952 24.8335 32.1071 24.7941 32.2096L25.5728 32.6728C26.1918 33.041 26.9761 32.5949 26.9761 31.8747V15.8664C26.9761 15.1461 26.1918 14.7001 25.5728 15.0683Z" fill="#B1E4F9"/>
<path d="M34.4662 24.5949H32.4211C32.021 24.5949 31.6967 24.2706 31.6967 23.8705C31.6967 23.4703 32.021 23.1461 32.4211 23.1461H34.4662C34.8664 23.1461 35.1906 23.4703 35.1906 23.8705C35.1906 24.2706 34.8663 24.5949 34.4662 24.5949Z" fill="#365E7D"/>
<path d="M30.6496 18.9756C30.4444 18.9756 30.2406 18.8889 30.0974 18.7205C29.8382 18.4157 29.8753 17.9586 30.1801 17.6994L31.6263 16.47C31.9309 16.2108 32.3882 16.248 32.6473 16.5527C32.9065 16.8575 32.8694 17.3146 32.5646 17.5737L31.1184 18.8031C30.9821 18.919 30.8153 18.9756 30.6496 18.9756Z" fill="#365E7D"/>
<path d="M32.0946 31.4436C31.9287 31.4436 31.7621 31.3869 31.6258 31.2711L30.1797 30.0416C29.8748 29.7825 29.8378 29.3254 30.097 29.0206C30.3561 28.7157 30.8132 28.6786 31.118 28.9379L32.5642 30.1674C32.8691 30.4265 32.9061 30.8836 32.6469 31.1884C32.5036 31.3569 32.2998 31.4436 32.0946 31.4436Z" fill="#365E7D"/>
<path d="M22.0988 26.1277C21.6988 26.1277 21.3744 25.8035 21.3744 25.4033V22.3376C21.3744 21.9375 21.6987 21.6132 22.0988 21.6132C22.4989 21.6132 22.8232 21.9375 22.8232 22.3376V25.4033C22.8232 25.8035 22.4989 26.1277 22.0988 26.1277Z" fill="#365E7D"/>
</g>
<defs>
<clipPath id="clip0">
<rect width="48" height="48" fill="white"/>
</clipPath>
</defs>
</svg>
