<svg width="48" height="48" viewBox="0 0 48 48" fill="none" xmlns="http://www.w3.org/2000/svg">
<g clip-path="url(#clip0)">
<path d="M41.0048 33.1961C38.1545 33.1961 35.8439 30.8855 35.8439 28.0352C35.8439 25.1849 38.1545 22.8743 41.0048 22.8743C43.8551 22.8743 46.1657 25.1849 46.1657 28.0352C46.1657 30.8856 43.8551 33.1961 41.0048 33.1961Z" fill="#5A5A5A"/>
<path d="M41.0045 22.8743C40.5295 22.8743 40.07 22.9398 39.6331 23.06C41.8175 23.6608 43.4227 25.6599 43.4227 28.0352C43.4227 30.4104 41.8175 32.4096 39.6331 33.0104C40.07 33.1306 40.5295 33.196 41.0045 33.196C43.8548 33.196 46.1655 30.8854 46.1655 28.0351C46.1655 25.185 43.8548 22.8743 41.0045 22.8743Z" fill="#444444"/>
<path d="M47.7449 43.3359H23.7493V36.0378C23.7493 33.9537 25.4387 32.2643 27.5228 32.2643H43.9715C46.0556 32.2643 47.745 33.9537 47.745 36.0378V43.3359H47.7449Z" fill="#C0D6F2"/>
<path d="M43.9717 32.2643H41.5033C43.5874 32.2643 45.2768 33.9537 45.2768 36.0378V43.3359H47.7453V36.0378C47.7452 33.9537 46.0557 32.2643 43.9717 32.2643Z" fill="#B2CAEC"/>
<path d="M27.5771 32.2643H43.9173V43.3359H27.5771V32.2643Z" fill="#528FD8"/>
<path d="M10.208 7.37982H5.27211C3.02764 7.37982 1.26579 9.21545 1.46295 11.3484L2.29358 20.3365H10.208V7.37982Z" fill="#D77F4A"/>
<path d="M20.1082 32.5869C19.436 32.5869 4.28944 32.5869 3.61247 32.5869H3.50156C1.56769 32.5869 0 34.1546 0 36.0884V43.3358H23.7477V36.0884C23.7477 34.2796 22.3528 32.5869 20.1082 32.5869Z" fill="#0AB69F"/>
<path d="M11.8737 33.7263L8.21916 31.2753L6.00731 32.3409C5.76122 32.4594 5.71078 32.788 5.90981 32.9751L8.90119 35.7846C9.0451 35.9198 9.26756 35.9257 9.41841 35.7984L11.8737 33.7263Z" fill="#C0D6F2"/>
<path d="M11.8737 33.7263L15.5283 31.2753L17.7401 32.3409C17.9862 32.4594 18.0367 32.788 17.8376 32.9751L14.8462 35.7846C14.7023 35.9198 14.4799 35.9257 14.329 35.7984L11.8737 33.7263Z" fill="#C0D6F2"/>
<path d="M15.5285 23.7927H8.21927V31.2753L11.8738 33.7263L15.5285 31.2753V23.7927Z" fill="#FFB09E"/>
<path d="M20.1083 32.5869C19.9312 32.5869 18.7487 32.5869 17.0913 32.5869C19.336 32.5869 20.7308 34.2796 20.7308 36.0884V43.3358H23.7478V36.0884C23.7478 34.2796 22.3529 32.5869 20.1083 32.5869Z" fill="#01998D"/>
<path d="M17.7402 32.3409L15.5283 31.2753L14.3818 32.0443L14.9975 32.3409C15.2436 32.4594 15.294 32.788 15.095 32.9751L13.1491 34.8026L14.3291 35.7983C14.48 35.9256 14.7024 35.9198 14.8463 35.7845L17.8377 32.975C18.0367 32.788 17.9862 32.4594 17.7402 32.3409Z" fill="#B2CAEC"/>
<path d="M8.21927 30.6495C9.31324 31.1409 10.5264 31.4146 11.8034 31.4146H11.9182C13.2054 31.4146 14.4277 31.1367 15.5285 30.6379V23.5185H8.21927V30.6495Z" fill="#FFA78F"/>
<path d="M40.6253 36.0294H31.2103C30.9094 36.0294 30.6656 35.7855 30.6656 35.4847V32.2643H41.17V35.4847C41.17 35.7854 40.9262 36.0294 40.6253 36.0294Z" fill="#82AEE3"/>
<path d="M35.8438 36.0294C33.7648 36.0294 32.0795 34.3441 32.0795 32.2652V23.2062H39.6081V32.2652C39.6082 34.3441 37.9228 36.0294 35.8438 36.0294Z" fill="#FFB09E"/>
<path d="M32.0793 31.8064C33.2232 32.327 34.4941 32.6172 35.8327 32.6172C37.18 32.6172 38.4584 32.3231 39.6079 31.7963V23.2062H32.0793V31.8064Z" fill="#FFA78F"/>
<path d="M31.3953 23.1246H26.743C25.0402 23.1246 23.6596 21.7442 23.6596 20.0412C23.6596 18.3383 25.0401 16.9578 26.743 16.9578H31.3953V23.1246Z" fill="#FFB09E"/>
<path d="M40.2645 16.9579H44.9167C46.6196 16.9579 48.0002 18.3384 48.0002 20.0413C48.0002 21.7442 46.6197 23.1248 44.9167 23.1248H40.2645V16.9579Z" fill="#FFA78F"/>
<path d="M35.8327 30.6973C30.823 30.6973 26.7617 26.6361 26.7617 21.6263V18.46C26.7617 13.4503 30.8229 9.38904 35.8327 9.38904C40.8424 9.38904 44.9037 13.4502 44.9037 18.46V21.6263C44.9037 26.6361 40.8424 30.6973 35.8327 30.6973Z" fill="#FFCEBF"/>
<path d="M35.8327 9.38904C35.414 9.38904 35.0021 9.41801 34.5985 9.47294C39.0244 10.0751 42.4353 13.8689 42.4353 18.46V21.6263C42.4353 26.2174 39.0244 30.0111 34.5985 30.6134C35.0021 30.6683 35.414 30.6973 35.8327 30.6973C40.8424 30.6973 44.9037 26.6361 44.9037 21.6263V18.46C44.9037 13.4503 40.8424 9.38904 35.8327 9.38904Z" fill="#FFB09E"/>
<path d="M35.8327 30.6973C30.823 30.6973 26.7617 26.6361 26.7617 21.6263V18.46C26.7617 13.4503 30.8229 9.38904 35.8327 9.38904C40.8424 9.38904 44.9037 13.4502 44.9037 18.46V21.6263C44.9037 26.6361 40.8424 30.6973 35.8327 30.6973Z" fill="#FFCEBF"/>
<path d="M35.8298 27.0308C34.3657 27.0308 33.1746 25.8397 33.1746 24.3756C33.1746 23.9748 33.4995 23.6499 33.9003 23.6499C34.3011 23.6499 34.626 23.9747 34.626 24.3756C34.626 25.0394 35.166 25.5794 35.8298 25.5794C36.4935 25.5794 37.0335 25.0394 37.0335 24.3756C37.0335 23.9748 37.3585 23.6499 37.7592 23.6499C38.16 23.6499 38.485 23.9747 38.485 24.3756C38.4849 25.8397 37.2938 27.0308 35.8298 27.0308Z" fill="#FFA799"/>
<path d="M40.2644 22.2615C39.8636 22.2615 39.5387 21.9366 39.5387 21.5358V19.8628C39.5387 19.462 39.8636 19.1371 40.2644 19.1371H40.9837C41.3844 19.1371 41.7094 19.4619 41.7094 19.8628C41.7094 20.2614 41.3879 20.585 40.9901 20.5885V21.5359C40.99 21.9366 40.6652 22.2615 40.2644 22.2615Z" fill="#5A5A5A"/>
<path d="M31.3952 22.2615C30.9944 22.2615 30.6695 21.9367 30.6695 21.5358V20.5885C30.2716 20.585 29.9503 20.2615 29.9503 19.8627C29.9503 19.462 30.2752 19.137 30.676 19.137H31.3952C31.796 19.137 32.1209 19.4619 32.1209 19.8627V21.5358C32.1209 21.9367 31.796 22.2615 31.3952 22.2615Z" fill="#5A5A5A"/>
<path d="M35.8327 9.38904C35.4613 9.38904 35.0953 9.41191 34.7357 9.45523C39.228 9.99691 42.7095 13.8215 42.7095 18.4599V21.6262C42.7095 26.2646 39.2279 30.0893 34.7357 30.6309C35.0954 30.6743 35.4614 30.6971 35.8327 30.6971C40.8425 30.6971 44.9037 26.6359 44.9037 21.6261V18.4598C44.9037 13.4503 40.8425 9.38904 35.8327 9.38904Z" fill="#FFB09E"/>
<path d="M27.5945 16.9579H25.1444V15.2224C25.1444 9.97276 29.4001 5.71716 34.6496 5.71716H34.676C35.6489 5.71716 36.4376 6.50588 36.4376 7.47882V8.11473C36.4376 12.9986 32.4785 16.9579 27.5945 16.9579Z" fill="#5A5A5A"/>
<path d="M46.1655 16.9579H36.1149C32.5051 16.9579 29.5788 14.0316 29.5788 10.4218C29.5788 7.82354 31.6852 5.71716 34.2835 5.71716H37.0944C42.1041 5.71716 46.1654 9.77832 46.1654 14.7881V16.9579H46.1655Z" fill="#5A5A5A"/>
<path d="M37.0946 5.71716H34.3519C39.3616 5.71716 43.4228 9.77841 43.4228 14.7881V16.958H46.1656V14.7881C46.1656 9.77832 42.1043 5.71716 37.0946 5.71716Z" fill="#444444"/>
<path d="M42.1354 24.3757H40.6068C40.206 24.3757 39.881 24.0509 39.881 23.65C39.881 23.2491 40.206 22.9243 40.6068 22.9243H42.1354C42.5361 22.9243 42.8611 23.2491 42.8611 23.65C42.8611 24.0509 42.5361 24.3757 42.1354 24.3757Z" fill="#FE8F83"/>
<path d="M30.8973 24.3757H29.3687C28.9679 24.3757 28.643 24.0509 28.643 23.65C28.643 23.2491 28.9679 22.9243 29.3687 22.9243H30.8973C31.2981 22.9243 31.623 23.2491 31.623 23.65C31.623 24.0509 31.2981 24.3757 30.8973 24.3757Z" fill="#FE8F83"/>
<path d="M7.55497 22.6883H3.03679C1.38435 22.6883 0.044754 21.3487 0.044754 19.6963C0.044754 18.0438 1.38435 16.7042 3.03679 16.7042H7.55497V22.6883Z" fill="#FFB09E"/>
<path d="M16.1658 16.7042H20.6786C22.3311 16.7042 23.6707 18.0438 23.6707 19.6963C23.6707 21.3487 22.3311 22.6883 20.6786 22.6883H16.1658V16.7042Z" fill="#FFA78F"/>
<path d="M11.9182 30.0432H11.8034C6.9679 30.0432 3.04784 26.1232 3.04784 21.2876V18.1046C3.04784 13.2691 6.96781 9.349 11.8034 9.349H11.9182C16.7537 9.349 20.6738 13.269 20.6738 18.1046V21.2876C20.6737 26.1232 16.7537 30.0432 11.9182 30.0432Z" fill="#FFCEBF"/>
<path d="M11.9182 9.34912H11.8035C11.4517 9.34912 11.1048 9.3705 10.7638 9.41081C15.1092 9.92503 18.4796 13.6209 18.4796 18.1046V21.2876C18.4796 25.7713 15.1092 29.4672 10.7638 29.9814C11.1048 30.0217 11.4517 30.0431 11.8035 30.0431H11.9182C16.7538 30.0431 20.6738 26.1232 20.6738 21.2876V18.1046C20.6737 13.2692 16.7538 9.34912 11.9182 9.34912Z" fill="#FFB09E"/>
<path d="M18.2574 24.3757H16.7288C16.328 24.3757 16.0031 24.0509 16.0031 23.65C16.0031 23.2491 16.328 22.9243 16.7288 22.9243H18.2574C18.6581 22.9243 18.9831 23.2491 18.9831 23.65C18.9831 24.0509 18.6581 24.3757 18.2574 24.3757Z" fill="#FE8F83"/>
<path d="M7.01905 24.3757H5.49046C5.08968 24.3757 4.76474 24.0509 4.76474 23.65C4.76474 23.2491 5.08968 22.9243 5.49046 22.9243H7.01905C7.41983 22.9243 7.74477 23.2491 7.74477 23.65C7.74477 24.0509 7.41983 24.3757 7.01905 24.3757Z" fill="#FE8F83"/>
<path d="M20.3316 7.58484C19.6303 5.87156 17.9475 4.66406 15.9818 4.66406H8.85875C5.96132 4.66406 3.6125 7.01287 3.6125 9.91031C3.6125 13.5959 6.54782 16.5939 10.2079 16.6991V16.7042H22.3341L22.8305 11.3329C22.9872 9.63853 21.9072 8.13291 20.3316 7.58484Z" fill="#D77F4A"/>
<path d="M20.3316 7.58484C19.6303 5.87156 17.9475 4.66406 15.9818 4.66406H12.9648C14.9305 4.66406 16.6134 5.87156 17.3146 7.58484C18.8902 8.13291 19.9702 9.63853 19.8136 11.3329L19.3172 16.7042H22.3342L22.8306 11.3329C22.9871 9.63853 21.9071 8.13291 20.3316 7.58484Z" fill="#C86D36"/>
<path d="M11.7832 26.5047C10.3501 26.5047 9.18427 25.3388 9.18427 23.9058C9.18427 23.505 9.5092 23.1801 9.90998 23.1801C10.3108 23.1801 10.6357 23.5049 10.6357 23.9058C10.6357 24.5386 11.1505 25.0534 11.7833 25.0534C12.4161 25.0534 12.9309 24.5386 12.9309 23.9058C12.9309 23.505 13.2558 23.1801 13.6566 23.1801C14.0574 23.1801 14.3823 23.5049 14.3823 23.9058C14.3821 25.3388 13.2163 26.5047 11.7832 26.5047Z" fill="#FFA799"/>
<path d="M7.47789 21.8744C7.0771 21.8744 6.75217 21.5496 6.75217 21.1487V19.5244C6.75217 19.1236 7.0771 18.7986 7.47789 18.7986C7.87867 18.7986 8.2036 19.1235 8.2036 19.5244V21.1487C8.2036 21.5496 7.87867 21.8744 7.47789 21.8744Z" fill="#5A5A5A"/>
<path d="M16.0887 21.8744C15.6879 21.8744 15.3629 21.5496 15.3629 21.1487V19.5244C15.3629 19.1236 15.6879 18.7986 16.0887 18.7986C16.4894 18.7986 16.8144 19.1235 16.8144 19.5244V21.1487C16.8143 21.5496 16.4894 21.8744 16.0887 21.8744Z" fill="#5A5A5A"/>
</g>
<defs>
<clipPath id="clip0">
<rect width="48" height="48" fill="white"/>
</clipPath>
</defs>
</svg>
