<svg width="24" height="24" viewBox="0 0 24 24" fill="none" xmlns="http://www.w3.org/2000/svg">
<path d="M22.1753 7.92084L20.2831 6.02869L18.3508 7.96102C18.1973 8.11448 17.9518 8.12705 17.7849 7.98825C16.9001 7.25208 15.8727 6.68152 14.7502 6.32395C14.5747 6.26798 14.4545 6.10622 14.4545 5.92191V1.63378L13.4533 0.667969H10.184L9.54548 1.63378V5.92186C9.54548 6.10617 9.42539 6.26798 9.24975 6.32391C8.12728 6.68152 7.09987 7.25208 6.21506 7.9882C6.04818 8.12705 5.8027 8.11448 5.64918 7.96097L3.71686 6.02864L1.8247 7.9208L3.9945 10.0906C4.12795 10.224 4.15514 10.4292 4.06415 10.5946C3.36365 11.8684 2.96057 13.3287 2.94937 14.8824C2.91332 19.8829 6.98531 23.9923 11.9858 24C16.991 24.0077 21.0509 19.9525 21.0509 14.9491C21.0509 13.3705 20.6463 11.8866 19.9358 10.5946C19.8449 10.4293 19.8721 10.2242 20.0055 10.0907L22.1753 7.92084Z" fill="#D3EFFB"/>
<path d="M9.54548 1.63379H14.4545V2.4976H9.54548V1.63379Z" fill="#BED8FB"/>
<path d="M20.0054 10.0906L22.1753 7.92072L20.2831 6.02856L19.6468 6.66489L20.2707 7.2888C20.6456 7.6637 20.6456 8.27153 20.2707 8.64644L18.7797 10.1375C18.6463 10.2709 18.619 10.476 18.71 10.6413C19.4205 11.9333 19.8251 13.4173 19.8251 14.9959C19.8251 19.6698 16.2822 23.5157 11.7356 23.9958C11.8187 23.9982 11.9021 23.9997 11.9858 23.9999C16.991 24.0076 21.0509 19.9524 21.0509 14.949C21.0509 13.3704 20.6463 11.8864 19.9357 10.5945C19.8448 10.4291 19.872 10.224 20.0054 10.0906Z" fill="#BED8FB"/>
<path d="M15.1033 1.63378H8.89667C8.73697 1.63378 8.6075 1.50431 8.6075 1.34461V0.289172C8.6075 0.129469 8.73697 0 8.89667 0H15.1033C15.263 0 15.3924 0.129469 15.3924 0.289172V1.34461C15.3925 1.50431 15.263 1.63378 15.1033 1.63378Z" fill="#9DC6FB"/>
<path d="M15.1033 0H14.1653C14.325 0 14.4545 0.129469 14.4545 0.289172V1.34461C14.4545 1.50431 14.325 1.63378 14.1653 1.63378H15.1033C15.263 1.63378 15.3925 1.50431 15.3925 1.34461V0.289172C15.3925 0.129469 15.263 0 15.1033 0V0Z" fill="#80B4FB"/>
<path d="M4.89586 12.8461C4.67714 13.5831 4.57003 14.3676 4.59496 15.1802C4.71473 19.0856 7.88582 22.2471 11.7916 22.3549C15.9715 22.4703 19.4086 19.1036 19.4086 14.9492C19.4086 14.2179 19.3018 13.5111 19.1033 12.8435C19.0236 12.5752 18.73 12.4331 18.4698 12.5362C17.8394 12.7859 16.6528 13.1818 15.4662 13.1818C13.733 13.1818 13.733 12.3372 11.9998 12.3372C10.2667 12.3372 10.2667 13.1818 8.53354 13.1818C7.34714 13.1818 6.16068 12.7859 5.53026 12.5362C5.26907 12.4328 4.97578 12.5768 4.89586 12.8461Z" fill="#DD5790"/>
<path d="M19.1033 12.8434C19.0236 12.5752 18.73 12.4331 18.4698 12.5361C18.2356 12.6289 17.9245 12.7418 17.5652 12.8472C17.7629 13.5138 17.8694 14.2192 17.8694 14.9491C17.8694 18.7744 14.9553 21.9316 11.2305 22.3179C11.4156 22.3371 11.6027 22.3496 11.7915 22.3549C15.9714 22.4702 19.4085 19.1035 19.4085 14.9491C19.4086 14.2179 19.3018 13.5111 19.1033 12.8434Z" fill="#DA387D"/>
<path d="M7.34965 15.7704C7.14964 15.7704 6.9875 15.6083 6.9875 15.4082V15.0143C6.9875 14.8142 7.14964 14.6521 7.34965 14.6521C7.54967 14.6521 7.71181 14.8142 7.71181 15.0143V15.4082C7.71181 15.6083 7.54967 15.7704 7.34965 15.7704Z" fill="#DA387D"/>
<path d="M13.8301 16.0236C13.63 16.0236 13.4679 15.8614 13.4679 15.6614V15.2674C13.4679 15.0674 13.63 14.9053 13.8301 14.9053C14.0301 14.9053 14.1922 15.0674 14.1922 15.2674V15.6614C14.1922 15.8615 14.0301 16.0236 13.8301 16.0236Z" fill="#DA387D"/>
<path d="M9.71898 17.36C9.51896 17.36 9.35682 17.1979 9.35682 16.9978V16.6039C9.35682 16.4038 9.51896 16.2417 9.71898 16.2417C9.91899 16.2417 10.0811 16.4038 10.0811 16.6039V16.9978C10.0812 17.1979 9.91899 17.36 9.71898 17.36Z" fill="#DA387D"/>
<path d="M16.0995 18.7531C15.8994 18.7531 15.7374 18.5909 15.7374 18.3909V17.9969C15.7374 17.7969 15.8995 17.6348 16.0995 17.6348C16.2995 17.6348 16.4617 17.7969 16.4617 17.9969V18.3909C16.4617 18.5909 16.2996 18.7531 16.0995 18.7531Z" fill="#DA387D"/>
<path d="M11.4395 20.2267C11.2395 20.2267 11.0773 20.0646 11.0773 19.8645V19.4706C11.0773 19.2705 11.2395 19.1084 11.4395 19.1084C11.6395 19.1084 11.8017 19.2705 11.8017 19.4706V19.8645C11.8017 20.0646 11.6396 20.2267 11.4395 20.2267Z" fill="#DA387D"/>
<path d="M1.32356 8.78407C1.23089 8.78407 1.13817 8.74868 1.06748 8.67799C0.926011 8.53657 0.926011 8.30726 1.06748 8.16579L3.96192 5.27135C4.10334 5.12993 4.33265 5.12993 4.47412 5.27135C4.61559 5.41277 4.61559 5.64208 4.47412 5.78355L1.57968 8.67799C1.5089 8.74868 1.41623 8.78407 1.32356 8.78407Z" fill="#9DC6FB"/>
<path d="M22.6764 8.78434C22.5837 8.78434 22.491 8.74899 22.4203 8.67826L19.5259 5.78382C19.3845 5.64239 19.3845 5.41308 19.5259 5.27161C19.6674 5.13014 19.8967 5.13019 20.0382 5.27161L22.9325 8.16605C23.074 8.30748 23.074 8.53679 22.9325 8.67826C22.8618 8.74895 22.7691 8.78434 22.6764 8.78434Z" fill="#9DC6FB"/>
</svg>
