<svg width="24" height="24" viewBox="0 0 24 24" fill="none" xmlns="http://www.w3.org/2000/svg">
<path d="M18.0602 15.0524C19.3942 15.0524 20.4756 13.971 20.4756 12.6371C20.4756 11.3031 19.3942 10.2217 18.0602 10.2217C16.7263 10.2217 15.6449 11.3031 15.6449 12.6371C15.6449 13.971 16.7263 15.0524 18.0602 15.0524Z" fill="#E28086"/>
<path d="M12.1391 18.7261C15.8783 18.7261 18.9094 15.695 18.9094 11.9558C18.9094 8.21671 15.8783 5.18555 12.1391 5.18555C8.4 5.18555 5.36884 8.21671 5.36884 11.9558C5.36884 15.695 8.4 18.7261 12.1391 18.7261Z" fill="#ECBE6B"/>
<path d="M16.545 1.34821L16.6675 0.728003C16.7584 0.267972 16.3172 -0.11795 15.8734 0.033409L13.1293 0.969128C12.6856 1.12044 12.572 1.69541 12.9249 2.00413L15.1069 3.91297C15.4599 4.22174 16.0147 4.0326 16.1056 3.57257L16.2129 3.02957C19.6975 4.61596 21.984 8.11832 21.984 12C21.984 12.4624 22.3588 12.8373 22.8213 12.8373C23.2837 12.8373 23.6585 12.4624 23.6585 12C23.6586 7.32603 20.8247 3.12191 16.545 1.34821Z" fill="#95D6A4"/>
<path d="M11.3369 21.996L9.15485 20.0871C8.80193 19.7784 8.24712 19.9675 8.15623 20.4275L8.04893 20.9705C4.56429 19.3842 2.27777 15.8818 2.27777 12.0001C2.27777 11.5377 1.90291 11.1628 1.44049 11.1628C0.978071 11.1628 0.603165 11.5377 0.603165 12.0001C0.603165 16.6741 3.43709 20.8782 7.71673 22.6519L7.5942 23.2721C7.50331 23.7321 7.94454 24.1181 8.38835 23.9667L11.1324 23.031C11.5762 22.8797 11.6898 22.3047 11.3369 21.996Z" fill="#95D6A4"/>
<path d="M13.6269 18.5617C13.1484 18.6694 12.6502 18.7261 12.1392 18.7261C8.39988 18.7261 5.36884 15.6951 5.36884 11.9557C5.36884 8.21633 8.39988 5.1853 12.1392 5.1853C12.6502 5.1853 13.1484 5.24197 13.6269 5.34965C10.6031 6.02704 8.34424 8.72737 8.34424 11.9557C8.34424 15.184 10.6031 17.8843 13.6269 18.5617Z" fill="#EAB14D"/>
<path d="M15.8223 10.0485C17.1563 10.0485 18.2377 8.96712 18.2377 7.63315C18.2377 6.29917 17.1563 5.21777 15.8223 5.21777C14.4884 5.21777 13.407 6.29917 13.407 7.63315C13.407 8.96712 14.4884 10.0485 15.8223 10.0485Z" fill="#E28086"/>
<path d="M16.4905 9.95472C16.2783 10.016 16.0542 10.0485 15.8224 10.0485C14.4882 10.0485 13.407 8.96669 13.407 7.633C13.407 6.2988 14.4882 5.21753 15.8224 5.21753C16.0542 5.21753 16.2783 5.24997 16.4905 5.31128C15.4814 5.60078 14.7432 6.53059 14.7432 7.633C14.7432 8.73489 15.4814 9.66522 16.4905 9.95472Z" fill="#DD636E"/>
<path d="M6.25451 11.586C7.73698 11.586 8.93876 10.3842 8.93876 8.90178C8.93876 7.41931 7.73698 6.21753 6.25451 6.21753C4.77204 6.21753 3.57026 7.41931 3.57026 8.90178C3.57026 10.3842 4.77204 11.586 6.25451 11.586Z" fill="#E28086"/>
<path d="M6.92223 11.5023C6.70895 11.5574 6.48489 11.5862 6.25412 11.5862C4.77156 11.5862 3.57029 10.3844 3.57029 8.90187C3.57029 7.41931 4.77156 6.21753 6.25412 6.21753C6.48489 6.21753 6.709 6.24636 6.92223 6.30148C5.76268 6.5982 4.906 7.65008 4.906 8.90187C4.906 10.1537 5.76264 11.2055 6.92223 11.5023Z" fill="#DD636E"/>
<path d="M13.3416 19.9682C15.3037 19.9682 16.8943 18.3776 16.8943 16.4155C16.8943 14.4534 15.3037 12.8628 13.3416 12.8628C11.3795 12.8628 9.78892 14.4534 9.78892 16.4155C9.78892 18.3776 11.3795 19.9682 13.3416 19.9682Z" fill="#E28086"/>
<path d="M14.1717 19.8703C13.9054 19.9342 13.6277 19.9682 13.3418 19.9682C11.3797 19.9682 9.78896 18.3775 9.78896 16.4154C9.78896 14.4532 11.3797 12.863 13.3418 12.863C13.6277 12.863 13.9054 12.897 14.1717 12.9609C12.6103 13.3344 11.4492 14.7392 11.4492 16.4154C11.4492 18.0916 12.6103 19.4969 14.1717 19.8703Z" fill="#DD636E"/>
<path d="M21.2695 15.5068L21.2405 15.615C21.1383 15.9966 21.3489 16.3922 21.7227 16.5204L22.8722 16.9145C23.284 17.0557 23.7292 16.8186 23.8418 16.3981L23.9139 16.1293C24.0265 15.7088 23.7595 15.2809 23.3324 15.1973L22.1398 14.9638C21.7521 14.8879 21.3718 15.1252 21.2695 15.5068Z" fill="#F9F6F6"/>
<path d="M19.4331 18.7455L19.3539 18.8247C19.0745 19.1041 19.0592 19.5521 19.3188 19.8499L20.1173 20.7659C20.4033 21.0941 20.9073 21.1114 21.2152 20.8035L21.412 20.6067C21.7198 20.2989 21.7025 19.7948 21.3744 19.5088L20.4583 18.7103C20.1605 18.4508 19.7125 18.4662 19.4331 18.7455Z" fill="#F9F6F6"/>
<path d="M16.2234 20.6322L16.1152 20.6612C15.7336 20.7634 15.4963 21.1437 15.5722 21.5314L15.8057 22.724C15.8893 23.1512 16.3172 23.4182 16.7377 23.3055L17.0065 23.2335C17.427 23.1209 17.6641 22.6756 17.5229 22.2639L17.1288 21.1143C17.0007 20.7406 16.6051 20.5299 16.2234 20.6322Z" fill="#F9F6F6"/>
<path d="M2.73048 8.00084L2.7595 7.89265C2.86173 7.51104 2.65107 7.11542 2.27734 6.98726L1.12778 6.59314C0.716028 6.45195 0.27081 6.68904 0.158169 7.10951L0.0861221 7.37838C-0.0265186 7.79885 0.240481 8.22677 0.667653 8.3104L1.86025 8.54384C2.24795 8.61973 2.62825 8.38249 2.73048 8.00084Z" fill="#F9F6F6"/>
<path d="M4.5669 4.76206L4.64612 4.68284C4.9255 4.40347 4.94082 3.95553 4.68123 3.65769L3.88271 2.74161C3.59673 2.41349 3.09264 2.39619 2.78481 2.70402L2.58798 2.90084C2.2802 3.20863 2.29745 3.71272 2.62557 3.99875L3.54165 4.79722C3.83954 5.05677 4.28753 5.04144 4.5669 4.76206Z" fill="#F9F6F6"/>
<path d="M7.77657 2.87548L7.88476 2.84646C8.26637 2.74423 8.50365 2.36393 8.42776 1.97623L8.19432 0.783633C8.1107 0.356462 7.68278 0.0894616 7.26231 0.202102L6.99343 0.274149C6.57296 0.38679 6.33587 0.832008 6.47706 1.24376L6.87118 2.39332C6.99934 2.76701 7.39496 2.97771 7.77657 2.87548Z" fill="#F9F6F6"/>
</svg>
