<svg width="18" height="24" viewBox="0 0 18 24" fill="none" xmlns="http://www.w3.org/2000/svg">
<path d="M6.03972 17.6064L6.00039 21.0003C6.00039 22.6569 7.3434 24 9.00008 24C10.6568 24 11.9998 22.6569 11.9998 21.0003V17.7074L6.03972 17.6064Z" fill="#FDF5CB"/>
<path d="M2.62152 9.2281V14.8579C2.62152 15.0468 2.5553 15.2296 2.43435 15.3746L0.707981 17.4452C0.471437 17.7289 0.341846 18.0866 0.341846 18.456V19.6143C0.341846 19.9816 0.63959 20.2794 1.00693 20.2794H16.993C17.3603 20.2794 17.6581 19.9816 17.6581 19.6143V18.456C17.6581 18.0866 17.5285 17.7289 17.292 17.4452L15.5656 15.3746C15.4446 15.2296 15.3784 15.0467 15.3784 14.8579V9.2281C15.3784 5.70537 12.5226 2.84961 8.99992 2.84961C5.47728 2.84961 2.62152 5.70537 2.62152 9.2281Z" fill="#FBE88C"/>
<path d="M4.69255 18.9443C4.15725 18.9443 3.82997 18.3348 4.1463 17.903C4.15349 17.8932 4.16077 17.8838 4.16816 17.8749L5.89453 15.8044C6.01548 15.6593 6.0817 15.4765 6.0817 15.2877V9.65785C6.0817 7.56795 7.08691 5.713 8.64015 4.54968C8.96579 4.30575 9.43927 4.44214 9.57311 4.82643C10.1664 6.53007 11.7877 7.75608 13.691 7.75608C14.2 7.75608 14.6889 7.66809 15.1434 7.50708C14.6644 5.79398 13.4878 4.37288 11.9396 3.56735H10.5608C10.8609 3.47386 11.1705 3.40161 11.4878 3.35306C10.7233 3.02896 9.88263 2.84961 9.00001 2.84961C5.47729 2.84961 2.62152 5.70537 2.62152 9.2281V14.8579C2.62152 15.0468 2.5553 15.2296 2.43435 15.3746L0.707981 17.4452C0.471437 17.7289 0.341846 18.0866 0.341846 18.456V19.6143C0.341846 19.9816 0.63959 20.2794 1.00693 20.2794H16.993C17.3603 20.2794 17.6581 19.9817 17.6581 19.6143V18.9444H4.69255V18.9443Z" fill="#FBE372"/>
<path d="M13.691 6.79062C15.5661 6.79062 17.0863 5.27049 17.0863 3.39531C17.0863 1.52013 15.5661 0 13.691 0C11.8158 0 10.2957 1.52013 10.2957 3.39531C10.2957 5.27049 11.8158 6.79062 13.691 6.79062Z" fill="#E5827F"/>
<path d="M11.8818 3.14723C11.8818 1.73482 12.7452 0.523428 13.9722 0.0117283C13.8796 0.00410248 13.7855 0 13.691 0C11.8158 0 10.2957 1.52014 10.2957 3.39531C10.2957 5.27048 11.8158 6.79062 13.691 6.79062C14.1537 6.79062 14.5956 6.69776 14.9976 6.53009C13.2537 6.38747 11.8818 4.9279 11.8818 3.14723Z" fill="#DE6A66"/>
</svg>
