<svg width="20" height="24" viewBox="0 0 20 24" fill="none" xmlns="http://www.w3.org/2000/svg">
<path d="M12.4082 15.9167L14.5237 14.7668L18.2044 21.5382C18.3151 21.7419 18.1712 21.9906 17.9395 21.9962L15.9006 22.0456C15.8008 22.048 15.7084 22.0983 15.6521 22.1807L14.5018 23.8648C14.3711 24.0563 14.0841 24.0418 13.9734 23.838L10.2927 17.0667L12.4082 15.9167Z" fill="#A2AEE6"/>
<path d="M7.59176 15.9167L5.47629 14.7668L1.79562 21.5382C1.6849 21.7419 1.82876 21.9906 2.06051 21.9962L4.09938 22.0456C4.19913 22.048 4.29162 22.0983 4.34791 22.1807L5.49818 23.8648C5.62891 24.0563 5.91588 24.0418 6.0266 23.838L9.70727 17.0667L7.59176 15.9167Z" fill="#A2AEE6"/>
<path d="M17.9395 21.9963L17.2212 22.0136L13.5651 15.2881L14.5238 14.7668L18.2045 21.5381C18.3153 21.7419 18.1712 21.9905 17.9395 21.9963Z" fill="#8795DE"/>
<path d="M9.70708 17.0664L6.02641 23.8381C5.91607 24.0419 5.62896 24.0564 5.49841 23.8646L5.05568 23.2161C5.07878 23.1944 5.09857 23.1685 5.11493 23.1386L8.70986 16.5244L9.70708 17.0664Z" fill="#8795DE"/>
<path d="M10 18.8717C15.2113 18.8717 19.4358 14.6471 19.4358 9.43584C19.4358 4.22457 15.2113 0 10 0C4.78873 0 0.564159 4.22457 0.564159 9.43584C0.564159 14.6471 4.78873 18.8717 10 18.8717Z" fill="#FEA613"/>
<path d="M19.4358 9.43548C19.4358 14.6468 15.2112 18.8714 9.99994 18.8714C8.67221 18.8714 7.4085 18.5972 6.26241 18.102C7.14886 18.3781 8.09119 18.5265 9.06821 18.5265C14.2795 18.5265 18.5041 14.3019 18.5041 9.09058C18.5041 5.20754 16.1584 1.87229 12.8067 0.424561C16.6474 1.61931 19.4358 5.20173 19.4358 9.43548Z" fill="#FB8801"/>
<path d="M9.99999 16.8615C14.101 16.8615 17.4256 13.5369 17.4256 9.43586C17.4256 5.33481 14.101 2.01025 9.99999 2.01025C5.89894 2.01025 2.57438 5.33481 2.57438 9.43586C2.57438 13.5369 5.89894 16.8615 9.99999 16.8615Z" fill="#FEE45A"/>
<path d="M17.4254 9.43556C17.4254 13.5368 14.1012 16.8615 9.99996 16.8615C8.61969 16.8615 7.32711 16.4848 6.22002 15.8286C7.09681 16.1933 8.05892 16.3947 9.06823 16.3947C13.1695 16.3947 16.4942 13.07 16.4942 8.9692C16.4942 6.24815 15.0305 3.86873 12.8477 2.57568C15.5355 3.6929 17.4254 6.34359 17.4254 9.43556Z" fill="#FED402"/>
<path d="M9.17055 8.19369C9.36963 8.19369 9.53107 8.0323 9.53107 7.83317C9.53107 7.63405 9.36967 7.47266 9.17055 7.47266H7.81497C7.61589 7.47266 7.45446 7.63405 7.45446 7.83317V11.0504C7.45446 11.2495 7.61585 11.4109 7.81497 11.4109H9.17055C9.36963 11.4109 9.53107 11.2495 9.53107 11.0504C9.53107 10.8513 9.36967 10.6899 9.17055 10.6899H8.17544V9.8023H9.07057C9.26964 9.8023 9.43108 9.64091 9.43108 9.44178C9.43108 9.24266 9.26969 9.08127 9.07057 9.08127H8.17544V8.19369H9.17055Z" fill="#FEA613"/>
<path d="M6.23417 9.20202C6.36088 9.02193 6.4356 8.80279 6.4356 8.56635C6.4356 7.95562 5.93872 7.45874 5.32799 7.45874H4.38486C4.18578 7.45874 4.02435 7.62013 4.02435 7.81926V11.0661C4.02435 11.162 4.06255 11.2539 4.13052 11.3216C4.19811 11.3889 4.28956 11.4266 4.38486 11.4266H4.38646C4.38646 11.4266 5.25369 11.4228 5.4927 11.4228C6.17338 11.4228 6.72716 10.869 6.72716 10.1883C6.72716 9.78566 6.53333 9.42749 6.23417 9.20202ZM4.74533 8.17972H5.32794C5.54113 8.17972 5.71456 8.35316 5.71456 8.56635C5.71456 8.77954 5.54113 8.95288 5.32794 8.95288C5.25847 8.95288 4.74533 8.95377 4.74533 8.95377V8.17972ZM5.49266 10.7017C5.35583 10.7017 5.01378 10.703 4.74533 10.7041V9.67574C4.82342 9.67541 5.49266 9.6748 5.49266 9.6748C5.77578 9.6748 6.00613 9.90515 6.00613 10.1883C6.00613 10.4714 5.77578 10.7017 5.49266 10.7017Z" fill="#FEA613"/>
<path d="M12.0571 9.12903C11.7061 8.99961 11.3818 8.8625 11.2196 8.79223C11.1698 8.77062 11.1314 8.74222 11.1089 8.71006C11.059 8.63881 11.0476 8.54291 11.0785 8.45352C11.1174 8.3413 11.2154 8.25636 11.3544 8.2145C11.8363 8.06942 12.2778 8.41977 12.2898 8.42937C12.4421 8.55603 12.6684 8.53592 12.7961 8.38405C12.9242 8.23161 12.9045 8.00422 12.7521 7.87611C12.7222 7.85103 12.0104 7.26402 11.1465 7.52408C10.7852 7.63292 10.5121 7.88572 10.3972 8.21759C10.2908 8.52495 10.3361 8.86376 10.5186 9.12401C10.6177 9.2653 10.7611 9.37939 10.9331 9.45387C11.102 9.52704 11.4403 9.67006 11.8076 9.80553C11.9607 9.86201 12.3114 10.023 12.2623 10.2981C12.2266 10.498 11.988 10.7047 11.6505 10.7047C11.3152 10.7047 10.992 10.569 10.7861 10.3418C10.6524 10.1943 10.4244 10.1832 10.2769 10.3167C10.1294 10.4504 10.1182 10.6784 10.2519 10.8259C10.5921 11.2015 11.115 11.4257 11.6505 11.4257C12.3127 11.4257 12.8685 11.0047 12.9721 10.4248C13.0496 9.99012 12.85 9.42153 12.0571 9.12903Z" fill="#FEA613"/>
<path d="M13.4616 7.81833C13.4616 8.01745 13.623 8.17884 13.8221 8.17884H14.3545V11.0652C14.3545 11.2643 14.5159 11.4257 14.7151 11.4257C14.9142 11.4257 15.0756 11.2643 15.0756 11.0652V8.17879H15.6152C15.8143 8.17879 15.9757 8.0174 15.9757 7.81828C15.9757 7.61915 15.8143 7.45776 15.6152 7.45776H13.8221C13.623 7.45781 13.4616 7.6192 13.4616 7.81833Z" fill="#FEA613"/>
</svg>
