<svg width="24" height="24" viewBox="0 0 24 24" fill="none" xmlns="http://www.w3.org/2000/svg">
<path d="M21.3671 9.4165L19.1941 16.7083L21.3671 24H22.4537C22.6537 24 22.8158 23.8378 22.8158 23.6378V9.4165H21.3671Z" fill="#2BAACF"/>
<path d="M18.2645 9.4165V23.6378C18.2645 23.8378 18.4267 24 18.6267 24H21.3671V9.4165H18.2645Z" fill="#2FC0EB"/>
<path d="M13.9185 12.3137L15.3672 23.9998H16.4537C16.6537 23.9998 16.8159 23.8377 16.8159 23.6377V13.7624L13.9185 12.3137Z" fill="#6262D1"/>
<path d="M12.2645 13.7626V23.6379C12.2645 23.8379 12.4267 24.0001 12.6267 24.0001H15.3672V11.5896L12.2645 13.7626Z" fill="#8869FF"/>
<path d="M15.3671 6.51904L13.1941 10.1408L15.3671 13.7625H16.8158V6.88122C16.8158 6.6812 16.6537 6.51904 16.4537 6.51904H15.3671Z" fill="#9587FF"/>
<path d="M12.2645 6.88122V13.7625H15.3672V6.51904H12.6267C12.4267 6.51904 12.2645 6.6812 12.2645 6.88122Z" fill="#9EA4FF"/>
<path d="M7.91846 18.833L9.36715 24H10.4537C10.6537 24 10.8158 23.8379 10.8158 23.6378V20.2817L7.91846 18.833Z" fill="#FF6145"/>
<path d="M6.26455 20.2817V23.6378C6.26455 23.8379 6.4267 24 6.62672 24H9.36716V18.833L6.26455 20.2817Z" fill="#FF7E4F"/>
<path d="M9.36716 13.7627L7.19412 17.0222L9.36716 20.2818H10.8159V14.1249C10.8159 13.9249 10.6537 13.7627 10.4537 13.7627H9.36716Z" fill="#FF9457"/>
<path d="M6.26455 14.1249V20.2818H9.36716V13.7627H6.62672C6.4267 13.7627 6.26455 13.9249 6.26455 14.1249Z" fill="#FFAE6B"/>
<path d="M1.91845 20.2817L3.36714 24H4.45366C4.65368 24 4.81584 23.8379 4.81584 23.6379V21.7304L1.91845 20.2817Z" fill="#FFAE6B"/>
<path d="M0.264532 21.7304V23.6379C0.264532 23.8379 0.426689 24 0.626705 24H3.36715V20.2817L0.264532 21.7304Z" fill="#FFCF6E"/>
<path d="M3.36714 9.4165L1.1941 15.5734L3.36714 21.7304H4.81583V9.77868C4.81583 9.57866 4.65368 9.4165 4.45366 9.4165H3.36714Z" fill="#FFE75E"/>
<path d="M0.264532 9.77868V21.7304H3.36715V9.4165H0.626705C0.426689 9.4165 0.264532 9.57866 0.264532 9.77868Z" fill="#FFF1A0"/>
<path d="M23.6251 2.85692L20.7926 0.102519C20.7224 0.0341891 20.6313 0 20.5402 0L21.3671 9.4165H22.8158V3.47874H23.3726C23.6977 3.47874 23.8582 3.08354 23.6251 2.85692Z" fill="#4FD7FF"/>
<path d="M20.6319 0.102519C20.6064 0.0341891 20.5733 0 20.5402 0C20.4491 0 20.358 0.0341891 20.2877 0.102519L17.4552 2.85687C17.2221 3.08354 17.3826 3.4787 17.7077 3.4787H18.2645V9.4165H21.3671V2.03005L20.6319 0.102519Z" fill="#8DE5FF"/>
</svg>
