<svg width="18" height="24" viewBox="0 0 18 24" fill="none" xmlns="http://www.w3.org/2000/svg">
<path d="M13.1131 0H5.11958L4.85603 0.0499977C4.14183 0.0499977 3.99429 0.86246 4.30866 1.50374L5.91047 4.73207L11.9112 4.71976L12.6369 4.12954L13.9798 1.39004C14.2942 0.748759 13.8273 0 13.1131 0V0Z" fill="#B78C7A"/>
<path d="M12.6195 4.10213H6.55978C6.4275 4.10213 6.30743 4.02496 6.25246 3.9046L4.98572 1.13026C4.80426 0.733074 4.88293 0.297284 5.1194 0H4.88727C4.17302 0 3.70586 0.748517 4.02052 1.3899L5.75209 4.92255L8.55949 5.49603L12.2479 4.92255L12.6366 4.12944C12.6291 4.11752 12.6269 4.11405 12.6195 4.10213Z" fill="#AB7B64"/>
<path d="M12.0342 7.15959L6.07048 7.03638L2.95306 11.2012C1.1903 13.6576 0.382086 16.5287 0.703307 19.535L0.710498 19.6024C0.972551 22.0554 3.13365 23.5969 5.60052 23.5969L12.3995 23.6708C13.4586 23.6708 14.7892 23.6426 15.5903 23.057C16.6551 22.2788 17.3933 21.0719 17.5429 19.6722L17.5501 19.6048C17.8713 16.5984 17.0745 13.579 15.3118 11.1225L12.825 7.65715L12.0342 7.15959Z" fill="#B78C7A"/>
<path d="M14.8781 23.0202H5.16569C3.29643 23.0202 1.68526 21.6533 1.43758 19.8005C1.43189 19.7578 1.42673 19.7149 1.42214 19.6719L1.4149 19.6048C1.09397 16.5982 1.89075 13.579 3.65322 11.1225L5.91189 7.97519C6.04789 7.78572 6.2668 7.67337 6.50004 7.67337H12.6195C12.6895 7.67337 12.7581 7.66806 12.8251 7.65696L12.2479 6.85294L8.64574 6.18604L5.75206 6.85294L5.17486 7.65696H5.17506L2.68801 11.1225C0.925542 13.579 0.128765 16.5982 0.449696 19.6048L0.456935 19.6719C0.602488 21.0344 1.30641 22.2136 2.32577 22.9932C2.32553 22.9932 2.32528 22.9931 2.32509 22.9931C3.40921 23.8787 4.86629 24.0582 6.22115 23.9854H12.744C13.841 23.9854 14.8593 23.6176 15.6749 22.9931C15.4128 23.011 15.1469 23.0202 14.8781 23.0202Z" fill="#AB7B64"/>
<path d="M12.6196 4.92261H5.75212L5.59204 5.01348C5.3255 5.01348 5.10943 5.22954 5.10943 5.49609L5.02319 6.29702C5.02319 6.56356 5.23925 6.77962 5.5058 6.77962L12.5025 6.74058C12.7691 6.74058 12.9851 6.52452 12.9851 6.25797L13.1022 6.0326V5.40521C13.1022 5.13867 12.8861 4.92261 12.6196 4.92261Z" fill="#FFD064"/>
<path d="M13.102 6.0326V6.37042C13.102 6.63696 12.8859 6.85302 12.6193 6.85302H5.38031C5.11377 6.85302 4.89771 6.63696 4.89771 6.37042V5.40521C4.89771 5.13867 5.11377 4.92261 5.38031 4.92261H5.71813V5.74303C5.71813 5.90297 5.84776 6.0326 6.00769 6.0326H13.102Z" fill="#FFC250"/>
<path d="M8.76061 20.8532C6.02125 20.8532 4.30835 18.9122 4.30835 16.1729C4.30835 14.8372 4.56176 13.6192 5.42229 12.7255C6.32665 11.7863 7.59618 11.2012 8.99988 11.2012C11.7392 11.2012 13.9678 13.4298 13.9678 16.1691C13.9678 17.5333 13.4776 18.8375 12.5219 19.6695C11.5207 20.541 10.1358 20.8532 8.76061 20.8532Z" fill="#FFD064"/>
<path d="M12.811 19.353C11.8989 20.4427 10.5288 21.1372 8.9999 21.1372C6.26064 21.1372 4.03198 18.9085 4.03198 16.1693C4.03198 14.6404 4.72645 13.2703 5.81616 12.3582C5.09419 13.221 4.65937 14.3315 4.65937 15.5419C4.65937 18.2811 6.88803 20.5098 9.62728 20.5098C10.8376 20.5098 11.9481 20.075 12.811 19.353Z" fill="#FFC250"/>
<path d="M12.3993 16.169C12.3993 17.0855 12.0367 17.9173 11.447 18.5287C10.8287 19.1698 9.96093 19.3416 8.99993 19.3416C7.12246 19.3416 5.8855 18.0502 5.8855 16.1728C5.8855 15.1956 6.01262 14.311 6.67272 13.6909C7.2809 13.1195 8.09949 12.7695 8.99983 12.7695C10.8773 12.7695 12.3993 14.2915 12.3993 16.169Z" fill="#FFC250"/>
<path d="M11.6761 18.2661C11.0535 19.059 10.0864 19.5687 9.00004 19.5687C7.12272 19.5687 5.60059 18.0465 5.60059 16.1692C5.60059 15.0829 6.11022 14.1152 6.90313 13.4932C6.44997 14.0708 6.17971 14.7986 6.17971 15.5901C6.17971 17.4674 7.70184 18.9895 9.57917 18.9895C10.3702 18.9895 11.0984 18.7193 11.6761 18.2661Z" fill="#EBB044"/>
<path d="M9.40575 15.8156C9.31 15.7818 9.22347 15.7561 9.14712 15.7334C8.93299 15.6698 8.85519 15.6432 8.78087 15.5548C8.75621 15.5254 8.73782 15.4535 8.75578 15.365C8.76548 15.317 8.80095 15.1989 8.91972 15.1381C9.09157 15.0505 9.28751 15.2055 9.30928 15.2234C9.46342 15.3505 9.69159 15.3288 9.81881 15.1744C9.94602 15.0202 9.92411 14.7921 9.76983 14.6649C9.65805 14.5727 9.51786 14.4914 9.36193 14.4406V14.3385C9.36193 14.1386 9.19992 13.9766 8.99997 13.9766C8.80003 13.9766 8.63802 14.1386 8.63802 14.3385V14.4718C8.62214 14.4789 8.60622 14.4854 8.59039 14.4935C8.30922 14.6372 8.11087 14.9024 8.0463 15.2212C7.98655 15.516 8.05388 15.8148 8.22651 16.0204C8.44445 16.2798 8.69675 16.3548 8.94081 16.4274C9.01233 16.4486 9.08626 16.4706 9.16488 16.4983C9.37694 16.5732 9.39851 16.7255 9.3792 16.8401C9.35203 17.002 9.21555 17.1769 8.98009 17.1784C8.71553 17.1799 8.64738 17.1693 8.45149 17.0414C8.28413 16.9321 8.05986 16.9792 7.95055 17.1466C7.84124 17.314 7.8883 17.5382 8.05571 17.6475C8.27728 17.7923 8.44459 17.8574 8.63802 17.8846V18.0072C8.63802 18.2072 8.80003 18.3692 8.99997 18.3692C9.19992 18.3692 9.36193 18.2072 9.36193 18.0072V17.8373C9.77108 17.6917 10.0321 17.3234 10.0931 16.9599C10.1786 16.4507 9.9024 15.9909 9.40575 15.8156Z" fill="#FFD064"/>
</svg>
