<svg width="24" height="24" viewBox="0 0 24 24" fill="none" xmlns="http://www.w3.org/2000/svg">
<path d="M4.34609 11.9999C4.34609 9.88633 5.20279 7.97285 6.58789 6.58781V3.51465H3.51473C1.34314 5.68624 9.53674e-06 8.68624 9.53674e-06 11.9999C9.53674e-06 15.3136 1.34314 18.3136 3.51473 20.4852H6.60605L6.58784 17.412C5.20279 16.027 4.34609 14.1135 4.34609 11.9999Z" fill="#BDF7F7"/>
<path d="M12 0L21.5014 9.03192L23.5759 8.82988C22.1854 3.74091 17.53 0 12 0Z" fill="#30CAF3"/>
<path d="M12 0C8.6863 0 5.6863 1.34313 3.51471 3.51472L6.58787 6.58788C7.97292 5.20278 9.8864 4.34608 12 4.34608C15.3443 4.34608 18.1872 6.4912 19.2289 9.48039L22.2257 9.03192C21.0642 3.8401 16.9266 0 12 0V0Z" fill="#3AE8E6"/>
<path d="M23.5759 8.82962C23.1222 8.57832 22.6095 8.42124 22.064 8.38574L21.1026 11.9997H24C24 10.9023 23.8519 9.83955 23.5759 8.82962Z" fill="#26ABFF"/>
<path d="M21.827 8.37842C20.8085 8.37842 19.8876 8.80158 19.2289 9.48053C19.504 10.2696 19.6539 11.1173 19.6539 12.0001H22.5513C22.5513 10.7407 22.3803 9.5267 22.0639 8.38614C21.9856 8.38103 21.9066 8.37842 21.827 8.37842Z" fill="#30CAF3"/>
<path d="M22.3902 9.90137L21.1026 12.0003C21.1026 17.0275 17.0272 21.1029 12 21.1029V24.0003C18.6274 24.0003 24 18.6277 24 12.0003C24 10.995 23.3172 10.1495 22.3902 9.90137Z" fill="#30CAF3"/>
<path d="M22.5513 12.0002C22.5513 11.2841 22.4959 10.5828 22.3902 9.90127C22.2105 9.85318 22.0218 9.82715 21.827 9.82715C20.6268 9.82715 19.6539 10.8 19.6539 12.0002C19.6539 16.2273 16.2271 19.6541 12 19.6541C9.8864 19.6541 7.97292 18.7974 6.58787 17.4123L3.51471 20.4855C5.6863 22.6571 8.6863 24.0002 12 24.0002C17.8273 24.0002 22.5513 18.6276 22.5513 12.0002Z" fill="#3AE8E6"/>
<path d="M21.827 12.7241C22.227 12.7241 22.5513 12.3998 22.5513 11.9997C22.5513 11.5997 22.227 11.2754 21.827 11.2754C21.4269 11.2754 21.1026 11.5997 21.1026 11.9997C21.1026 12.3998 21.4269 12.7241 21.827 12.7241Z" fill="#BDF7F7"/>
<path d="M14.7331 10.2605L13.4088 10.061L12.3239 7.89137C12.1905 7.62443 11.8095 7.62443 11.6761 7.89137L10.5912 10.061L8.19255 10.4223C7.89745 10.4667 7.77972 10.829 7.99234 11.0385L9.72058 12.7407L9.32292 15.1336C9.274 15.428 9.58218 15.6519 9.84705 15.5144L12 14.3968L13.1886 15.0138L14.7331 10.2605Z" fill="#FFF066"/>
<path d="M14.2794 12.7405L16.0077 11.0382C16.2203 10.8288 16.1026 10.4665 15.8075 10.4221L14.7331 10.2603L12.727 12.2361L13.1886 15.0136L14.1529 15.5142C14.4178 15.6517 14.726 15.4278 14.677 15.1334L14.2794 12.7405Z" fill="#FCCA5C"/>
<path d="M21.0789 8.60155C21.2789 8.60155 21.4411 8.4394 21.4411 8.23937C21.4411 8.03935 21.2789 7.8772 21.0789 7.8772C20.8789 7.8772 20.7168 8.03935 20.7168 8.23937C20.7168 8.4394 20.8789 8.60155 21.0789 8.60155Z" fill="white"/>
<path d="M18.9487 5.41356C19.1487 5.41356 19.3109 5.25141 19.3109 5.05138C19.3109 4.85136 19.1487 4.68921 18.9487 4.68921C18.7487 4.68921 18.5865 4.85136 18.5865 5.05138C18.5865 5.25141 18.7487 5.41356 18.9487 5.41356Z" fill="white"/>
<path d="M15.7606 3.28318C15.9607 3.28318 16.1228 3.12103 16.1228 2.92101C16.1228 2.72099 15.9607 2.55884 15.7606 2.55884C15.5606 2.55884 15.3985 2.72099 15.3985 2.92101C15.3985 3.12103 15.5606 3.28318 15.7606 3.28318Z" fill="white"/>
<path d="M12 2.53514C12.2 2.53514 12.3622 2.37299 12.3622 2.17296C12.3622 1.97294 12.2 1.81079 12 1.81079C11.8 1.81079 11.6378 1.97294 11.6378 2.17296C11.6378 2.37299 11.8 2.53514 12 2.53514Z" fill="white"/>
<path d="M12 22.1892C12.2 22.1892 12.3622 22.027 12.3622 21.827C12.3622 21.627 12.2 21.4648 12 21.4648C11.8 21.4648 11.6378 21.627 11.6378 21.827C11.6378 22.027 11.8 22.1892 12 22.1892Z" fill="white"/>
<path d="M15.7606 21.4411C15.9607 21.4411 16.1228 21.279 16.1228 21.079C16.1228 20.8789 15.9607 20.7168 15.7606 20.7168C15.5606 20.7168 15.3985 20.8789 15.3985 21.079C15.3985 21.279 15.5606 21.4411 15.7606 21.4411Z" fill="white"/>
<path d="M18.9487 19.3108C19.1487 19.3108 19.3109 19.1486 19.3109 18.9486C19.3109 18.7486 19.1487 18.5864 18.9487 18.5864C18.7487 18.5864 18.5865 18.7486 18.5865 18.9486C18.5865 19.1486 18.7487 19.3108 18.9487 19.3108Z" fill="white"/>
<path d="M21.0789 16.1228C21.2789 16.1228 21.4411 15.9606 21.4411 15.7606C21.4411 15.5606 21.2789 15.3984 21.0789 15.3984C20.8789 15.3984 20.7168 15.5606 20.7168 15.7606C20.7168 15.9606 20.8789 16.1228 21.0789 16.1228Z" fill="white"/>
</svg>
